<svg width="407" height="60" viewBox="0 0 407 60" fill="none" xmlns="http://www.w3.org/2000/svg">
<rect x="12" width="395" height="60" rx="10" fill="#14162B"/>
<path d="M90.4542 26.475H94.2542V36.85L92.4792 37.05C91.8625 37.05 91.3709 36.8667 91.0042 36.5C90.6375 36.1333 90.4542 35.6417 90.4542 35.025V26.475ZM92.4792 37.05V33.95H100.329C100.446 34.1167 100.546 34.3333 100.629 34.6C100.713 34.85 100.754 35.1333 100.754 35.45C100.754 35.9833 100.638 36.3833 100.404 36.65C100.171 36.9167 99.8459 37.05 99.4292 37.05H92.4792ZM94.2542 31.225H90.4542V21.8C90.6209 21.7667 90.8709 21.725 91.2042 21.675C91.5542 21.625 91.8875 21.6 92.2042 21.6C92.9375 21.6 93.4625 21.725 93.7792 21.975C94.0959 22.225 94.2542 22.7 94.2542 23.4V31.225ZM106.548 34.625C106.932 34.625 107.307 34.5917 107.673 34.525C108.057 34.4417 108.332 34.35 108.498 34.25V31.85L106.398 32.05C105.832 32.0833 105.382 32.2 105.048 32.4C104.715 32.6 104.548 32.9 104.548 33.3C104.548 33.7 104.707 34.025 105.023 34.275C105.34 34.5083 105.848 34.625 106.548 34.625ZM106.398 24.625C108.132 24.625 109.515 24.9917 110.548 25.725C111.582 26.4417 112.098 27.5583 112.098 29.075V34.75C112.098 35.1667 111.99 35.5083 111.773 35.775C111.557 36.025 111.282 36.2417 110.948 36.425C110.448 36.725 109.823 36.9583 109.073 37.125C108.34 37.3083 107.498 37.4 106.548 37.4C104.848 37.4 103.49 37.0667 102.473 36.4C101.473 35.7333 100.973 34.7417 100.973 33.425C100.973 32.2917 101.323 31.425 102.023 30.825C102.723 30.2083 103.765 29.8333 105.148 29.7L108.473 29.35V29.05C108.473 28.4833 108.248 28.075 107.798 27.825C107.365 27.575 106.74 27.45 105.923 27.45C105.29 27.45 104.665 27.525 104.048 27.675C103.448 27.825 102.907 28 102.423 28.2C102.223 28.0667 102.048 27.8667 101.898 27.6C101.765 27.3167 101.698 27.025 101.698 26.725C101.698 26.025 102.082 25.5167 102.848 25.2C103.332 25 103.89 24.8583 104.523 24.775C105.173 24.675 105.798 24.625 106.398 24.625ZM118.628 34.625C119.012 34.625 119.387 34.5917 119.753 34.525C120.137 34.4417 120.412 34.35 120.578 34.25V31.85L118.478 32.05C117.912 32.0833 117.462 32.2 117.128 32.4C116.795 32.6 116.628 32.9 116.628 33.3C116.628 33.7 116.787 34.025 117.103 34.275C117.42 34.5083 117.928 34.625 118.628 34.625ZM118.478 24.625C120.212 24.625 121.595 24.9917 122.628 25.725C123.662 26.4417 124.178 27.5583 124.178 29.075V34.75C124.178 35.1667 124.07 35.5083 123.853 35.775C123.637 36.025 123.362 36.2417 123.028 36.425C122.528 36.725 121.903 36.9583 121.153 37.125C120.42 37.3083 119.578 37.4 118.628 37.4C116.928 37.4 115.57 37.0667 114.553 36.4C113.553 35.7333 113.053 34.7417 113.053 33.425C113.053 32.2917 113.403 31.425 114.103 30.825C114.803 30.2083 115.845 29.8333 117.228 29.7L120.553 29.35V29.05C120.553 28.4833 120.328 28.075 119.878 27.825C119.445 27.575 118.82 27.45 118.003 27.45C117.37 27.45 116.745 27.525 116.128 27.675C115.528 27.825 114.987 28 114.503 28.2C114.303 28.0667 114.128 27.8667 113.978 27.6C113.845 27.3167 113.778 27.025 113.778 26.725C113.778 26.025 114.162 25.5167 114.928 25.2C115.412 25 115.97 24.8583 116.603 24.775C117.253 24.675 117.878 24.625 118.478 24.625ZM133.558 34.025V26.5H137.258V34.5C137.258 34.9 137.175 35.2417 137.008 35.525C136.842 35.7917 136.575 36.0333 136.208 36.25C135.758 36.55 135.167 36.8083 134.433 37.025C133.717 37.2583 132.883 37.375 131.933 37.375C130.55 37.375 129.35 37.1417 128.333 36.675C127.333 36.2083 126.558 35.5083 126.008 34.575C125.475 33.625 125.208 32.45 125.208 31.05C125.208 29.5833 125.483 28.3833 126.033 27.45C126.6 26.5 127.358 25.7917 128.308 25.325C129.258 24.8583 130.308 24.625 131.458 24.625C132.058 24.625 132.592 24.6917 133.058 24.825C133.525 24.9583 133.908 25.1167 134.208 25.3V28.35C133.975 28.15 133.667 27.9667 133.283 27.8C132.9 27.6333 132.458 27.55 131.958 27.55C131.375 27.55 130.858 27.675 130.408 27.925C129.958 28.175 129.608 28.5583 129.358 29.075C129.108 29.5917 128.983 30.25 128.983 31.05C128.983 32.2167 129.242 33.075 129.758 33.625C130.292 34.175 131.008 34.45 131.908 34.45C132.275 34.45 132.6 34.4083 132.883 34.325C133.167 34.225 133.392 34.125 133.558 34.025ZM137.258 27.225L133.558 27.25V20.725C133.708 20.675 133.933 20.625 134.233 20.575C134.533 20.525 134.858 20.5 135.208 20.5C135.942 20.5 136.467 20.625 136.783 20.875C137.1 21.125 137.258 21.5833 137.258 22.25V27.225ZM138.837 21.55C138.837 20.9833 139.029 20.5083 139.412 20.125C139.812 19.7417 140.312 19.55 140.912 19.55C141.529 19.55 142.029 19.7417 142.412 20.125C142.796 20.5083 142.987 20.9833 142.987 21.55C142.987 22.1 142.796 22.575 142.412 22.975C142.029 23.375 141.529 23.575 140.912 23.575C140.312 23.575 139.812 23.375 139.412 22.975C139.029 22.575 138.837 22.1 138.837 21.55ZM139.062 30.4H142.762V36.975C142.612 37.025 142.387 37.0667 142.087 37.1C141.787 37.15 141.462 37.175 141.112 37.175C140.396 37.175 139.871 37.05 139.537 36.8C139.221 36.55 139.062 36.1 139.062 35.45V30.4ZM142.762 32.325H139.062V25.15C139.212 25.1 139.437 25.05 139.737 25C140.054 24.95 140.387 24.925 140.737 24.925C141.454 24.925 141.971 25.05 142.287 25.3C142.604 25.5333 142.762 25.9917 142.762 26.675V32.325ZM153.204 34.625C153.587 34.625 153.962 34.5917 154.329 34.525C154.712 34.4417 154.987 34.35 155.154 34.25V31.85L153.054 32.05C152.487 32.0833 152.037 32.2 151.704 32.4C151.37 32.6 151.204 32.9 151.204 33.3C151.204 33.7 151.362 34.025 151.679 34.275C151.995 34.5083 152.504 34.625 153.204 34.625ZM153.054 24.625C154.787 24.625 156.17 24.9917 157.204 25.725C158.237 26.4417 158.754 27.5583 158.754 29.075V34.75C158.754 35.1667 158.645 35.5083 158.429 35.775C158.212 36.025 157.937 36.2417 157.604 36.425C157.104 36.725 156.479 36.9583 155.729 37.125C154.995 37.3083 154.154 37.4 153.204 37.4C151.504 37.4 150.145 37.0667 149.129 36.4C148.129 35.7333 147.629 34.7417 147.629 33.425C147.629 32.2917 147.979 31.425 148.679 30.825C149.379 30.2083 150.42 29.8333 151.804 29.7L155.129 29.35V29.05C155.129 28.4833 154.904 28.075 154.454 27.825C154.02 27.575 153.395 27.45 152.579 27.45C151.945 27.45 151.32 27.525 150.704 27.675C150.104 27.825 149.562 28 149.079 28.2C148.879 28.0667 148.704 27.8667 148.554 27.6C148.42 27.3167 148.354 27.025 148.354 26.725C148.354 26.025 148.737 25.5167 149.504 25.2C149.987 25 150.545 24.8583 151.179 24.775C151.829 24.675 152.454 24.625 153.054 24.625ZM160.484 30.4L164.209 30.475V36.975C164.042 37.025 163.809 37.0667 163.509 37.1C163.209 37.15 162.884 37.175 162.534 37.175C161.834 37.175 161.317 37.05 160.984 36.8C160.65 36.55 160.484 36.1 160.484 35.45V30.4ZM164.209 32.4L160.484 32.325V20.725C160.65 20.675 160.884 20.625 161.184 20.575C161.484 20.525 161.809 20.5 162.159 20.5C162.875 20.5 163.392 20.625 163.709 20.875C164.042 21.125 164.209 21.5833 164.209 22.25V32.4ZM166.143 30.4L169.868 30.475V36.975C169.701 37.025 169.468 37.0667 169.168 37.1C168.868 37.15 168.543 37.175 168.193 37.175C167.493 37.175 166.976 37.05 166.643 36.8C166.31 36.55 166.143 36.1 166.143 35.45V30.4ZM169.868 32.4L166.143 32.325V20.725C166.31 20.675 166.543 20.625 166.843 20.575C167.143 20.525 167.468 20.5 167.818 20.5C168.535 20.5 169.051 20.625 169.368 20.875C169.701 21.125 169.868 21.5833 169.868 22.25V32.4ZM176.578 34.625C176.961 34.625 177.336 34.5917 177.703 34.525C178.086 34.4417 178.361 34.35 178.528 34.25V31.85L176.428 32.05C175.861 32.0833 175.411 32.2 175.078 32.4C174.744 32.6 174.578 32.9 174.578 33.3C174.578 33.7 174.736 34.025 175.053 34.275C175.369 34.5083 175.878 34.625 176.578 34.625ZM176.428 24.625C178.161 24.625 179.544 24.9917 180.578 25.725C181.611 26.4417 182.128 27.5583 182.128 29.075V34.75C182.128 35.1667 182.019 35.5083 181.803 35.775C181.586 36.025 181.311 36.2417 180.978 36.425C180.478 36.725 179.853 36.9583 179.103 37.125C178.369 37.3083 177.528 37.4 176.578 37.4C174.878 37.4 173.519 37.0667 172.503 36.4C171.503 35.7333 171.003 34.7417 171.003 33.425C171.003 32.2917 171.353 31.425 172.053 30.825C172.753 30.2083 173.794 29.8333 175.178 29.7L178.503 29.35V29.05C178.503 28.4833 178.278 28.075 177.828 27.825C177.394 27.575 176.769 27.45 175.953 27.45C175.319 27.45 174.694 27.525 174.078 27.675C173.478 27.825 172.936 28 172.453 28.2C172.253 28.0667 172.078 27.8667 171.928 27.6C171.794 27.3167 171.728 27.025 171.728 26.725C171.728 26.025 172.111 25.5167 172.878 25.2C173.361 25 173.919 24.8583 174.553 24.775C175.203 24.675 175.828 24.625 176.428 24.625ZM193.913 25H193.763C193.596 25.5333 193.396 26.125 193.163 26.775C192.946 27.425 192.721 28.1083 192.488 28.825C192.254 29.525 192.029 30.225 191.813 30.925L191.363 33.175C191.263 33.4917 191.163 33.825 191.063 34.175C190.979 34.525 190.888 34.8667 190.788 35.2C190.688 35.5333 190.596 35.85 190.513 36.15C190.429 36.45 190.346 36.7333 190.263 37C190.079 37.05 189.871 37.1 189.638 37.15C189.404 37.2167 189.129 37.25 188.813 37.25C188.113 37.25 187.579 37.125 187.213 36.875C186.846 36.625 186.663 36.2583 186.663 35.775C186.663 35.575 186.688 35.3667 186.738 35.15C186.804 34.9333 186.879 34.6833 186.963 34.4C187.113 33.85 187.321 33.1583 187.588 32.325C187.871 31.4917 188.171 30.5917 188.488 29.625C188.821 28.6417 189.154 27.675 189.488 26.725C189.838 25.775 190.154 24.9 190.438 24.1C190.738 23.3 190.979 22.675 191.163 22.225C191.396 22.075 191.763 21.9417 192.263 21.825C192.779 21.6917 193.288 21.625 193.788 21.625C194.504 21.625 195.146 21.7333 195.713 21.95C196.279 22.15 196.638 22.475 196.788 22.925C197.104 23.8083 197.446 24.8333 197.813 26C198.196 27.15 198.579 28.3583 198.963 29.625C199.346 30.8917 199.713 32.125 200.063 33.325C200.429 34.5083 200.746 35.575 201.013 36.525C200.829 36.725 200.563 36.8917 200.213 37.025C199.863 37.175 199.446 37.25 198.963 37.25C198.279 37.25 197.796 37.125 197.513 36.875C197.229 36.625 197.013 36.25 196.863 35.75L196.063 32.95L195.638 30.825C195.438 30.075 195.229 29.35 195.013 28.65C194.796 27.95 194.596 27.2917 194.413 26.675C194.229 26.0417 194.063 25.4833 193.913 25ZM189.688 33.625L191.163 30.675H197.013L197.513 33.625H189.688ZM207.666 37.375C207.033 37.375 206.466 37.2917 205.966 37.125C205.466 36.975 205.033 36.8 204.666 36.6V33.475C204.949 33.7083 205.291 33.925 205.691 34.125C206.108 34.325 206.574 34.425 207.091 34.425C208.008 34.425 208.716 34.1333 209.216 33.55C209.733 32.9667 209.991 32.0917 209.991 30.925C209.991 30.125 209.874 29.4833 209.641 29C209.424 28.5 209.108 28.1333 208.691 27.9C208.274 27.6667 207.783 27.55 207.216 27.55C206.833 27.55 206.483 27.6 206.166 27.7C205.866 27.7833 205.608 27.8917 205.391 28.025V35.675H201.716V27.5C201.716 27.0833 201.799 26.7417 201.966 26.475C202.133 26.1917 202.391 25.9417 202.741 25.725C203.241 25.4083 203.874 25.15 204.641 24.95C205.408 24.7333 206.266 24.625 207.216 24.625C208.499 24.625 209.633 24.85 210.616 25.3C211.616 25.7333 212.391 26.4167 212.941 27.35C213.491 28.2667 213.766 29.4583 213.766 30.925C213.766 32.3417 213.499 33.525 212.966 34.475C212.433 35.425 211.708 36.15 210.791 36.65C209.874 37.1333 208.833 37.375 207.666 37.375ZM205.416 34.725V41.45C205.249 41.5 205.016 41.55 204.716 41.6C204.416 41.65 204.091 41.675 203.741 41.675C203.041 41.675 202.524 41.55 202.191 41.3C201.874 41.05 201.716 40.5917 201.716 39.925V34.725H205.416ZM220.82 37.375C220.187 37.375 219.62 37.2917 219.12 37.125C218.62 36.975 218.187 36.8 217.82 36.6V33.475C218.104 33.7083 218.445 33.925 218.845 34.125C219.262 34.325 219.729 34.425 220.245 34.425C221.162 34.425 221.87 34.1333 222.37 33.55C222.887 32.9667 223.145 32.0917 223.145 30.925C223.145 30.125 223.029 29.4833 222.795 29C222.579 28.5 222.262 28.1333 221.845 27.9C221.429 27.6667 220.937 27.55 220.37 27.55C219.987 27.55 219.637 27.6 219.32 27.7C219.02 27.7833 218.762 27.8917 218.545 28.025V35.675H214.87V27.5C214.87 27.0833 214.954 26.7417 215.12 26.475C215.287 26.1917 215.545 25.9417 215.895 25.725C216.395 25.4083 217.029 25.15 217.795 24.95C218.562 24.7333 219.42 24.625 220.37 24.625C221.654 24.625 222.787 24.85 223.77 25.3C224.77 25.7333 225.545 26.4167 226.095 27.35C226.645 28.2667 226.92 29.4583 226.92 30.925C226.92 32.3417 226.654 33.525 226.12 34.475C225.587 35.425 224.862 36.15 223.945 36.65C223.029 37.1333 221.987 37.375 220.82 37.375ZM218.57 34.725V41.45C218.404 41.5 218.17 41.55 217.87 41.6C217.57 41.65 217.245 41.675 216.895 41.675C216.195 41.675 215.679 41.55 215.345 41.3C215.029 41.05 214.87 40.5917 214.87 39.925V34.725H218.57ZM236.63 34.325C237.53 34.325 238.171 34.1667 238.555 33.85C238.955 33.5167 239.155 33.125 239.155 32.675C239.155 32.2583 238.996 31.925 238.68 31.675C238.38 31.4083 237.93 31.1833 237.33 31L236.005 30.575C235.105 30.275 234.305 29.9417 233.605 29.575C232.921 29.2083 232.388 28.7333 232.005 28.15C231.638 27.5667 231.455 26.825 231.455 25.925C231.455 24.5417 231.98 23.4417 233.03 22.625C234.08 21.8083 235.538 21.4 237.405 21.4C238.355 21.4 239.196 21.4917 239.93 21.675C240.68 21.8583 241.263 22.1333 241.68 22.5C242.113 22.85 242.33 23.2833 242.33 23.8C242.33 24.1833 242.238 24.5167 242.055 24.8C241.888 25.0667 241.671 25.3 241.405 25.5C241.021 25.2333 240.513 25.0083 239.88 24.825C239.246 24.625 238.546 24.525 237.78 24.525C236.98 24.525 236.38 24.6583 235.98 24.925C235.58 25.175 235.38 25.5083 235.38 25.925C235.38 26.2583 235.513 26.5333 235.78 26.75C236.046 26.95 236.446 27.1333 236.98 27.3L238.355 27.725C239.871 28.1917 241.038 28.8167 241.855 29.6C242.671 30.3667 243.08 31.4 243.08 32.7C243.08 34.1 242.538 35.2417 241.455 36.125C240.371 36.9917 238.805 37.425 236.755 37.425C235.738 37.425 234.83 37.3167 234.03 37.1C233.23 36.8833 232.588 36.5667 232.105 36.15C231.638 35.7333 231.405 35.25 231.405 34.7C231.405 34.2667 231.53 33.9 231.78 33.6C232.046 33.2833 232.338 33.05 232.655 32.9C233.105 33.2667 233.663 33.6 234.33 33.9C235.013 34.1833 235.78 34.325 236.63 34.325ZM244.153 30.4H247.828V33.075C247.828 33.5417 247.978 33.8833 248.278 34.1C248.578 34.3167 249.003 34.425 249.553 34.425C249.803 34.425 250.07 34.4 250.353 34.35C250.653 34.2833 250.903 34.2083 251.103 34.125C251.237 34.275 251.353 34.4583 251.453 34.675C251.57 34.8917 251.628 35.1417 251.628 35.425C251.628 35.9917 251.395 36.4583 250.928 36.825C250.462 37.1917 249.678 37.375 248.578 37.375C247.178 37.375 246.087 37.0583 245.303 36.425C244.537 35.7917 244.153 34.7583 244.153 33.325V30.4ZM246.503 28.125V25.275H251.303C251.387 25.4083 251.47 25.6 251.553 25.85C251.637 26.1 251.678 26.375 251.678 26.675C251.678 27.175 251.562 27.5417 251.328 27.775C251.112 28.0083 250.812 28.125 250.428 28.125H246.503ZM247.828 31.025H244.153V22.05C244.32 22 244.553 21.95 244.853 21.9C245.153 21.8333 245.47 21.8 245.803 21.8C246.52 21.8 247.037 21.925 247.353 22.175C247.67 22.425 247.828 22.8833 247.828 23.55V31.025ZM264.622 31C264.622 32.3 264.356 33.4333 263.822 34.4C263.306 35.35 262.572 36.0833 261.622 36.6C260.672 37.1167 259.556 37.375 258.272 37.375C257.006 37.375 255.889 37.125 254.922 36.625C253.972 36.1083 253.231 35.375 252.697 34.425C252.181 33.4583 251.922 32.3167 251.922 31C251.922 29.6833 252.189 28.5583 252.722 27.625C253.256 26.675 253.997 25.9417 254.947 25.425C255.914 24.8917 257.022 24.625 258.272 24.625C259.539 24.625 260.647 24.8917 261.597 25.425C262.547 25.9417 263.289 26.6833 263.822 27.65C264.356 28.6 264.622 29.7167 264.622 31ZM258.272 27.55C257.489 27.55 256.864 27.85 256.397 28.45C255.947 29.05 255.722 29.9 255.722 31C255.722 32.1167 255.947 32.975 256.397 33.575C256.847 34.1583 257.472 34.45 258.272 34.45C259.072 34.45 259.697 34.15 260.147 33.55C260.597 32.95 260.822 32.1 260.822 31C260.822 29.9167 260.597 29.075 260.147 28.475C259.697 27.8583 259.072 27.55 258.272 27.55ZM269.4 28.225V31.35H265.7V27.775C265.7 27.3083 265.809 26.9167 266.025 26.6C266.259 26.2667 266.575 25.975 266.975 25.725C267.525 25.3917 268.184 25.1333 268.95 24.95C269.734 24.75 270.55 24.65 271.4 24.65C273.1 24.65 273.95 25.2167 273.95 26.35C273.95 26.6167 273.909 26.8667 273.825 27.1C273.759 27.3333 273.675 27.5333 273.575 27.7C273.409 27.6667 273.2 27.6417 272.95 27.625C272.717 27.5917 272.459 27.575 272.175 27.575C271.675 27.575 271.175 27.6333 270.675 27.75C270.175 27.8667 269.75 28.025 269.4 28.225ZM265.7 30.4L269.4 30.475V36.975C269.234 37.025 269 37.0667 268.7 37.1C268.4 37.15 268.075 37.175 267.725 37.175C267.025 37.175 266.509 37.05 266.175 36.8C265.859 36.55 265.7 36.1 265.7 35.45V30.4ZM275.868 32.75L275.718 30.25L281.918 29.275C281.885 28.8083 281.685 28.375 281.318 27.975C280.951 27.575 280.41 27.375 279.693 27.375C278.943 27.375 278.318 27.6333 277.818 28.15C277.318 28.65 277.051 29.3667 277.018 30.3L277.143 32.025C277.293 32.9417 277.685 33.6 278.318 34C278.951 34.3833 279.701 34.575 280.568 34.575C281.268 34.575 281.926 34.475 282.543 34.275C283.16 34.075 283.66 33.8667 284.043 33.65C284.293 33.8 284.493 34.0083 284.643 34.275C284.81 34.5417 284.893 34.825 284.893 35.125C284.893 35.625 284.693 36.0417 284.293 36.375C283.91 36.7083 283.368 36.9583 282.668 37.125C281.985 37.2917 281.201 37.375 280.318 37.375C279.035 37.375 277.876 37.1333 276.843 36.65C275.826 36.1667 275.026 35.4417 274.443 34.475C273.86 33.5083 273.568 32.3 273.568 30.85C273.568 29.7833 273.735 28.8583 274.068 28.075C274.418 27.2917 274.876 26.65 275.443 26.15C276.026 25.6333 276.676 25.25 277.393 25C278.126 24.75 278.885 24.625 279.668 24.625C280.818 24.625 281.818 24.8583 282.668 25.325C283.535 25.775 284.21 26.3917 284.693 27.175C285.176 27.9583 285.418 28.8667 285.418 29.9C285.418 30.4167 285.276 30.8083 284.993 31.075C284.71 31.3417 284.318 31.5083 283.818 31.575L275.868 32.75ZM288.343 26.975C288.176 27.225 287.984 27.4167 287.768 27.55C287.551 27.6833 287.268 27.75 286.918 27.75C286.634 27.75 286.376 27.725 286.143 27.675C285.909 27.6083 285.684 27.5167 285.468 27.4C285.534 26.8 285.601 26.1583 285.668 25.475C285.734 24.7917 285.793 24.1167 285.843 23.45C285.893 22.7833 285.934 22.175 285.968 21.625C286.168 21.5083 286.426 21.4083 286.743 21.325C287.076 21.225 287.393 21.175 287.693 21.175C288.176 21.175 288.601 21.2833 288.968 21.5C289.351 21.7 289.543 22.075 289.543 22.625C289.543 23.025 289.484 23.5083 289.368 24.075C289.268 24.6417 289.126 25.1833 288.943 25.7C288.759 26.2167 288.559 26.6417 288.343 26.975ZM290.048 21.55C290.048 20.9833 290.24 20.5083 290.623 20.125C291.023 19.7417 291.523 19.55 292.123 19.55C292.74 19.55 293.24 19.7417 293.623 20.125C294.006 20.5083 294.198 20.9833 294.198 21.55C294.198 22.1 294.006 22.575 293.623 22.975C293.24 23.375 292.74 23.575 292.123 23.575C291.523 23.575 291.023 23.375 290.623 22.975C290.24 22.575 290.048 22.1 290.048 21.55ZM290.273 30.4H293.973V36.975C293.823 37.025 293.598 37.0667 293.298 37.1C292.998 37.15 292.673 37.175 292.323 37.175C291.606 37.175 291.081 37.05 290.748 36.8C290.431 36.55 290.273 36.1 290.273 35.45V30.4ZM293.973 32.325H290.273V25.15C290.423 25.1 290.648 25.05 290.948 25C291.265 24.95 291.598 24.925 291.948 24.925C292.665 24.925 293.181 25.05 293.498 25.3C293.815 25.5333 293.973 25.9917 293.973 26.675V32.325ZM305.46 33.5C305.46 34.7167 305.001 35.675 304.085 36.375C303.168 37.0583 301.835 37.4 300.085 37.4C298.718 37.4 297.593 37.2 296.71 36.8C295.826 36.4 295.385 35.8083 295.385 35.025C295.385 34.675 295.46 34.375 295.61 34.125C295.76 33.8583 295.951 33.65 296.185 33.5C296.651 33.7667 297.193 34.0167 297.81 34.25C298.443 34.4667 299.16 34.575 299.96 34.575C301.176 34.575 301.785 34.225 301.785 33.525C301.785 33.225 301.676 32.9917 301.46 32.825C301.243 32.6417 300.885 32.5083 300.385 32.425L299.335 32.175C298.001 31.8917 297.001 31.4583 296.335 30.875C295.685 30.275 295.36 29.4583 295.36 28.425C295.36 27.2583 295.826 26.3333 296.76 25.65C297.71 24.95 298.985 24.6 300.585 24.6C301.385 24.6 302.11 24.6833 302.76 24.85C303.426 25 303.951 25.2417 304.335 25.575C304.718 25.8917 304.91 26.2917 304.91 26.775C304.91 27.1083 304.843 27.4 304.71 27.65C304.576 27.9 304.401 28.1083 304.185 28.275C304.001 28.1583 303.718 28.0333 303.335 27.9C302.968 27.7667 302.56 27.6583 302.11 27.575C301.676 27.4917 301.268 27.45 300.885 27.45C300.285 27.45 299.818 27.5333 299.485 27.7C299.151 27.85 298.985 28.0917 298.985 28.425C298.985 28.6417 299.076 28.8333 299.26 29C299.46 29.15 299.801 29.275 300.285 29.375L301.285 29.625C302.768 29.9583 303.835 30.4417 304.485 31.075C305.135 31.6917 305.46 32.5 305.46 33.5Z" fill="#F8F6EE"/>
<path d="M338.386 30.4294C338.403 29.118 338.754 27.8322 339.405 26.6916C340.056 25.5509 340.987 24.5925 342.111 23.9056C341.397 22.892 340.455 22.0577 339.36 21.4692C338.265 20.8807 337.047 20.5541 335.803 20.5155C333.149 20.2385 330.576 22.0942 329.224 22.0942C327.845 22.0942 325.763 20.543 323.521 20.5888C322.07 20.6354 320.657 21.0547 319.418 21.8058C318.179 22.557 317.157 23.6144 316.451 24.8749C313.395 30.136 315.675 37.868 318.603 42.1207C320.068 44.2031 321.78 46.5293 324.02 46.4468C326.212 46.3564 327.031 45.0571 329.677 45.0571C332.299 45.0571 333.067 46.4468 335.352 46.3943C337.705 46.3564 339.187 44.3026 340.6 42.2006C341.653 40.7168 342.463 39.0767 343 37.3415C341.633 36.7668 340.467 35.805 339.647 34.5758C338.826 33.3466 338.388 31.9046 338.386 30.4294Z" fill="#F8F6EE"/>
<path d="M335.069 17.7189C336.352 16.1882 336.984 14.2208 336.831 12.2344C334.871 12.439 333.061 13.37 331.761 14.842C331.126 15.5611 330.639 16.3976 330.329 17.3039C330.018 18.2101 329.891 19.1683 329.954 20.1235C330.934 20.1334 331.903 19.9223 332.789 19.5057C333.675 19.0893 334.455 18.4783 335.069 17.7189Z" fill="#F8F6EE"/>
</svg>
