<svg width="395" height="60" viewBox="0 0 395 60" fill="none" xmlns="http://www.w3.org/2000/svg">
<path d="M0 10C0 4.47715 4.47715 0 10 0H385C390.523 0 395 4.47715 395 10V50C395 55.5228 390.523 60 385 60H10C4.47716 60 0 55.5228 0 50V10Z" fill="#14162B"/>
<path d="M78.4542 26.4748H82.2542V36.8498L80.4792 37.0498C79.8626 37.0498 79.3709 36.8665 79.0042 36.4998C78.6376 36.1331 78.4542 35.6415 78.4542 35.0248V26.4748ZM80.4792 37.0498V33.9498H88.3292C88.4459 34.1165 88.5459 34.3331 88.6292 34.5998C88.7126 34.8498 88.7542 35.1331 88.7542 35.4498C88.7542 35.9831 88.6376 36.3831 88.4042 36.6498C88.1709 36.9165 87.8459 37.0498 87.4292 37.0498H80.4792ZM82.2542 31.2248H78.4542V21.7998C78.6209 21.7665 78.8709 21.7248 79.2042 21.6748C79.5542 21.6248 79.8876 21.5998 80.2042 21.5998C80.9376 21.5998 81.4626 21.7248 81.7792 21.9748C82.0959 22.2248 82.2542 22.6998 82.2542 23.3998V31.2248Z" fill="#F8F6EE"/>
<path d="M94.5484 34.6248C94.9317 34.6248 95.3067 34.5915 95.6734 34.5248C96.0567 34.4415 96.3317 34.3498 96.4984 34.2498V31.8498L94.3984 32.0498C93.8317 32.0831 93.3817 32.1998 93.0484 32.3998C92.715 32.5998 92.5484 32.8998 92.5484 33.2998C92.5484 33.6998 92.7067 34.0248 93.0234 34.2748C93.34 34.5081 93.8484 34.6248 94.5484 34.6248ZM94.3984 24.6248C96.1317 24.6248 97.515 24.9915 98.5484 25.7248C99.5817 26.4415 100.098 27.5581 100.098 29.0748V34.7498C100.098 35.1665 99.99 35.5081 99.7734 35.7748C99.5567 36.0248 99.2817 36.2415 98.9484 36.4248C98.4484 36.7248 97.8234 36.9581 97.0734 37.1248C96.34 37.3081 95.4984 37.3998 94.5484 37.3998C92.8484 37.3998 91.49 37.0665 90.4734 36.3998C89.4734 35.7331 88.9734 34.7415 88.9734 33.4248C88.9734 32.2915 89.3234 31.4248 90.0234 30.8248C90.7234 30.2081 91.765 29.8331 93.1484 29.6998L96.4734 29.3498V29.0498C96.4734 28.4831 96.2484 28.0748 95.7984 27.8248C95.365 27.5748 94.74 27.4498 93.9234 27.4498C93.29 27.4498 92.665 27.5248 92.0484 27.6748C91.4484 27.8248 90.9067 27.9998 90.4234 28.1998C90.2234 28.0665 90.0484 27.8665 89.8984 27.5998C89.765 27.3165 89.6984 27.0248 89.6984 26.7248C89.6984 26.0248 90.0817 25.5165 90.8484 25.1998C91.3317 24.9998 91.89 24.8581 92.5234 24.7748C93.1734 24.6748 93.7984 24.6248 94.3984 24.6248Z" fill="#F8F6EE"/>
<path d="M106.628 34.6248C107.012 34.6248 107.387 34.5915 107.753 34.5248C108.137 34.4415 108.412 34.3498 108.578 34.2498V31.8498L106.478 32.0498C105.912 32.0831 105.462 32.1998 105.128 32.3998C104.795 32.5998 104.628 32.8998 104.628 33.2998C104.628 33.6998 104.787 34.0248 105.103 34.2748C105.42 34.5081 105.928 34.6248 106.628 34.6248ZM106.478 24.6248C108.212 24.6248 109.595 24.9915 110.628 25.7248C111.662 26.4415 112.178 27.5581 112.178 29.0748V34.7498C112.178 35.1665 112.07 35.5081 111.853 35.7748C111.637 36.0248 111.362 36.2415 111.028 36.4248C110.528 36.7248 109.903 36.9581 109.153 37.1248C108.42 37.3081 107.578 37.3998 106.628 37.3998C104.928 37.3998 103.57 37.0665 102.553 36.3998C101.553 35.7331 101.053 34.7415 101.053 33.4248C101.053 32.2915 101.403 31.4248 102.103 30.8248C102.803 30.2081 103.845 29.8331 105.228 29.6998L108.553 29.3498V29.0498C108.553 28.4831 108.328 28.0748 107.878 27.8248C107.445 27.5748 106.82 27.4498 106.003 27.4498C105.37 27.4498 104.745 27.5248 104.128 27.6748C103.528 27.8248 102.987 27.9998 102.503 28.1998C102.303 28.0665 102.128 27.8665 101.978 27.5998C101.845 27.3165 101.778 27.0248 101.778 26.7248C101.778 26.0248 102.162 25.5165 102.928 25.1998C103.412 24.9998 103.97 24.8581 104.603 24.7748C105.253 24.6748 105.878 24.6248 106.478 24.6248Z" fill="#F8F6EE"/>
<path d="M121.559 34.0248V26.4998H125.259V34.4998C125.259 34.8998 125.175 35.2415 125.009 35.5248C124.842 35.7915 124.575 36.0331 124.209 36.2498C123.759 36.5498 123.167 36.8081 122.434 37.0248C121.717 37.2581 120.884 37.3748 119.934 37.3748C118.55 37.3748 117.35 37.1415 116.334 36.6748C115.334 36.2081 114.559 35.5081 114.009 34.5748C113.475 33.6248 113.209 32.4498 113.209 31.0498C113.209 29.5831 113.484 28.3831 114.034 27.4498C114.6 26.4998 115.359 25.7915 116.309 25.3248C117.259 24.8581 118.309 24.6248 119.459 24.6248C120.059 24.6248 120.592 24.6915 121.059 24.8248C121.525 24.9581 121.909 25.1165 122.209 25.2998V28.3498C121.975 28.1498 121.667 27.9665 121.284 27.7998C120.9 27.6331 120.459 27.5498 119.959 27.5498C119.375 27.5498 118.859 27.6748 118.409 27.9248C117.959 28.1748 117.609 28.5581 117.359 29.0748C117.109 29.5915 116.984 30.2498 116.984 31.0498C116.984 32.2165 117.242 33.0748 117.759 33.6248C118.292 34.1748 119.009 34.4498 119.909 34.4498C120.275 34.4498 120.6 34.4081 120.884 34.3248C121.167 34.2248 121.392 34.1248 121.559 34.0248ZM125.259 27.2248L121.559 27.2498V20.7248C121.709 20.6748 121.934 20.6248 122.234 20.5748C122.534 20.5248 122.859 20.4998 123.209 20.4998C123.942 20.4998 124.467 20.6248 124.784 20.8748C125.1 21.1248 125.259 21.5831 125.259 22.2498V27.2248Z" fill="#F8F6EE"/>
<path d="M126.837 21.5498C126.837 20.9831 127.029 20.5081 127.412 20.1248C127.812 19.7415 128.312 19.5498 128.912 19.5498C129.529 19.5498 130.029 19.7415 130.412 20.1248C130.796 20.5081 130.987 20.9831 130.987 21.5498C130.987 22.0998 130.796 22.5748 130.412 22.9748C130.029 23.3748 129.529 23.5748 128.912 23.5748C128.312 23.5748 127.812 23.3748 127.412 22.9748C127.029 22.5748 126.837 22.0998 126.837 21.5498ZM127.062 30.3998H130.762V36.9748C130.612 37.0248 130.387 37.0665 130.087 37.0998C129.787 37.1498 129.462 37.1748 129.112 37.1748C128.396 37.1748 127.871 37.0498 127.537 36.7998C127.221 36.5498 127.062 36.0998 127.062 35.4498V30.3998ZM130.762 32.3248H127.062V25.1498C127.212 25.0998 127.437 25.0498 127.737 24.9998C128.054 24.9498 128.387 24.9248 128.737 24.9248C129.454 24.9248 129.971 25.0498 130.287 25.2998C130.604 25.5331 130.762 25.9915 130.762 26.6748V32.3248Z" fill="#F8F6EE"/>
<path d="M141.204 34.6248C141.587 34.6248 141.962 34.5915 142.329 34.5248C142.712 34.4415 142.987 34.3498 143.154 34.2498V31.8498L141.054 32.0498C140.487 32.0831 140.037 32.1998 139.704 32.3998C139.37 32.5998 139.204 32.8998 139.204 33.2998C139.204 33.6998 139.362 34.0248 139.679 34.2748C139.995 34.5081 140.504 34.6248 141.204 34.6248ZM141.054 24.6248C142.787 24.6248 144.17 24.9915 145.204 25.7248C146.237 26.4415 146.754 27.5581 146.754 29.0748V34.7498C146.754 35.1665 146.645 35.5081 146.429 35.7748C146.212 36.0248 145.937 36.2415 145.604 36.4248C145.104 36.7248 144.479 36.9581 143.729 37.1248C142.995 37.3081 142.154 37.3998 141.204 37.3998C139.504 37.3998 138.145 37.0665 137.129 36.3998C136.129 35.7331 135.629 34.7415 135.629 33.4248C135.629 32.2915 135.979 31.4248 136.679 30.8248C137.379 30.2081 138.42 29.8331 139.804 29.6998L143.129 29.3498V29.0498C143.129 28.4831 142.904 28.0748 142.454 27.8248C142.02 27.5748 141.395 27.4498 140.579 27.4498C139.945 27.4498 139.32 27.5248 138.704 27.6748C138.104 27.8248 137.562 27.9998 137.079 28.1998C136.879 28.0665 136.704 27.8665 136.554 27.5998C136.42 27.3165 136.354 27.0248 136.354 26.7248C136.354 26.0248 136.737 25.5165 137.504 25.1998C137.987 24.9998 138.545 24.8581 139.179 24.7748C139.829 24.6748 140.454 24.6248 141.054 24.6248Z" fill="#F8F6EE"/>
<path d="M148.484 30.3998L152.209 30.4748V36.9748C152.042 37.0248 151.809 37.0665 151.509 37.0998C151.209 37.1498 150.884 37.1748 150.534 37.1748C149.834 37.1748 149.317 37.0498 148.984 36.7998C148.65 36.5498 148.484 36.0998 148.484 35.4498V30.3998ZM152.209 32.3998L148.484 32.3248V20.7248C148.65 20.6748 148.884 20.6248 149.184 20.5748C149.484 20.5248 149.809 20.4998 150.159 20.4998C150.875 20.4998 151.392 20.6248 151.709 20.8748C152.042 21.1248 152.209 21.5831 152.209 22.2498V32.3998Z" fill="#F8F6EE"/>
<path d="M154.143 30.3998L157.868 30.4748V36.9748C157.701 37.0248 157.468 37.0665 157.168 37.0998C156.868 37.1498 156.543 37.1748 156.193 37.1748C155.493 37.1748 154.976 37.0498 154.643 36.7998C154.31 36.5498 154.143 36.0998 154.143 35.4498V30.3998ZM157.868 32.3998L154.143 32.3248V20.7248C154.31 20.6748 154.543 20.6248 154.843 20.5748C155.143 20.5248 155.468 20.4998 155.818 20.4998C156.535 20.4998 157.051 20.6248 157.368 20.8748C157.701 21.1248 157.868 21.5831 157.868 22.2498V32.3998Z" fill="#F8F6EE"/>
<path d="M164.578 34.6248C164.961 34.6248 165.336 34.5915 165.703 34.5248C166.086 34.4415 166.361 34.3498 166.528 34.2498V31.8498L164.428 32.0498C163.861 32.0831 163.411 32.1998 163.078 32.3998C162.744 32.5998 162.578 32.8998 162.578 33.2998C162.578 33.6998 162.736 34.0248 163.053 34.2748C163.369 34.5081 163.878 34.6248 164.578 34.6248ZM164.428 24.6248C166.161 24.6248 167.544 24.9915 168.578 25.7248C169.611 26.4415 170.128 27.5581 170.128 29.0748V34.7498C170.128 35.1665 170.019 35.5081 169.803 35.7748C169.586 36.0248 169.311 36.2415 168.978 36.4248C168.478 36.7248 167.853 36.9581 167.103 37.1248C166.369 37.3081 165.528 37.3998 164.578 37.3998C162.878 37.3998 161.519 37.0665 160.503 36.3998C159.503 35.7331 159.003 34.7415 159.003 33.4248C159.003 32.2915 159.353 31.4248 160.053 30.8248C160.753 30.2081 161.794 29.8331 163.178 29.6998L166.503 29.3498V29.0498C166.503 28.4831 166.278 28.0748 165.828 27.8248C165.394 27.5748 164.769 27.4498 163.953 27.4498C163.319 27.4498 162.694 27.5248 162.078 27.6748C161.478 27.8248 160.936 27.9998 160.453 28.1998C160.253 28.0665 160.078 27.8665 159.928 27.5998C159.794 27.3165 159.728 27.0248 159.728 26.7248C159.728 26.0248 160.111 25.5165 160.878 25.1998C161.361 24.9998 161.919 24.8581 162.553 24.7748C163.203 24.6748 163.828 24.6248 164.428 24.6248Z" fill="#F8F6EE"/>
<path d="M181.913 24.9998H181.763C181.596 25.5331 181.396 26.1248 181.163 26.7748C180.946 27.4248 180.721 28.1081 180.488 28.8248C180.254 29.5248 180.029 30.2248 179.813 30.9248L179.363 33.1748C179.263 33.4915 179.163 33.8248 179.063 34.1748C178.979 34.5248 178.888 34.8665 178.788 35.1998C178.688 35.5331 178.596 35.8498 178.513 36.1498C178.429 36.4498 178.346 36.7331 178.263 36.9998C178.079 37.0498 177.871 37.0998 177.638 37.1498C177.404 37.2165 177.129 37.2498 176.813 37.2498C176.113 37.2498 175.579 37.1248 175.213 36.8748C174.846 36.6248 174.663 36.2581 174.663 35.7748C174.663 35.5748 174.688 35.3665 174.738 35.1498C174.804 34.9331 174.879 34.6831 174.963 34.3998C175.113 33.8498 175.321 33.1581 175.588 32.3248C175.871 31.4915 176.171 30.5915 176.488 29.6248C176.821 28.6415 177.154 27.6748 177.488 26.7248C177.838 25.7748 178.154 24.8998 178.438 24.0998C178.738 23.2998 178.979 22.6748 179.163 22.2248C179.396 22.0748 179.763 21.9415 180.263 21.8248C180.779 21.6915 181.288 21.6248 181.788 21.6248C182.504 21.6248 183.146 21.7331 183.713 21.9498C184.279 22.1498 184.638 22.4748 184.788 22.9248C185.104 23.8081 185.446 24.8331 185.813 25.9998C186.196 27.1498 186.579 28.3581 186.963 29.6248C187.346 30.8915 187.713 32.1248 188.063 33.3248C188.429 34.5081 188.746 35.5748 189.013 36.5248C188.829 36.7248 188.563 36.8915 188.213 37.0248C187.863 37.1748 187.446 37.2498 186.963 37.2498C186.279 37.2498 185.796 37.1248 185.513 36.8748C185.229 36.6248 185.013 36.2498 184.863 35.7498L184.063 32.9498L183.638 30.8248C183.438 30.0748 183.229 29.3498 183.013 28.6498C182.796 27.9498 182.596 27.2915 182.413 26.6748C182.229 26.0415 182.063 25.4831 181.913 24.9998ZM177.688 33.6248L179.163 30.6748H185.013L185.513 33.6248H177.688Z" fill="#F8F6EE"/>
<path d="M195.666 37.3748C195.033 37.3748 194.466 37.2915 193.966 37.1248C193.466 36.9748 193.033 36.7998 192.666 36.5998V33.4748C192.949 33.7081 193.291 33.9248 193.691 34.1248C194.108 34.3248 194.574 34.4248 195.091 34.4248C196.008 34.4248 196.716 34.1331 197.216 33.5498C197.733 32.9665 197.991 32.0915 197.991 30.9248C197.991 30.1248 197.874 29.4831 197.641 28.9998C197.424 28.4998 197.108 28.1331 196.691 27.8998C196.274 27.6665 195.783 27.5498 195.216 27.5498C194.833 27.5498 194.483 27.5998 194.166 27.6998C193.866 27.7831 193.608 27.8915 193.391 28.0248V35.6748H189.716V27.4998C189.716 27.0831 189.799 26.7415 189.966 26.4748C190.133 26.1915 190.391 25.9415 190.741 25.7248C191.241 25.4081 191.874 25.1498 192.641 24.9498C193.408 24.7331 194.266 24.6248 195.216 24.6248C196.499 24.6248 197.633 24.8498 198.616 25.2998C199.616 25.7331 200.391 26.4165 200.941 27.3498C201.491 28.2665 201.766 29.4581 201.766 30.9248C201.766 32.3415 201.499 33.5248 200.966 34.4748C200.433 35.4248 199.708 36.1498 198.791 36.6498C197.874 37.1331 196.833 37.3748 195.666 37.3748ZM193.416 34.7248V41.4498C193.249 41.4998 193.016 41.5498 192.716 41.5998C192.416 41.6498 192.091 41.6748 191.741 41.6748C191.041 41.6748 190.524 41.5498 190.191 41.2998C189.874 41.0498 189.716 40.5915 189.716 39.9248V34.7248H193.416Z" fill="#F8F6EE"/>
<path d="M208.82 37.3748C208.187 37.3748 207.62 37.2915 207.12 37.1248C206.62 36.9748 206.187 36.7998 205.82 36.5998V33.4748C206.104 33.7081 206.445 33.9248 206.845 34.1248C207.262 34.3248 207.729 34.4248 208.245 34.4248C209.162 34.4248 209.87 34.1331 210.37 33.5498C210.887 32.9665 211.145 32.0915 211.145 30.9248C211.145 30.1248 211.029 29.4831 210.795 28.9998C210.579 28.4998 210.262 28.1331 209.845 27.8998C209.429 27.6665 208.937 27.5498 208.37 27.5498C207.987 27.5498 207.637 27.5998 207.32 27.6998C207.02 27.7831 206.762 27.8915 206.545 28.0248V35.6748H202.87V27.4998C202.87 27.0831 202.954 26.7415 203.12 26.4748C203.287 26.1915 203.545 25.9415 203.895 25.7248C204.395 25.4081 205.029 25.1498 205.795 24.9498C206.562 24.7331 207.42 24.6248 208.37 24.6248C209.654 24.6248 210.787 24.8498 211.77 25.2998C212.77 25.7331 213.545 26.4165 214.095 27.3498C214.645 28.2665 214.92 29.4581 214.92 30.9248C214.92 32.3415 214.654 33.5248 214.12 34.4748C213.587 35.4248 212.862 36.1498 211.945 36.6498C211.029 37.1331 209.987 37.3748 208.82 37.3748ZM206.57 34.7248V41.4498C206.404 41.4998 206.17 41.5498 205.87 41.5998C205.57 41.6498 205.245 41.6748 204.895 41.6748C204.195 41.6748 203.679 41.5498 203.345 41.2998C203.029 41.0498 202.87 40.5915 202.87 39.9248V34.7248H206.57Z" fill="#F8F6EE"/>
<path d="M224.63 34.3248C225.53 34.3248 226.171 34.1665 226.555 33.8498C226.955 33.5165 227.155 33.1248 227.155 32.6748C227.155 32.2581 226.996 31.9248 226.68 31.6748C226.38 31.4081 225.93 31.1831 225.33 30.9998L224.005 30.5748C223.105 30.2748 222.305 29.9415 221.605 29.5748C220.921 29.2081 220.388 28.7331 220.005 28.1498C219.638 27.5665 219.455 26.8248 219.455 25.9248C219.455 24.5415 219.98 23.4415 221.03 22.6248C222.08 21.8081 223.538 21.3998 225.405 21.3998C226.355 21.3998 227.196 21.4915 227.93 21.6748C228.68 21.8581 229.263 22.1331 229.68 22.4998C230.113 22.8498 230.33 23.2831 230.33 23.7998C230.33 24.1831 230.238 24.5165 230.055 24.7998C229.888 25.0665 229.671 25.2998 229.405 25.4998C229.021 25.2331 228.513 25.0081 227.88 24.8248C227.246 24.6248 226.546 24.5248 225.78 24.5248C224.98 24.5248 224.38 24.6581 223.98 24.9248C223.58 25.1748 223.38 25.5081 223.38 25.9248C223.38 26.2581 223.513 26.5331 223.78 26.7498C224.046 26.9498 224.446 27.1331 224.98 27.2998L226.355 27.7248C227.871 28.1915 229.038 28.8165 229.855 29.5998C230.671 30.3665 231.08 31.3998 231.08 32.6998C231.08 34.0998 230.538 35.2415 229.455 36.1248C228.371 36.9915 226.805 37.4248 224.755 37.4248C223.738 37.4248 222.83 37.3165 222.03 37.0998C221.23 36.8831 220.588 36.5665 220.105 36.1498C219.638 35.7331 219.405 35.2498 219.405 34.6998C219.405 34.2665 219.53 33.8998 219.78 33.5998C220.046 33.2831 220.338 33.0498 220.655 32.8998C221.105 33.2665 221.663 33.5998 222.33 33.8998C223.013 34.1831 223.78 34.3248 224.63 34.3248Z" fill="#F8F6EE"/>
<path d="M232.153 30.3998H235.828V33.0748C235.828 33.5415 235.978 33.8831 236.278 34.0998C236.578 34.3165 237.003 34.4248 237.553 34.4248C237.803 34.4248 238.07 34.3998 238.353 34.3498C238.653 34.2831 238.903 34.2081 239.103 34.1248C239.237 34.2748 239.353 34.4581 239.453 34.6748C239.57 34.8915 239.628 35.1415 239.628 35.4248C239.628 35.9915 239.395 36.4581 238.928 36.8248C238.462 37.1915 237.678 37.3748 236.578 37.3748C235.178 37.3748 234.087 37.0581 233.303 36.4248C232.537 35.7915 232.153 34.7581 232.153 33.3248V30.3998ZM234.503 28.1248V25.2748H239.303C239.387 25.4081 239.47 25.5998 239.553 25.8498C239.637 26.0998 239.678 26.3748 239.678 26.6748C239.678 27.1748 239.562 27.5415 239.328 27.7748C239.112 28.0081 238.812 28.1248 238.428 28.1248H234.503ZM235.828 31.0248H232.153V22.0498C232.32 21.9998 232.553 21.9498 232.853 21.8998C233.153 21.8331 233.47 21.7998 233.803 21.7998C234.52 21.7998 235.037 21.9248 235.353 22.1748C235.67 22.4248 235.828 22.8831 235.828 23.5498V31.0248Z" fill="#F8F6EE"/>
<path d="M252.622 30.9998C252.622 32.2998 252.356 33.4331 251.822 34.3998C251.306 35.3498 250.572 36.0831 249.622 36.5998C248.672 37.1165 247.556 37.3748 246.272 37.3748C245.006 37.3748 243.889 37.1248 242.922 36.6248C241.972 36.1081 241.231 35.3748 240.697 34.4248C240.181 33.4581 239.922 32.3165 239.922 30.9998C239.922 29.6831 240.189 28.5581 240.722 27.6248C241.256 26.6748 241.997 25.9415 242.947 25.4248C243.914 24.8915 245.022 24.6248 246.272 24.6248C247.539 24.6248 248.647 24.8915 249.597 25.4248C250.547 25.9415 251.289 26.6831 251.822 27.6498C252.356 28.5998 252.622 29.7165 252.622 30.9998ZM246.272 27.5498C245.489 27.5498 244.864 27.8498 244.397 28.4498C243.947 29.0498 243.722 29.8998 243.722 30.9998C243.722 32.1165 243.947 32.9748 244.397 33.5748C244.847 34.1581 245.472 34.4498 246.272 34.4498C247.072 34.4498 247.697 34.1498 248.147 33.5498C248.597 32.9498 248.822 32.0998 248.822 30.9998C248.822 29.9165 248.597 29.0748 248.147 28.4748C247.697 27.8581 247.072 27.5498 246.272 27.5498Z" fill="#F8F6EE"/>
<path d="M257.401 28.2248V31.3498H253.701V27.7748C253.701 27.3081 253.809 26.9165 254.026 26.5998C254.259 26.2665 254.576 25.9748 254.976 25.7248C255.526 25.3915 256.184 25.1331 256.951 24.9498C257.734 24.7498 258.551 24.6498 259.401 24.6498C261.101 24.6498 261.951 25.2165 261.951 26.3498C261.951 26.6165 261.909 26.8665 261.826 27.0998C261.759 27.3331 261.676 27.5331 261.576 27.6998C261.409 27.6665 261.201 27.6415 260.951 27.6248C260.717 27.5915 260.459 27.5748 260.176 27.5748C259.676 27.5748 259.176 27.6331 258.676 27.7498C258.176 27.8665 257.751 28.0248 257.401 28.2248ZM253.701 30.3998L257.401 30.4748V36.9748C257.234 37.0248 257.001 37.0665 256.701 37.0998C256.401 37.1498 256.076 37.1748 255.726 37.1748C255.026 37.1748 254.509 37.0498 254.176 36.7998C253.859 36.5498 253.701 36.0998 253.701 35.4498V30.3998Z" fill="#F8F6EE"/>
<path d="M263.868 32.7498L263.718 30.2498L269.918 29.2748C269.885 28.8081 269.685 28.3748 269.318 27.9748C268.951 27.5748 268.41 27.3748 267.693 27.3748C266.943 27.3748 266.318 27.6331 265.818 28.1498C265.318 28.6498 265.051 29.3665 265.018 30.2998L265.143 32.0248C265.293 32.9415 265.685 33.5998 266.318 33.9998C266.951 34.3831 267.701 34.5748 268.568 34.5748C269.268 34.5748 269.926 34.4748 270.543 34.2748C271.16 34.0748 271.66 33.8665 272.043 33.6498C272.293 33.7998 272.493 34.0081 272.643 34.2748C272.81 34.5415 272.893 34.8248 272.893 35.1248C272.893 35.6248 272.693 36.0415 272.293 36.3748C271.91 36.7081 271.368 36.9581 270.668 37.1248C269.985 37.2915 269.201 37.3748 268.318 37.3748C267.035 37.3748 265.876 37.1331 264.843 36.6498C263.826 36.1665 263.026 35.4415 262.443 34.4748C261.86 33.5081 261.568 32.2998 261.568 30.8498C261.568 29.7831 261.735 28.8581 262.068 28.0748C262.418 27.2915 262.876 26.6498 263.443 26.1498C264.026 25.6331 264.676 25.2498 265.393 24.9998C266.126 24.7498 266.885 24.6248 267.668 24.6248C268.818 24.6248 269.818 24.8581 270.668 25.3248C271.535 25.7748 272.21 26.3915 272.693 27.1748C273.176 27.9581 273.418 28.8665 273.418 29.8998C273.418 30.4165 273.276 30.8081 272.993 31.0748C272.71 31.3415 272.318 31.5081 271.818 31.5748L263.868 32.7498Z" fill="#F8F6EE"/>
<path d="M276.343 26.9748C276.176 27.2248 275.984 27.4165 275.768 27.5498C275.551 27.6831 275.268 27.7498 274.918 27.7498C274.634 27.7498 274.376 27.7248 274.143 27.6748C273.909 27.6081 273.684 27.5165 273.468 27.3998C273.534 26.7998 273.601 26.1581 273.668 25.4748C273.734 24.7915 273.793 24.1165 273.843 23.4498C273.893 22.7831 273.934 22.1748 273.968 21.6248C274.168 21.5081 274.426 21.4081 274.743 21.3248C275.076 21.2248 275.393 21.1748 275.693 21.1748C276.176 21.1748 276.601 21.2831 276.968 21.4998C277.351 21.6998 277.543 22.0748 277.543 22.6248C277.543 23.0248 277.484 23.5081 277.368 24.0748C277.268 24.6415 277.126 25.1831 276.943 25.6998C276.759 26.2165 276.559 26.6415 276.343 26.9748Z" fill="#F8F6EE"/>
<path d="M278.048 21.5498C278.048 20.9831 278.24 20.5081 278.623 20.1248C279.023 19.7415 279.523 19.5498 280.123 19.5498C280.74 19.5498 281.24 19.7415 281.623 20.1248C282.007 20.5081 282.198 20.9831 282.198 21.5498C282.198 22.0998 282.007 22.5748 281.623 22.9748C281.24 23.3748 280.74 23.5748 280.123 23.5748C279.523 23.5748 279.023 23.3748 278.623 22.9748C278.24 22.5748 278.048 22.0998 278.048 21.5498ZM278.273 30.3998H281.973V36.9748C281.823 37.0248 281.598 37.0665 281.298 37.0998C280.998 37.1498 280.673 37.1748 280.323 37.1748C279.606 37.1748 279.082 37.0498 278.748 36.7998C278.432 36.5498 278.273 36.0998 278.273 35.4498V30.3998ZM281.973 32.3248H278.273V25.1498C278.423 25.0998 278.648 25.0498 278.948 24.9998C279.265 24.9498 279.598 24.9248 279.948 24.9248C280.665 24.9248 281.182 25.0498 281.498 25.2998C281.815 25.5331 281.973 25.9915 281.973 26.6748V32.3248Z" fill="#F8F6EE"/>
<path d="M293.46 33.4998C293.46 34.7165 293.001 35.6748 292.085 36.3748C291.168 37.0581 289.835 37.3998 288.085 37.3998C286.718 37.3998 285.593 37.1998 284.71 36.7998C283.826 36.3998 283.385 35.8081 283.385 35.0248C283.385 34.6748 283.46 34.3748 283.61 34.1248C283.76 33.8581 283.951 33.6498 284.185 33.4998C284.651 33.7665 285.193 34.0165 285.81 34.2498C286.443 34.4665 287.16 34.5748 287.96 34.5748C289.176 34.5748 289.785 34.2248 289.785 33.5248C289.785 33.2248 289.676 32.9915 289.46 32.8248C289.243 32.6415 288.885 32.5081 288.385 32.4248L287.335 32.1748C286.001 31.8915 285.001 31.4581 284.335 30.8748C283.685 30.2748 283.36 29.4581 283.36 28.4248C283.36 27.2581 283.826 26.3331 284.76 25.6498C285.71 24.9498 286.985 24.5998 288.585 24.5998C289.385 24.5998 290.11 24.6831 290.76 24.8498C291.426 24.9998 291.951 25.2415 292.335 25.5748C292.718 25.8915 292.91 26.2915 292.91 26.7748C292.91 27.1081 292.843 27.3998 292.71 27.6498C292.576 27.8998 292.401 28.1081 292.185 28.2748C292.001 28.1581 291.718 28.0331 291.335 27.8998C290.968 27.7665 290.56 27.6581 290.11 27.5748C289.676 27.4915 289.268 27.4498 288.885 27.4498C288.285 27.4498 287.818 27.5331 287.485 27.6998C287.151 27.8498 286.985 28.0915 286.985 28.4248C286.985 28.6415 287.076 28.8331 287.26 28.9998C287.46 29.1498 287.801 29.2748 288.285 29.3748L289.285 29.6248C290.768 29.9581 291.835 30.4415 292.485 31.0748C293.135 31.6915 293.46 32.4998 293.46 33.4998Z" fill="#F8F6EE"/>
<path d="M326.386 30.4294C326.403 29.118 326.754 27.8322 327.405 26.6916C328.056 25.5509 328.987 24.5925 330.111 23.9056C329.397 22.892 328.455 22.0577 327.36 21.4692C326.265 20.8807 325.047 20.5541 323.803 20.5155C321.149 20.2385 318.576 22.0942 317.224 22.0942C315.845 22.0942 313.763 20.543 311.521 20.5888C310.07 20.6354 308.657 21.0547 307.418 21.8058C306.179 22.557 305.157 23.6144 304.451 24.8749C301.395 30.136 303.675 37.868 306.603 42.1207C308.068 44.2031 309.78 46.5293 312.02 46.4468C314.212 46.3564 315.031 45.0571 317.677 45.0571C320.299 45.0571 321.067 46.4468 323.352 46.3943C325.705 46.3564 327.187 44.3026 328.6 42.2006C329.653 40.7168 330.463 39.0767 331 37.3415C329.633 36.7668 328.467 35.805 327.647 34.5758C326.826 33.3466 326.388 31.9046 326.386 30.4294Z" fill="#F8F6EE"/>
<path d="M323.069 17.7189C324.352 16.1882 324.984 14.2208 324.831 12.2344C322.871 12.439 321.061 13.37 319.761 14.842C319.126 15.5611 318.639 16.3976 318.329 17.3039C318.018 18.2101 317.891 19.1683 317.954 20.1235C318.934 20.1334 319.903 19.9223 320.789 19.5057C321.675 19.0893 322.455 18.4783 323.069 17.7189Z" fill="#F8F6EE"/>
</svg>
