<svg width="420" height="60" viewBox="0 0 420 60" fill="none" xmlns="http://www.w3.org/2000/svg">
<rect x="25" width="395" height="60" rx="10" fill="#14162B"/>
<path d="M78.3321 29.425C78.3321 28.3083 78.1405 27.3917 77.7571 26.675C77.3905 25.9583 76.8738 25.425 76.2071 25.075C75.5571 24.7083 74.7988 24.525 73.9321 24.525C73.6321 24.525 73.3405 24.5417 73.0571 24.575C72.7905 24.5917 72.5155 24.6167 72.2321 24.65V34.125C72.4821 34.175 72.7655 34.2167 73.0821 34.25C73.3988 34.2667 73.6988 34.275 73.9821 34.275C75.2988 34.275 76.3488 33.8667 77.1321 33.05C77.9321 32.2333 78.3321 31.025 78.3321 29.425ZM82.2571 29.35C82.2571 31.15 81.9071 32.6417 81.2071 33.825C80.5238 35.0083 79.5571 35.9 78.3071 36.5C77.0738 37.0833 75.6238 37.375 73.9571 37.375C73.4071 37.375 72.7321 37.3333 71.9321 37.25C71.1321 37.1833 70.4071 37.0333 69.7571 36.8C68.8905 36.4833 68.4571 35.925 68.4571 35.125V23.175C68.4571 22.8417 68.5488 22.5917 68.7321 22.425C68.9155 22.2417 69.1571 22.0917 69.4571 21.975C70.1238 21.7583 70.8405 21.6167 71.6071 21.55C72.3738 21.4833 73.0738 21.45 73.7071 21.45C75.4238 21.45 76.9155 21.7417 78.1821 22.325C79.4655 22.8917 80.4655 23.7583 81.1821 24.925C81.8988 26.0917 82.2571 27.5667 82.2571 29.35ZM95.5843 31C95.5843 32.3 95.3176 33.4333 94.7843 34.4C94.2676 35.35 93.5343 36.0833 92.5843 36.6C91.6343 37.1167 90.5176 37.375 89.2343 37.375C87.9676 37.375 86.8509 37.125 85.8843 36.625C84.9343 36.1083 84.1926 35.375 83.6593 34.425C83.1426 33.4583 82.8843 32.3167 82.8843 31C82.8843 29.6833 83.1509 28.5583 83.6843 27.625C84.2176 26.675 84.9593 25.9417 85.9093 25.425C86.8759 24.8917 87.9843 24.625 89.2343 24.625C90.5009 24.625 91.6093 24.8917 92.5593 25.425C93.5093 25.9417 94.2509 26.6833 94.7843 27.65C95.3176 28.6 95.5843 29.7167 95.5843 31ZM89.2343 27.55C88.4509 27.55 87.8259 27.85 87.3593 28.45C86.9093 29.05 86.6843 29.9 86.6843 31C86.6843 32.1167 86.9093 32.975 87.3593 33.575C87.8093 34.1583 88.4343 34.45 89.2343 34.45C90.0343 34.45 90.6593 34.15 91.1093 33.55C91.5593 32.95 91.7843 32.1 91.7843 31C91.7843 29.9167 91.5593 29.075 91.1093 28.475C90.6593 27.8583 90.0343 27.55 89.2343 27.55ZM104.866 29.75C104.683 30.5833 104.458 31.4417 104.191 32.325C103.924 33.2083 103.666 34.0333 103.416 34.8C103.183 35.5667 102.991 36.1833 102.841 36.65C102.641 36.8167 102.366 36.95 102.016 37.05C101.666 37.1667 101.249 37.225 100.766 37.225C100.199 37.225 99.6909 37.1417 99.2409 36.975C98.8076 36.8083 98.5159 36.5667 98.3659 36.25C98.2159 35.9167 98.0409 35.4417 97.8409 34.825C97.6576 34.2083 97.4659 33.5083 97.2659 32.725C97.0659 31.925 96.8659 31.0917 96.6659 30.225C96.4826 29.3583 96.3076 28.525 96.1409 27.725C95.9743 26.9083 95.8409 26.175 95.7409 25.525C95.9409 25.325 96.2076 25.15 96.5409 25C96.8909 24.8333 97.2743 24.75 97.6909 24.75C98.2076 24.75 98.6243 24.875 98.9409 25.125C99.2743 25.3583 99.4743 25.7583 99.5409 26.325C99.7076 27.4583 99.8576 28.45 99.9909 29.3C100.124 30.1333 100.241 30.85 100.341 31.45C100.458 32.05 100.549 32.5417 100.616 32.925C100.699 33.2917 100.766 33.5833 100.816 33.8H100.916C101.016 33.4167 101.166 32.8333 101.366 32.05C101.566 31.25 101.808 30.3417 102.091 29.325C102.374 28.2917 102.658 27.25 102.941 26.2C103.224 26.0333 103.516 25.9083 103.816 25.825C104.116 25.7417 104.466 25.7 104.866 25.7C105.383 25.7 105.824 25.7833 106.191 25.95C106.558 26.1167 106.791 26.3667 106.891 26.7C107.191 27.7167 107.466 28.7 107.716 29.65C107.983 30.6 108.216 31.4417 108.416 32.175C108.616 32.8917 108.758 33.4333 108.841 33.8H108.966C109.199 32.4667 109.433 31.0667 109.666 29.6C109.899 28.1333 110.108 26.6667 110.291 25.2C110.808 24.9 111.374 24.75 111.991 24.75C112.508 24.75 112.924 24.8667 113.241 25.1C113.574 25.3167 113.741 25.6917 113.741 26.225C113.741 26.475 113.699 26.8583 113.616 27.375C113.533 27.8917 113.416 28.4917 113.266 29.175C113.116 29.8417 112.949 30.55 112.766 31.3C112.583 32.05 112.391 32.775 112.191 33.475C112.008 34.175 111.833 34.8 111.666 35.35C111.499 35.9 111.349 36.3333 111.216 36.65C111.033 36.8167 110.733 36.95 110.316 37.05C109.899 37.1667 109.449 37.225 108.966 37.225C107.733 37.225 107.008 36.925 106.791 36.325C106.641 35.875 106.441 35.2917 106.191 34.575C105.958 33.8583 105.724 33.0833 105.491 32.25C105.258 31.4 105.049 30.5667 104.866 29.75ZM126.15 29.225V31.575H122.425V29.35C122.425 28.7333 122.242 28.2833 121.875 28C121.525 27.7 121.058 27.55 120.475 27.55C120.058 27.55 119.675 27.6083 119.325 27.725C118.975 27.825 118.658 27.95 118.375 28.1V31.575H114.675V27.675C114.675 27.2583 114.758 26.9167 114.925 26.65C115.108 26.3667 115.367 26.1167 115.7 25.9C116.233 25.5333 116.917 25.2333 117.75 25C118.583 24.75 119.5 24.625 120.5 24.625C122.3 24.625 123.692 25.025 124.675 25.825C125.658 26.6083 126.15 27.7417 126.15 29.225ZM114.675 30.425H118.375V36.975C118.208 37.025 117.975 37.0667 117.675 37.1C117.375 37.15 117.05 37.175 116.7 37.175C116 37.175 115.483 37.05 115.15 36.8C114.833 36.55 114.675 36.1 114.675 35.45V30.425ZM122.425 30.425H126.15V36.975C125.983 37.025 125.75 37.0667 125.45 37.1C125.15 37.15 124.825 37.175 124.475 37.175C123.775 37.175 123.258 37.05 122.925 36.8C122.592 36.55 122.425 36.1 122.425 35.45V30.425ZM127.93 30.4L131.655 30.475V36.975C131.488 37.025 131.255 37.0667 130.955 37.1C130.655 37.15 130.33 37.175 129.98 37.175C129.28 37.175 128.763 37.05 128.43 36.8C128.097 36.55 127.93 36.1 127.93 35.45V30.4ZM131.655 32.4L127.93 32.325V20.725C128.097 20.675 128.33 20.625 128.63 20.575C128.93 20.525 129.255 20.5 129.605 20.5C130.322 20.5 130.838 20.625 131.155 20.875C131.488 21.125 131.655 21.5833 131.655 22.25V32.4ZM145.565 31C145.565 32.3 145.298 33.4333 144.765 34.4C144.248 35.35 143.515 36.0833 142.565 36.6C141.615 37.1167 140.498 37.375 139.215 37.375C137.948 37.375 136.831 37.125 135.865 36.625C134.915 36.1083 134.173 35.375 133.64 34.425C133.123 33.4583 132.865 32.3167 132.865 31C132.865 29.6833 133.131 28.5583 133.665 27.625C134.198 26.675 134.94 25.9417 135.89 25.425C136.856 24.8917 137.965 24.625 139.215 24.625C140.481 24.625 141.59 24.8917 142.54 25.425C143.49 25.9417 144.231 26.6833 144.765 27.65C145.298 28.6 145.565 29.7167 145.565 31ZM139.215 27.55C138.431 27.55 137.806 27.85 137.34 28.45C136.89 29.05 136.665 29.9 136.665 31C136.665 32.1167 136.89 32.975 137.34 33.575C137.79 34.1583 138.415 34.45 139.215 34.45C140.015 34.45 140.64 34.15 141.09 33.55C141.54 32.95 141.765 32.1 141.765 31C141.765 29.9167 141.54 29.075 141.09 28.475C140.64 27.8583 140.015 27.55 139.215 27.55ZM151.617 34.625C152 34.625 152.375 34.5917 152.742 34.525C153.125 34.4417 153.4 34.35 153.567 34.25V31.85L151.467 32.05C150.9 32.0833 150.45 32.2 150.117 32.4C149.783 32.6 149.617 32.9 149.617 33.3C149.617 33.7 149.775 34.025 150.092 34.275C150.408 34.5083 150.917 34.625 151.617 34.625ZM151.467 24.625C153.2 24.625 154.583 24.9917 155.617 25.725C156.65 26.4417 157.167 27.5583 157.167 29.075V34.75C157.167 35.1667 157.058 35.5083 156.842 35.775C156.625 36.025 156.35 36.2417 156.017 36.425C155.517 36.725 154.892 36.9583 154.142 37.125C153.408 37.3083 152.567 37.4 151.617 37.4C149.917 37.4 148.558 37.0667 147.542 36.4C146.542 35.7333 146.042 34.7417 146.042 33.425C146.042 32.2917 146.392 31.425 147.092 30.825C147.792 30.2083 148.833 29.8333 150.217 29.7L153.542 29.35V29.05C153.542 28.4833 153.317 28.075 152.867 27.825C152.433 27.575 151.808 27.45 150.992 27.45C150.358 27.45 149.733 27.525 149.117 27.675C148.517 27.825 147.975 28 147.492 28.2C147.292 28.0667 147.117 27.8667 146.967 27.6C146.833 27.3167 146.767 27.025 146.767 26.725C146.767 26.025 147.15 25.5167 147.917 25.2C148.4 25 148.958 24.8583 149.592 24.775C150.242 24.675 150.867 24.625 151.467 24.625ZM166.547 34.025V26.5H170.247V34.5C170.247 34.9 170.163 35.2417 169.997 35.525C169.83 35.7917 169.563 36.0333 169.197 36.25C168.747 36.55 168.155 36.8083 167.422 37.025C166.705 37.2583 165.872 37.375 164.922 37.375C163.538 37.375 162.338 37.1417 161.322 36.675C160.322 36.2083 159.547 35.5083 158.997 34.575C158.463 33.625 158.197 32.45 158.197 31.05C158.197 29.5833 158.472 28.3833 159.022 27.45C159.588 26.5 160.347 25.7917 161.297 25.325C162.247 24.8583 163.297 24.625 164.447 24.625C165.047 24.625 165.58 24.6917 166.047 24.825C166.513 24.9583 166.897 25.1167 167.197 25.3V28.35C166.963 28.15 166.655 27.9667 166.272 27.8C165.888 27.6333 165.447 27.55 164.947 27.55C164.363 27.55 163.847 27.675 163.397 27.925C162.947 28.175 162.597 28.5583 162.347 29.075C162.097 29.5917 161.972 30.25 161.972 31.05C161.972 32.2167 162.23 33.075 162.747 33.625C163.28 34.175 163.997 34.45 164.897 34.45C165.263 34.45 165.588 34.4083 165.872 34.325C166.155 34.225 166.38 34.125 166.547 34.025ZM170.247 27.225L166.547 27.25V20.725C166.697 20.675 166.922 20.625 167.222 20.575C167.522 20.525 167.847 20.5 168.197 20.5C168.93 20.5 169.455 20.625 169.772 20.875C170.088 21.125 170.247 21.5833 170.247 22.25V27.225ZM178.705 28.725V25.875H183.58C183.664 26.0083 183.747 26.2 183.83 26.45C183.914 26.7 183.955 26.975 183.955 27.275C183.955 27.7917 183.839 28.1667 183.605 28.4C183.389 28.6167 183.08 28.725 182.68 28.725H178.705ZM179.28 24.875V28.275H175.755V24.75C175.755 23.65 175.98 22.7583 176.43 22.075C176.897 21.3917 177.53 20.8917 178.33 20.575C179.147 20.2417 180.047 20.075 181.03 20.075C182.197 20.075 183.064 20.2333 183.63 20.55C184.214 20.85 184.505 21.3417 184.505 22.025C184.505 22.325 184.439 22.5917 184.305 22.825C184.189 23.0583 184.055 23.2417 183.905 23.375C183.589 23.275 183.247 23.1917 182.88 23.125C182.514 23.0583 182.105 23.025 181.655 23.025C180.872 23.025 180.28 23.1667 179.88 23.45C179.48 23.7333 179.28 24.2083 179.28 24.875ZM175.755 27.55H179.455V36.975C179.289 37.025 179.055 37.0667 178.755 37.1C178.455 37.15 178.13 37.175 177.78 37.175C177.08 37.175 176.564 37.05 176.23 36.8C175.914 36.55 175.755 36.1 175.755 35.45V27.55ZM188.116 28.225V31.35H184.416V27.775C184.416 27.3083 184.525 26.9167 184.741 26.6C184.975 26.2667 185.291 25.975 185.691 25.725C186.241 25.3917 186.9 25.1333 187.666 24.95C188.45 24.75 189.266 24.65 190.116 24.65C191.816 24.65 192.666 25.2167 192.666 26.35C192.666 26.6167 192.625 26.8667 192.541 27.1C192.475 27.3333 192.391 27.5333 192.291 27.7C192.125 27.6667 191.916 27.6417 191.666 27.625C191.433 27.5917 191.175 27.575 190.891 27.575C190.391 27.575 189.891 27.6333 189.391 27.75C188.891 27.8667 188.466 28.025 188.116 28.225ZM184.416 30.4L188.116 30.475V36.975C187.95 37.025 187.716 37.0667 187.416 37.1C187.116 37.15 186.791 37.175 186.441 37.175C185.741 37.175 185.225 37.05 184.891 36.8C184.575 36.55 184.416 36.1 184.416 35.45V30.4ZM204.984 31C204.984 32.3 204.717 33.4333 204.184 34.4C203.667 35.35 202.934 36.0833 201.984 36.6C201.034 37.1167 199.917 37.375 198.634 37.375C197.367 37.375 196.25 37.125 195.284 36.625C194.334 36.1083 193.592 35.375 193.059 34.425C192.542 33.4583 192.284 32.3167 192.284 31C192.284 29.6833 192.55 28.5583 193.084 27.625C193.617 26.675 194.359 25.9417 195.309 25.425C196.275 24.8917 197.384 24.625 198.634 24.625C199.9 24.625 201.009 24.8917 201.959 25.425C202.909 25.9417 203.65 26.6833 204.184 27.65C204.717 28.6 204.984 29.7167 204.984 31ZM198.634 27.55C197.85 27.55 197.225 27.85 196.759 28.45C196.309 29.05 196.084 29.9 196.084 31C196.084 32.1167 196.309 32.975 196.759 33.575C197.209 34.1583 197.834 34.45 198.634 34.45C199.434 34.45 200.059 34.15 200.509 33.55C200.959 32.95 201.184 32.1 201.184 31C201.184 29.9167 200.959 29.075 200.509 28.475C200.059 27.8583 199.434 27.55 198.634 27.55ZM216.962 28.725V31.575H213.237V29.2C213.237 28.6333 213.07 28.2167 212.737 27.95C212.403 27.6833 211.987 27.55 211.487 27.55C211.12 27.55 210.787 27.6083 210.487 27.725C210.203 27.825 209.962 27.9333 209.762 28.05V31.575H206.062V27.675C206.062 27.2583 206.145 26.9167 206.312 26.65C206.495 26.3667 206.753 26.1167 207.087 25.9C207.637 25.5167 208.312 25.2083 209.112 24.975C209.912 24.7417 210.745 24.625 211.612 24.625C212.412 24.625 213.162 24.75 213.862 25C214.562 25.25 215.17 25.6333 215.687 26.15C215.82 26.25 215.945 26.3583 216.062 26.475C216.195 26.575 216.295 26.6917 216.362 26.825C216.528 27.0917 216.67 27.3917 216.787 27.725C216.903 28.0583 216.962 28.3917 216.962 28.725ZM224.137 29.1V31.575H220.437V29.2C220.437 28.6333 220.278 28.2167 219.962 27.95C219.645 27.6833 219.228 27.55 218.712 27.55C218.328 27.55 217.962 27.6333 217.612 27.8C217.278 27.95 216.987 28.1333 216.737 28.35L214.787 26.2C215.337 25.7667 215.962 25.4 216.662 25.1C217.362 24.7833 218.22 24.625 219.237 24.625C220.103 24.625 220.912 24.775 221.662 25.075C222.412 25.375 223.012 25.85 223.462 26.5C223.912 27.15 224.137 28.0167 224.137 29.1ZM206.062 30.425H209.762V36.975C209.595 37.025 209.362 37.0667 209.062 37.1C208.762 37.15 208.437 37.175 208.087 37.175C207.387 37.175 206.87 37.05 206.537 36.8C206.22 36.55 206.062 36.1 206.062 35.45V30.425ZM213.237 30.425H216.962V36.975C216.795 37.025 216.562 37.0667 216.262 37.1C215.962 37.15 215.637 37.175 215.287 37.175C214.57 37.175 214.045 37.05 213.712 36.8C213.395 36.55 213.237 36.1 213.237 35.45V30.425ZM220.437 30.425H224.137V36.975C223.987 37.025 223.762 37.0667 223.462 37.1C223.162 37.15 222.837 37.175 222.487 37.175C221.77 37.175 221.245 37.05 220.912 36.8C220.595 36.55 220.437 36.1 220.437 35.45V30.425ZM235.988 25H235.838C235.671 25.5333 235.471 26.125 235.238 26.775C235.021 27.425 234.796 28.1083 234.563 28.825C234.329 29.525 234.104 30.225 233.888 30.925L233.438 33.175C233.338 33.4917 233.238 33.825 233.138 34.175C233.054 34.525 232.963 34.8667 232.863 35.2C232.763 35.5333 232.671 35.85 232.588 36.15C232.504 36.45 232.421 36.7333 232.338 37C232.154 37.05 231.946 37.1 231.713 37.15C231.479 37.2167 231.204 37.25 230.888 37.25C230.188 37.25 229.654 37.125 229.288 36.875C228.921 36.625 228.738 36.2583 228.738 35.775C228.738 35.575 228.763 35.3667 228.813 35.15C228.879 34.9333 228.954 34.6833 229.038 34.4C229.188 33.85 229.396 33.1583 229.663 32.325C229.946 31.4917 230.246 30.5917 230.563 29.625C230.896 28.6417 231.229 27.675 231.563 26.725C231.913 25.775 232.229 24.9 232.513 24.1C232.813 23.3 233.054 22.675 233.238 22.225C233.471 22.075 233.838 21.9417 234.338 21.825C234.854 21.6917 235.363 21.625 235.863 21.625C236.579 21.625 237.221 21.7333 237.788 21.95C238.354 22.15 238.713 22.475 238.863 22.925C239.179 23.8083 239.521 24.8333 239.888 26C240.271 27.15 240.654 28.3583 241.038 29.625C241.421 30.8917 241.788 32.125 242.138 33.325C242.504 34.5083 242.821 35.575 243.088 36.525C242.904 36.725 242.638 36.8917 242.288 37.025C241.938 37.175 241.521 37.25 241.038 37.25C240.354 37.25 239.871 37.125 239.588 36.875C239.304 36.625 239.088 36.25 238.938 35.75L238.138 32.95L237.713 30.825C237.513 30.075 237.304 29.35 237.088 28.65C236.871 27.95 236.671 27.2917 236.488 26.675C236.304 26.0417 236.138 25.4833 235.988 25ZM231.763 33.625L233.238 30.675H239.088L239.588 33.625H231.763ZM249.741 37.375C249.108 37.375 248.541 37.2917 248.041 37.125C247.541 36.975 247.108 36.8 246.741 36.6V33.475C247.025 33.7083 247.366 33.925 247.766 34.125C248.183 34.325 248.65 34.425 249.166 34.425C250.083 34.425 250.791 34.1333 251.291 33.55C251.808 32.9667 252.066 32.0917 252.066 30.925C252.066 30.125 251.95 29.4833 251.716 29C251.5 28.5 251.183 28.1333 250.766 27.9C250.35 27.6667 249.858 27.55 249.291 27.55C248.908 27.55 248.558 27.6 248.241 27.7C247.941 27.7833 247.683 27.8917 247.466 28.025V35.675H243.791V27.5C243.791 27.0833 243.875 26.7417 244.041 26.475C244.208 26.1917 244.466 25.9417 244.816 25.725C245.316 25.4083 245.95 25.15 246.716 24.95C247.483 24.7333 248.341 24.625 249.291 24.625C250.575 24.625 251.708 24.85 252.691 25.3C253.691 25.7333 254.466 26.4167 255.016 27.35C255.566 28.2667 255.841 29.4583 255.841 30.925C255.841 32.3417 255.575 33.525 255.041 34.475C254.508 35.425 253.783 36.15 252.866 36.65C251.95 37.1333 250.908 37.375 249.741 37.375ZM247.491 34.725V41.45C247.325 41.5 247.091 41.55 246.791 41.6C246.491 41.65 246.166 41.675 245.816 41.675C245.116 41.675 244.6 41.55 244.266 41.3C243.95 41.05 243.791 40.5917 243.791 39.925V34.725H247.491ZM262.896 37.375C262.262 37.375 261.696 37.2917 261.196 37.125C260.696 36.975 260.262 36.8 259.896 36.6V33.475C260.179 33.7083 260.521 33.925 260.921 34.125C261.337 34.325 261.804 34.425 262.321 34.425C263.237 34.425 263.946 34.1333 264.446 33.55C264.962 32.9667 265.221 32.0917 265.221 30.925C265.221 30.125 265.104 29.4833 264.871 29C264.654 28.5 264.337 28.1333 263.921 27.9C263.504 27.6667 263.012 27.55 262.446 27.55C262.062 27.55 261.712 27.6 261.396 27.7C261.096 27.7833 260.837 27.8917 260.621 28.025V35.675H256.946V27.5C256.946 27.0833 257.029 26.7417 257.196 26.475C257.362 26.1917 257.621 25.9417 257.971 25.725C258.471 25.4083 259.104 25.15 259.871 24.95C260.637 24.7333 261.496 24.625 262.446 24.625C263.729 24.625 264.862 24.85 265.846 25.3C266.846 25.7333 267.621 26.4167 268.171 27.35C268.721 28.2667 268.996 29.4583 268.996 30.925C268.996 32.3417 268.729 33.525 268.196 34.475C267.662 35.425 266.937 36.15 266.021 36.65C265.104 37.1333 264.062 37.375 262.896 37.375ZM260.646 34.725V41.45C260.479 41.5 260.246 41.55 259.946 41.6C259.646 41.65 259.321 41.675 258.971 41.675C258.271 41.675 257.754 41.55 257.421 41.3C257.104 41.05 256.946 40.5917 256.946 39.925V34.725H260.646ZM278.705 34.325C279.605 34.325 280.246 34.1667 280.63 33.85C281.03 33.5167 281.23 33.125 281.23 32.675C281.23 32.2583 281.071 31.925 280.755 31.675C280.455 31.4083 280.005 31.1833 279.405 31L278.08 30.575C277.18 30.275 276.38 29.9417 275.68 29.575C274.996 29.2083 274.463 28.7333 274.08 28.15C273.713 27.5667 273.53 26.825 273.53 25.925C273.53 24.5417 274.055 23.4417 275.105 22.625C276.155 21.8083 277.613 21.4 279.48 21.4C280.43 21.4 281.271 21.4917 282.005 21.675C282.755 21.8583 283.338 22.1333 283.755 22.5C284.188 22.85 284.405 23.2833 284.405 23.8C284.405 24.1833 284.313 24.5167 284.13 24.8C283.963 25.0667 283.746 25.3 283.48 25.5C283.096 25.2333 282.588 25.0083 281.955 24.825C281.321 24.625 280.621 24.525 279.855 24.525C279.055 24.525 278.455 24.6583 278.055 24.925C277.655 25.175 277.455 25.5083 277.455 25.925C277.455 26.2583 277.588 26.5333 277.855 26.75C278.121 26.95 278.521 27.1333 279.055 27.3L280.43 27.725C281.946 28.1917 283.113 28.8167 283.93 29.6C284.746 30.3667 285.155 31.4 285.155 32.7C285.155 34.1 284.613 35.2417 283.53 36.125C282.446 36.9917 280.88 37.425 278.83 37.425C277.813 37.425 276.905 37.3167 276.105 37.1C275.305 36.8833 274.663 36.5667 274.18 36.15C273.713 35.7333 273.48 35.25 273.48 34.7C273.48 34.2667 273.605 33.9 273.855 33.6C274.121 33.2833 274.413 33.05 274.73 32.9C275.18 33.2667 275.738 33.6 276.405 33.9C277.088 34.1833 277.855 34.325 278.705 34.325ZM286.228 30.4H289.903V33.075C289.903 33.5417 290.053 33.8833 290.353 34.1C290.653 34.3167 291.078 34.425 291.628 34.425C291.878 34.425 292.145 34.4 292.428 34.35C292.728 34.2833 292.978 34.2083 293.178 34.125C293.312 34.275 293.428 34.4583 293.528 34.675C293.645 34.8917 293.703 35.1417 293.703 35.425C293.703 35.9917 293.47 36.4583 293.003 36.825C292.537 37.1917 291.753 37.375 290.653 37.375C289.253 37.375 288.162 37.0583 287.378 36.425C286.612 35.7917 286.228 34.7583 286.228 33.325V30.4ZM288.578 28.125V25.275H293.378C293.462 25.4083 293.545 25.6 293.628 25.85C293.712 26.1 293.753 26.375 293.753 26.675C293.753 27.175 293.637 27.5417 293.403 27.775C293.187 28.0083 292.887 28.125 292.503 28.125H288.578ZM289.903 31.025H286.228V22.05C286.395 22 286.628 21.95 286.928 21.9C287.228 21.8333 287.545 21.8 287.878 21.8C288.595 21.8 289.112 21.925 289.428 22.175C289.745 22.425 289.903 22.8833 289.903 23.55V31.025ZM306.698 31C306.698 32.3 306.431 33.4333 305.898 34.4C305.381 35.35 304.648 36.0833 303.698 36.6C302.748 37.1167 301.631 37.375 300.348 37.375C299.081 37.375 297.964 37.125 296.998 36.625C296.048 36.1083 295.306 35.375 294.773 34.425C294.256 33.4583 293.998 32.3167 293.998 31C293.998 29.6833 294.264 28.5583 294.798 27.625C295.331 26.675 296.073 25.9417 297.023 25.425C297.989 24.8917 299.098 24.625 300.348 24.625C301.614 24.625 302.723 24.8917 303.673 25.425C304.623 25.9417 305.364 26.6833 305.898 27.65C306.431 28.6 306.698 29.7167 306.698 31ZM300.348 27.55C299.564 27.55 298.939 27.85 298.473 28.45C298.023 29.05 297.798 29.9 297.798 31C297.798 32.1167 298.023 32.975 298.473 33.575C298.923 34.1583 299.548 34.45 300.348 34.45C301.148 34.45 301.773 34.15 302.223 33.55C302.673 32.95 302.898 32.1 302.898 31C302.898 29.9167 302.673 29.075 302.223 28.475C301.773 27.8583 301.148 27.55 300.348 27.55ZM311.476 28.225V31.35H307.776V27.775C307.776 27.3083 307.884 26.9167 308.101 26.6C308.334 26.2667 308.651 25.975 309.051 25.725C309.601 25.3917 310.259 25.1333 311.026 24.95C311.809 24.75 312.626 24.65 313.476 24.65C315.176 24.65 316.026 25.2167 316.026 26.35C316.026 26.6167 315.984 26.8667 315.901 27.1C315.834 27.3333 315.751 27.5333 315.651 27.7C315.484 27.6667 315.276 27.6417 315.026 27.625C314.792 27.5917 314.534 27.575 314.251 27.575C313.751 27.575 313.251 27.6333 312.751 27.75C312.251 27.8667 311.826 28.025 311.476 28.225ZM307.776 30.4L311.476 30.475V36.975C311.309 37.025 311.076 37.0667 310.776 37.1C310.476 37.15 310.151 37.175 309.801 37.175C309.101 37.175 308.584 37.05 308.251 36.8C307.934 36.55 307.776 36.1 307.776 35.45V30.4ZM317.943 32.75L317.793 30.25L323.993 29.275C323.96 28.8083 323.76 28.375 323.393 27.975C323.026 27.575 322.485 27.375 321.768 27.375C321.018 27.375 320.393 27.6333 319.893 28.15C319.393 28.65 319.126 29.3667 319.093 30.3L319.218 32.025C319.368 32.9417 319.76 33.6 320.393 34C321.026 34.3833 321.776 34.575 322.643 34.575C323.343 34.575 324.001 34.475 324.618 34.275C325.235 34.075 325.735 33.8667 326.118 33.65C326.368 33.8 326.568 34.0083 326.718 34.275C326.885 34.5417 326.968 34.825 326.968 35.125C326.968 35.625 326.768 36.0417 326.368 36.375C325.985 36.7083 325.443 36.9583 324.743 37.125C324.06 37.2917 323.276 37.375 322.393 37.375C321.11 37.375 319.951 37.1333 318.918 36.65C317.901 36.1667 317.101 35.4417 316.518 34.475C315.935 33.5083 315.643 32.3 315.643 30.85C315.643 29.7833 315.81 28.8583 316.143 28.075C316.493 27.2917 316.951 26.65 317.518 26.15C318.101 25.6333 318.751 25.25 319.468 25C320.201 24.75 320.96 24.625 321.743 24.625C322.893 24.625 323.893 24.8583 324.743 25.325C325.61 25.775 326.285 26.3917 326.768 27.175C327.251 27.9583 327.493 28.8667 327.493 29.9C327.493 30.4167 327.351 30.8083 327.068 31.075C326.785 31.3417 326.393 31.5083 325.893 31.575L317.943 32.75Z" fill="#F8F6EE"/>
<path d="M365.386 31.195C365.403 29.8836 365.754 28.5978 366.405 27.4572C367.056 26.3165 367.987 25.3581 369.111 24.6712C368.397 23.6576 367.455 22.8234 366.36 22.2349C365.265 21.6464 364.047 21.3198 362.803 21.2811C360.149 21.0041 357.576 22.8598 356.224 22.8598C354.845 22.8598 352.763 21.3086 350.521 21.3544C349.07 21.401 347.657 21.8203 346.418 22.5714C345.179 23.3226 344.157 24.38 343.451 25.6405C340.395 30.9016 342.675 38.6336 345.603 42.8863C347.068 44.9687 348.78 47.2949 351.02 47.2124C353.212 47.122 354.031 45.8227 356.677 45.8227C359.299 45.8227 360.067 47.2124 362.352 47.1599C364.705 47.122 366.187 45.0683 367.6 42.9662C368.653 41.4824 369.463 39.8424 370 38.1071C368.633 37.5324 367.467 36.5706 366.647 35.3414C365.826 34.1122 365.388 32.6702 365.386 31.195Z" fill="#F8F6EE"/>
<path d="M362.069 18.4845C363.352 16.9538 363.984 14.9864 363.831 13C361.871 13.2046 360.061 14.1356 358.761 15.6076C358.126 16.3267 357.639 17.1632 357.329 18.0695C357.018 18.9758 356.891 19.9339 356.954 20.8891C357.934 20.8991 358.903 20.6879 359.789 20.2714C360.675 19.8549 361.455 19.2439 362.069 18.4845Z" fill="#F8F6EE"/>
</svg>
