<svg width="395" height="60" viewBox="0 0 395 60" fill="none" xmlns="http://www.w3.org/2000/svg">
<path d="M0 10C0 4.47715 4.47715 0 10 0H385C390.523 0 395 4.47715 395 10V50C395 55.5228 390.523 60 385 60H10C4.47716 60 0 55.5228 0 50V10Z" fill="#14162B"/>
<path d="M53.3321 29.4252C53.3321 28.3085 53.1405 27.3919 52.7571 26.6752C52.3905 25.9585 51.8738 25.4252 51.2071 25.0752C50.5571 24.7085 49.7988 24.5252 48.9321 24.5252C48.6321 24.5252 48.3405 24.5419 48.0571 24.5752C47.7905 24.5919 47.5155 24.6169 47.2321 24.6502V34.1252C47.4821 34.1752 47.7655 34.2169 48.0821 34.2502C48.3988 34.2669 48.6988 34.2752 48.9821 34.2752C50.2988 34.2752 51.3488 33.8669 52.1321 33.0502C52.9321 32.2335 53.3321 31.0252 53.3321 29.4252ZM57.2571 29.3502C57.2571 31.1502 56.9071 32.6419 56.2071 33.8252C55.5238 35.0085 54.5571 35.9002 53.3071 36.5002C52.0738 37.0835 50.6238 37.3752 48.9571 37.3752C48.4071 37.3752 47.7321 37.3335 46.9321 37.2502C46.1321 37.1835 45.4071 37.0335 44.7571 36.8002C43.8905 36.4835 43.4571 35.9252 43.4571 35.1252V23.1752C43.4571 22.8419 43.5488 22.5919 43.7321 22.4252C43.9155 22.2419 44.1571 22.0919 44.4571 21.9752C45.1238 21.7585 45.8405 21.6169 46.6071 21.5502C47.3738 21.4835 48.0738 21.4502 48.7071 21.4502C50.4238 21.4502 51.9155 21.7419 53.1821 22.3252C54.4655 22.8919 55.4655 23.7585 56.1821 24.9252C56.8988 26.0919 57.2571 27.5669 57.2571 29.3502Z" fill="#F8F6EE"/>
<path d="M70.5843 31.0002C70.5843 32.3002 70.3176 33.4335 69.7843 34.4002C69.2676 35.3502 68.5343 36.0835 67.5843 36.6002C66.6343 37.1169 65.5176 37.3752 64.2343 37.3752C62.9676 37.3752 61.8509 37.1252 60.8843 36.6252C59.9343 36.1085 59.1926 35.3752 58.6593 34.4252C58.1426 33.4585 57.8843 32.3169 57.8843 31.0002C57.8843 29.6835 58.1509 28.5585 58.6843 27.6252C59.2176 26.6752 59.9593 25.9419 60.9093 25.4252C61.8759 24.8919 62.9843 24.6252 64.2343 24.6252C65.5009 24.6252 66.6093 24.8919 67.5593 25.4252C68.5093 25.9419 69.2509 26.6835 69.7843 27.6502C70.3176 28.6002 70.5843 29.7169 70.5843 31.0002ZM64.2343 27.5502C63.4509 27.5502 62.8259 27.8502 62.3593 28.4502C61.9093 29.0502 61.6843 29.9002 61.6843 31.0002C61.6843 32.1169 61.9093 32.9752 62.3593 33.5752C62.8093 34.1585 63.4343 34.4502 64.2343 34.4502C65.0343 34.4502 65.6593 34.1502 66.1093 33.5502C66.5593 32.9502 66.7843 32.1002 66.7843 31.0002C66.7843 29.9169 66.5593 29.0752 66.1093 28.4752C65.6593 27.8585 65.0343 27.5502 64.2343 27.5502Z" fill="#F8F6EE"/>
<path d="M79.8659 29.7502C79.6826 30.5835 79.4576 31.4419 79.1909 32.3252C78.9242 33.2085 78.6659 34.0335 78.4159 34.8002C78.1826 35.5669 77.9909 36.1835 77.8409 36.6502C77.6409 36.8169 77.3659 36.9502 77.0159 37.0502C76.6659 37.1669 76.2492 37.2252 75.7659 37.2252C75.1992 37.2252 74.6909 37.1419 74.2409 36.9752C73.8076 36.8085 73.5159 36.5669 73.3659 36.2502C73.2159 35.9169 73.0409 35.4419 72.8409 34.8252C72.6576 34.2085 72.4659 33.5085 72.2659 32.7252C72.0659 31.9252 71.8659 31.0919 71.6659 30.2252C71.4826 29.3585 71.3076 28.5252 71.1409 27.7252C70.9742 26.9085 70.8409 26.1752 70.7409 25.5252C70.9409 25.3252 71.2076 25.1502 71.5409 25.0002C71.8909 24.8335 72.2742 24.7502 72.6909 24.7502C73.2076 24.7502 73.6242 24.8752 73.9409 25.1252C74.2742 25.3585 74.4742 25.7585 74.5409 26.3252C74.7076 27.4585 74.8576 28.4502 74.9909 29.3002C75.1242 30.1335 75.2409 30.8502 75.3409 31.4502C75.4576 32.0502 75.5492 32.5419 75.6159 32.9252C75.6992 33.2919 75.7659 33.5835 75.8159 33.8002H75.9159C76.0159 33.4169 76.1659 32.8335 76.3659 32.0502C76.5659 31.2502 76.8076 30.3419 77.0909 29.3252C77.3742 28.2919 77.6576 27.2502 77.9409 26.2002C78.2242 26.0335 78.5159 25.9085 78.8159 25.8252C79.1159 25.7419 79.4659 25.7002 79.8659 25.7002C80.3826 25.7002 80.8242 25.7835 81.1909 25.9502C81.5576 26.1169 81.7909 26.3669 81.8909 26.7002C82.1909 27.7169 82.4659 28.7002 82.7159 29.6502C82.9826 30.6002 83.2159 31.4419 83.4159 32.1752C83.6159 32.8919 83.7576 33.4335 83.8409 33.8002H83.9659C84.1992 32.4669 84.4326 31.0669 84.6659 29.6002C84.8992 28.1335 85.1076 26.6669 85.2909 25.2002C85.8076 24.9002 86.3742 24.7502 86.9909 24.7502C87.5076 24.7502 87.9242 24.8669 88.2409 25.1002C88.5742 25.3169 88.7409 25.6919 88.7409 26.2252C88.7409 26.4752 88.6992 26.8585 88.6159 27.3752C88.5326 27.8919 88.4159 28.4919 88.2659 29.1752C88.1159 29.8419 87.9492 30.5502 87.7659 31.3002C87.5826 32.0502 87.3909 32.7752 87.1909 33.4752C87.0076 34.1752 86.8326 34.8002 86.6659 35.3502C86.4992 35.9002 86.3492 36.3335 86.2159 36.6502C86.0326 36.8169 85.7326 36.9502 85.3159 37.0502C84.8992 37.1669 84.4492 37.2252 83.9659 37.2252C82.7326 37.2252 82.0076 36.9252 81.7909 36.3252C81.6409 35.8752 81.4409 35.2919 81.1909 34.5752C80.9576 33.8585 80.7242 33.0835 80.4909 32.2502C80.2576 31.4002 80.0492 30.5669 79.8659 29.7502Z" fill="#F8F6EE"/>
<path d="M101.15 29.2252V31.5752H97.4251V29.3502C97.4251 28.7335 97.2418 28.2835 96.8751 28.0002C96.5251 27.7002 96.0584 27.5502 95.4751 27.5502C95.0584 27.5502 94.6751 27.6085 94.3251 27.7252C93.9751 27.8252 93.6584 27.9502 93.3751 28.1002V31.5752H89.6751V27.6752C89.6751 27.2585 89.7584 26.9169 89.9251 26.6502C90.1084 26.3669 90.3668 26.1169 90.7001 25.9002C91.2334 25.5335 91.9168 25.2335 92.7501 25.0002C93.5834 24.7502 94.5001 24.6252 95.5001 24.6252C97.3001 24.6252 98.6918 25.0252 99.6751 25.8252C100.658 26.6085 101.15 27.7419 101.15 29.2252ZM89.6751 30.4252H93.3751V36.9752C93.2084 37.0252 92.9751 37.0669 92.6751 37.1002C92.3751 37.1502 92.0501 37.1752 91.7001 37.1752C91.0001 37.1752 90.4834 37.0502 90.1501 36.8002C89.8334 36.5502 89.6751 36.1002 89.6751 35.4502V30.4252ZM97.4251 30.4252H101.15V36.9752C100.983 37.0252 100.75 37.0669 100.45 37.1002C100.15 37.1502 99.8251 37.1752 99.4751 37.1752C98.7751 37.1752 98.2584 37.0502 97.9251 36.8002C97.5918 36.5502 97.4251 36.1002 97.4251 35.4502V30.4252Z" fill="#F8F6EE"/>
<path d="M102.93 30.4002L106.655 30.4752V36.9752C106.488 37.0252 106.255 37.0669 105.955 37.1002C105.655 37.1502 105.33 37.1752 104.98 37.1752C104.28 37.1752 103.763 37.0502 103.43 36.8002C103.097 36.5502 102.93 36.1002 102.93 35.4502V30.4002ZM106.655 32.4002L102.93 32.3252V20.7252C103.097 20.6752 103.33 20.6252 103.63 20.5752C103.93 20.5252 104.255 20.5002 104.605 20.5002C105.322 20.5002 105.838 20.6252 106.155 20.8752C106.488 21.1252 106.655 21.5835 106.655 22.2502V32.4002Z" fill="#F8F6EE"/>
<path d="M120.565 31.0002C120.565 32.3002 120.298 33.4335 119.765 34.4002C119.248 35.3502 118.515 36.0835 117.565 36.6002C116.615 37.1169 115.498 37.3752 114.215 37.3752C112.948 37.3752 111.831 37.1252 110.865 36.6252C109.915 36.1085 109.173 35.3752 108.64 34.4252C108.123 33.4585 107.865 32.3169 107.865 31.0002C107.865 29.6835 108.131 28.5585 108.665 27.6252C109.198 26.6752 109.94 25.9419 110.89 25.4252C111.856 24.8919 112.965 24.6252 114.215 24.6252C115.481 24.6252 116.59 24.8919 117.54 25.4252C118.49 25.9419 119.231 26.6835 119.765 27.6502C120.298 28.6002 120.565 29.7169 120.565 31.0002ZM114.215 27.5502C113.431 27.5502 112.806 27.8502 112.34 28.4502C111.89 29.0502 111.665 29.9002 111.665 31.0002C111.665 32.1169 111.89 32.9752 112.34 33.5752C112.79 34.1585 113.415 34.4502 114.215 34.4502C115.015 34.4502 115.64 34.1502 116.09 33.5502C116.54 32.9502 116.765 32.1002 116.765 31.0002C116.765 29.9169 116.54 29.0752 116.09 28.4752C115.64 27.8585 115.015 27.5502 114.215 27.5502Z" fill="#F8F6EE"/>
<path d="M126.617 34.6252C127 34.6252 127.375 34.5919 127.742 34.5252C128.125 34.4419 128.4 34.3502 128.567 34.2502V31.8502L126.467 32.0502C125.9 32.0835 125.45 32.2002 125.117 32.4002C124.783 32.6002 124.617 32.9002 124.617 33.3002C124.617 33.7002 124.775 34.0252 125.092 34.2752C125.408 34.5085 125.917 34.6252 126.617 34.6252ZM126.467 24.6252C128.2 24.6252 129.583 24.9919 130.617 25.7252C131.65 26.4419 132.167 27.5585 132.167 29.0752V34.7502C132.167 35.1669 132.058 35.5085 131.842 35.7752C131.625 36.0252 131.35 36.2419 131.017 36.4252C130.517 36.7252 129.892 36.9585 129.142 37.1252C128.408 37.3085 127.567 37.4002 126.617 37.4002C124.917 37.4002 123.558 37.0669 122.542 36.4002C121.542 35.7335 121.042 34.7419 121.042 33.4252C121.042 32.2919 121.392 31.4252 122.092 30.8252C122.792 30.2085 123.833 29.8335 125.217 29.7002L128.542 29.3502V29.0502C128.542 28.4835 128.317 28.0752 127.867 27.8252C127.433 27.5752 126.808 27.4502 125.992 27.4502C125.358 27.4502 124.733 27.5252 124.117 27.6752C123.517 27.8252 122.975 28.0002 122.492 28.2002C122.292 28.0669 122.117 27.8669 121.967 27.6002C121.833 27.3169 121.767 27.0252 121.767 26.7252C121.767 26.0252 122.15 25.5169 122.917 25.2002C123.4 25.0002 123.958 24.8585 124.592 24.7752C125.242 24.6752 125.867 24.6252 126.467 24.6252Z" fill="#F8F6EE"/>
<path d="M141.547 34.0252V26.5002H145.247V34.5002C145.247 34.9002 145.163 35.2419 144.997 35.5252C144.83 35.7919 144.563 36.0335 144.197 36.2502C143.747 36.5502 143.155 36.8085 142.422 37.0252C141.705 37.2585 140.872 37.3752 139.922 37.3752C138.538 37.3752 137.338 37.1419 136.322 36.6752C135.322 36.2085 134.547 35.5085 133.997 34.5752C133.463 33.6252 133.197 32.4502 133.197 31.0502C133.197 29.5835 133.472 28.3835 134.022 27.4502C134.588 26.5002 135.347 25.7919 136.297 25.3252C137.247 24.8585 138.297 24.6252 139.447 24.6252C140.047 24.6252 140.58 24.6919 141.047 24.8252C141.513 24.9585 141.897 25.1169 142.197 25.3002V28.3502C141.963 28.1502 141.655 27.9669 141.272 27.8002C140.888 27.6335 140.447 27.5502 139.947 27.5502C139.363 27.5502 138.847 27.6752 138.397 27.9252C137.947 28.1752 137.597 28.5585 137.347 29.0752C137.097 29.5919 136.972 30.2502 136.972 31.0502C136.972 32.2169 137.23 33.0752 137.747 33.6252C138.28 34.1752 138.997 34.4502 139.897 34.4502C140.263 34.4502 140.588 34.4085 140.872 34.3252C141.155 34.2252 141.38 34.1252 141.547 34.0252ZM145.247 27.2252L141.547 27.2502V20.7252C141.697 20.6752 141.922 20.6252 142.222 20.5752C142.522 20.5252 142.847 20.5002 143.197 20.5002C143.93 20.5002 144.455 20.6252 144.772 20.8752C145.088 21.1252 145.247 21.5835 145.247 22.2502V27.2252Z" fill="#F8F6EE"/>
<path d="M153.705 28.7252V25.8752H158.58C158.664 26.0085 158.747 26.2002 158.83 26.4502C158.914 26.7002 158.955 26.9752 158.955 27.2752C158.955 27.7919 158.839 28.1669 158.605 28.4002C158.389 28.6169 158.08 28.7252 157.68 28.7252H153.705ZM154.28 24.8752V28.2752H150.755V24.7502C150.755 23.6502 150.98 22.7585 151.43 22.0752C151.897 21.3919 152.53 20.8919 153.33 20.5752C154.147 20.2419 155.047 20.0752 156.03 20.0752C157.197 20.0752 158.064 20.2335 158.63 20.5502C159.214 20.8502 159.505 21.3419 159.505 22.0252C159.505 22.3252 159.439 22.5919 159.305 22.8252C159.189 23.0585 159.055 23.2419 158.905 23.3752C158.589 23.2752 158.247 23.1919 157.88 23.1252C157.514 23.0585 157.105 23.0252 156.655 23.0252C155.872 23.0252 155.28 23.1669 154.88 23.4502C154.48 23.7335 154.28 24.2085 154.28 24.8752ZM150.755 27.5502H154.455V36.9752C154.289 37.0252 154.055 37.0669 153.755 37.1002C153.455 37.1502 153.13 37.1752 152.78 37.1752C152.08 37.1752 151.564 37.0502 151.23 36.8002C150.914 36.5502 150.755 36.1002 150.755 35.4502V27.5502Z" fill="#F8F6EE"/>
<path d="M163.116 28.2252V31.3502H159.416V27.7752C159.416 27.3085 159.525 26.9169 159.741 26.6002C159.975 26.2669 160.291 25.9752 160.691 25.7252C161.241 25.3919 161.9 25.1335 162.666 24.9502C163.45 24.7502 164.266 24.6502 165.116 24.6502C166.816 24.6502 167.666 25.2169 167.666 26.3502C167.666 26.6169 167.625 26.8669 167.541 27.1002C167.475 27.3335 167.391 27.5335 167.291 27.7002C167.125 27.6669 166.916 27.6419 166.666 27.6252C166.433 27.5919 166.175 27.5752 165.891 27.5752C165.391 27.5752 164.891 27.6335 164.391 27.7502C163.891 27.8669 163.466 28.0252 163.116 28.2252ZM159.416 30.4002L163.116 30.4752V36.9752C162.95 37.0252 162.716 37.0669 162.416 37.1002C162.116 37.1502 161.791 37.1752 161.441 37.1752C160.741 37.1752 160.225 37.0502 159.891 36.8002C159.575 36.5502 159.416 36.1002 159.416 35.4502V30.4002Z" fill="#F8F6EE"/>
<path d="M179.984 31.0002C179.984 32.3002 179.717 33.4335 179.184 34.4002C178.667 35.3502 177.934 36.0835 176.984 36.6002C176.034 37.1169 174.917 37.3752 173.634 37.3752C172.367 37.3752 171.25 37.1252 170.284 36.6252C169.334 36.1085 168.592 35.3752 168.059 34.4252C167.542 33.4585 167.284 32.3169 167.284 31.0002C167.284 29.6835 167.55 28.5585 168.084 27.6252C168.617 26.6752 169.359 25.9419 170.309 25.4252C171.275 24.8919 172.384 24.6252 173.634 24.6252C174.9 24.6252 176.009 24.8919 176.959 25.4252C177.909 25.9419 178.65 26.6835 179.184 27.6502C179.717 28.6002 179.984 29.7169 179.984 31.0002ZM173.634 27.5502C172.85 27.5502 172.225 27.8502 171.759 28.4502C171.309 29.0502 171.084 29.9002 171.084 31.0002C171.084 32.1169 171.309 32.9752 171.759 33.5752C172.209 34.1585 172.834 34.4502 173.634 34.4502C174.434 34.4502 175.059 34.1502 175.509 33.5502C175.959 32.9502 176.184 32.1002 176.184 31.0002C176.184 29.9169 175.959 29.0752 175.509 28.4752C175.059 27.8585 174.434 27.5502 173.634 27.5502Z" fill="#F8F6EE"/>
<path d="M191.962 28.7252V31.5752H188.237V29.2002C188.237 28.6335 188.07 28.2169 187.737 27.9502C187.403 27.6835 186.987 27.5502 186.487 27.5502C186.12 27.5502 185.787 27.6085 185.487 27.7252C185.203 27.8252 184.962 27.9335 184.762 28.0502V31.5752H181.062V27.6752C181.062 27.2585 181.145 26.9169 181.312 26.6502C181.495 26.3669 181.753 26.1169 182.087 25.9002C182.637 25.5169 183.312 25.2085 184.112 24.9752C184.912 24.7419 185.745 24.6252 186.612 24.6252C187.412 24.6252 188.162 24.7502 188.862 25.0002C189.562 25.2502 190.17 25.6335 190.687 26.1502C190.82 26.2502 190.945 26.3585 191.062 26.4752C191.195 26.5752 191.295 26.6919 191.362 26.8252C191.528 27.0919 191.67 27.3919 191.787 27.7252C191.903 28.0585 191.962 28.3919 191.962 28.7252ZM199.137 29.1002V31.5752H195.437V29.2002C195.437 28.6335 195.278 28.2169 194.962 27.9502C194.645 27.6835 194.228 27.5502 193.712 27.5502C193.328 27.5502 192.962 27.6335 192.612 27.8002C192.278 27.9502 191.987 28.1335 191.737 28.3502L189.787 26.2002C190.337 25.7669 190.962 25.4002 191.662 25.1002C192.362 24.7835 193.22 24.6252 194.237 24.6252C195.103 24.6252 195.912 24.7752 196.662 25.0752C197.412 25.3752 198.012 25.8502 198.462 26.5002C198.912 27.1502 199.137 28.0169 199.137 29.1002ZM181.062 30.4252H184.762V36.9752C184.595 37.0252 184.362 37.0669 184.062 37.1002C183.762 37.1502 183.437 37.1752 183.087 37.1752C182.387 37.1752 181.87 37.0502 181.537 36.8002C181.22 36.5502 181.062 36.1002 181.062 35.4502V30.4252ZM188.237 30.4252H191.962V36.9752C191.795 37.0252 191.562 37.0669 191.262 37.1002C190.962 37.1502 190.637 37.1752 190.287 37.1752C189.57 37.1752 189.045 37.0502 188.712 36.8002C188.395 36.5502 188.237 36.1002 188.237 35.4502V30.4252ZM195.437 30.4252H199.137V36.9752C198.987 37.0252 198.762 37.0669 198.462 37.1002C198.162 37.1502 197.837 37.1752 197.487 37.1752C196.77 37.1752 196.245 37.0502 195.912 36.8002C195.595 36.5502 195.437 36.1002 195.437 35.4502V30.4252Z" fill="#F8F6EE"/>
<path d="M210.988 25.0002H210.838C210.671 25.5335 210.471 26.1252 210.238 26.7752C210.021 27.4252 209.796 28.1085 209.563 28.8252C209.329 29.5252 209.104 30.2252 208.888 30.9252L208.438 33.1752C208.338 33.4919 208.238 33.8252 208.138 34.1752C208.054 34.5252 207.963 34.8669 207.863 35.2002C207.763 35.5335 207.671 35.8502 207.588 36.1502C207.504 36.4502 207.421 36.7335 207.338 37.0002C207.154 37.0502 206.946 37.1002 206.713 37.1502C206.479 37.2169 206.204 37.2502 205.888 37.2502C205.188 37.2502 204.654 37.1252 204.288 36.8752C203.921 36.6252 203.738 36.2585 203.738 35.7752C203.738 35.5752 203.763 35.3669 203.813 35.1502C203.879 34.9335 203.954 34.6835 204.038 34.4002C204.188 33.8502 204.396 33.1585 204.663 32.3252C204.946 31.4919 205.246 30.5919 205.563 29.6252C205.896 28.6419 206.229 27.6752 206.563 26.7252C206.913 25.7752 207.229 24.9002 207.513 24.1002C207.813 23.3002 208.054 22.6752 208.238 22.2252C208.471 22.0752 208.838 21.9419 209.338 21.8252C209.854 21.6919 210.363 21.6252 210.863 21.6252C211.579 21.6252 212.221 21.7335 212.788 21.9502C213.354 22.1502 213.713 22.4752 213.863 22.9252C214.179 23.8085 214.521 24.8335 214.888 26.0002C215.271 27.1502 215.654 28.3585 216.038 29.6252C216.421 30.8919 216.788 32.1252 217.138 33.3252C217.504 34.5085 217.821 35.5752 218.088 36.5252C217.904 36.7252 217.638 36.8919 217.288 37.0252C216.938 37.1752 216.521 37.2502 216.038 37.2502C215.354 37.2502 214.871 37.1252 214.588 36.8752C214.304 36.6252 214.088 36.2502 213.938 35.7502L213.138 32.9502L212.713 30.8252C212.513 30.0752 212.304 29.3502 212.088 28.6502C211.871 27.9502 211.671 27.2919 211.488 26.6752C211.304 26.0419 211.138 25.4835 210.988 25.0002ZM206.763 33.6252L208.238 30.6752H214.088L214.588 33.6252H206.763Z" fill="#F8F6EE"/>
<path d="M224.741 37.3752C224.108 37.3752 223.541 37.2919 223.041 37.1252C222.541 36.9752 222.108 36.8002 221.741 36.6002V33.4752C222.025 33.7085 222.366 33.9252 222.766 34.1252C223.183 34.3252 223.65 34.4252 224.166 34.4252C225.083 34.4252 225.791 34.1335 226.291 33.5502C226.808 32.9669 227.066 32.0919 227.066 30.9252C227.066 30.1252 226.95 29.4835 226.716 29.0002C226.5 28.5002 226.183 28.1335 225.766 27.9002C225.35 27.6669 224.858 27.5502 224.291 27.5502C223.908 27.5502 223.558 27.6002 223.241 27.7002C222.941 27.7835 222.683 27.8919 222.466 28.0252V35.6752H218.791V27.5002C218.791 27.0835 218.875 26.7419 219.041 26.4752C219.208 26.1919 219.466 25.9419 219.816 25.7252C220.316 25.4085 220.95 25.1502 221.716 24.9502C222.483 24.7335 223.341 24.6252 224.291 24.6252C225.575 24.6252 226.708 24.8502 227.691 25.3002C228.691 25.7335 229.466 26.4169 230.016 27.3502C230.566 28.2669 230.841 29.4585 230.841 30.9252C230.841 32.3419 230.575 33.5252 230.041 34.4752C229.508 35.4252 228.783 36.1502 227.866 36.6502C226.95 37.1335 225.908 37.3752 224.741 37.3752ZM222.491 34.7252V41.4502C222.325 41.5002 222.091 41.5502 221.791 41.6002C221.491 41.6502 221.166 41.6752 220.816 41.6752C220.116 41.6752 219.6 41.5502 219.266 41.3002C218.95 41.0502 218.791 40.5919 218.791 39.9252V34.7252H222.491Z" fill="#F8F6EE"/>
<path d="M237.896 37.3752C237.262 37.3752 236.696 37.2919 236.196 37.1252C235.696 36.9752 235.262 36.8002 234.896 36.6002V33.4752C235.179 33.7085 235.521 33.9252 235.921 34.1252C236.337 34.3252 236.804 34.4252 237.321 34.4252C238.237 34.4252 238.946 34.1335 239.446 33.5502C239.962 32.9669 240.221 32.0919 240.221 30.9252C240.221 30.1252 240.104 29.4835 239.871 29.0002C239.654 28.5002 239.337 28.1335 238.921 27.9002C238.504 27.6669 238.012 27.5502 237.446 27.5502C237.062 27.5502 236.712 27.6002 236.396 27.7002C236.096 27.7835 235.837 27.8919 235.621 28.0252V35.6752H231.946V27.5002C231.946 27.0835 232.029 26.7419 232.196 26.4752C232.362 26.1919 232.621 25.9419 232.971 25.7252C233.471 25.4085 234.104 25.1502 234.871 24.9502C235.637 24.7335 236.496 24.6252 237.446 24.6252C238.729 24.6252 239.862 24.8502 240.846 25.3002C241.846 25.7335 242.621 26.4169 243.171 27.3502C243.721 28.2669 243.996 29.4585 243.996 30.9252C243.996 32.3419 243.729 33.5252 243.196 34.4752C242.662 35.4252 241.937 36.1502 241.021 36.6502C240.104 37.1335 239.062 37.3752 237.896 37.3752ZM235.646 34.7252V41.4502C235.479 41.5002 235.246 41.5502 234.946 41.6002C234.646 41.6502 234.321 41.6752 233.971 41.6752C233.271 41.6752 232.754 41.5502 232.421 41.3002C232.104 41.0502 231.946 40.5919 231.946 39.9252V34.7252H235.646Z" fill="#F8F6EE"/>
<path d="M253.705 34.3252C254.605 34.3252 255.246 34.1669 255.63 33.8502C256.03 33.5169 256.23 33.1252 256.23 32.6752C256.23 32.2585 256.071 31.9252 255.755 31.6752C255.455 31.4085 255.005 31.1835 254.405 31.0002L253.08 30.5752C252.18 30.2752 251.38 29.9419 250.68 29.5752C249.996 29.2085 249.463 28.7335 249.08 28.1502C248.713 27.5669 248.53 26.8252 248.53 25.9252C248.53 24.5419 249.055 23.4419 250.105 22.6252C251.155 21.8085 252.613 21.4002 254.48 21.4002C255.43 21.4002 256.271 21.4919 257.005 21.6752C257.755 21.8585 258.338 22.1335 258.755 22.5002C259.188 22.8502 259.405 23.2835 259.405 23.8002C259.405 24.1835 259.313 24.5169 259.13 24.8002C258.963 25.0669 258.746 25.3002 258.48 25.5002C258.096 25.2335 257.588 25.0085 256.955 24.8252C256.321 24.6252 255.621 24.5252 254.855 24.5252C254.055 24.5252 253.455 24.6585 253.055 24.9252C252.655 25.1752 252.455 25.5085 252.455 25.9252C252.455 26.2585 252.588 26.5335 252.855 26.7502C253.121 26.9502 253.521 27.1335 254.055 27.3002L255.43 27.7252C256.946 28.1919 258.113 28.8169 258.93 29.6002C259.746 30.3669 260.155 31.4002 260.155 32.7002C260.155 34.1002 259.613 35.2419 258.53 36.1252C257.446 36.9919 255.88 37.4252 253.83 37.4252C252.813 37.4252 251.905 37.3169 251.105 37.1002C250.305 36.8835 249.663 36.5669 249.18 36.1502C248.713 35.7335 248.48 35.2502 248.48 34.7002C248.48 34.2669 248.605 33.9002 248.855 33.6002C249.121 33.2835 249.413 33.0502 249.73 32.9002C250.18 33.2669 250.738 33.6002 251.405 33.9002C252.088 34.1835 252.855 34.3252 253.705 34.3252Z" fill="#F8F6EE"/>
<path d="M261.228 30.4002H264.903V33.0752C264.903 33.5419 265.053 33.8835 265.353 34.1002C265.653 34.3169 266.078 34.4252 266.628 34.4252C266.878 34.4252 267.145 34.4002 267.428 34.3502C267.728 34.2835 267.978 34.2085 268.178 34.1252C268.312 34.2752 268.428 34.4585 268.528 34.6752C268.645 34.8919 268.703 35.1419 268.703 35.4252C268.703 35.9919 268.47 36.4585 268.003 36.8252C267.537 37.1919 266.753 37.3752 265.653 37.3752C264.253 37.3752 263.162 37.0585 262.378 36.4252C261.612 35.7919 261.228 34.7585 261.228 33.3252V30.4002ZM263.578 28.1252V25.2752H268.378C268.462 25.4085 268.545 25.6002 268.628 25.8502C268.712 26.1002 268.753 26.3752 268.753 26.6752C268.753 27.1752 268.637 27.5419 268.403 27.7752C268.187 28.0085 267.887 28.1252 267.503 28.1252H263.578ZM264.903 31.0252H261.228V22.0502C261.395 22.0002 261.628 21.9502 261.928 21.9002C262.228 21.8335 262.545 21.8002 262.878 21.8002C263.595 21.8002 264.112 21.9252 264.428 22.1752C264.745 22.4252 264.903 22.8835 264.903 23.5502V31.0252Z" fill="#F8F6EE"/>
<path d="M281.698 31.0002C281.698 32.3002 281.431 33.4335 280.898 34.4002C280.381 35.3502 279.648 36.0835 278.698 36.6002C277.748 37.1169 276.631 37.3752 275.348 37.3752C274.081 37.3752 272.964 37.1252 271.998 36.6252C271.048 36.1085 270.306 35.3752 269.773 34.4252C269.256 33.4585 268.998 32.3169 268.998 31.0002C268.998 29.6835 269.264 28.5585 269.798 27.6252C270.331 26.6752 271.073 25.9419 272.023 25.4252C272.989 24.8919 274.098 24.6252 275.348 24.6252C276.614 24.6252 277.723 24.8919 278.673 25.4252C279.623 25.9419 280.364 26.6835 280.898 27.6502C281.431 28.6002 281.698 29.7169 281.698 31.0002ZM275.348 27.5502C274.564 27.5502 273.939 27.8502 273.473 28.4502C273.023 29.0502 272.798 29.9002 272.798 31.0002C272.798 32.1169 273.023 32.9752 273.473 33.5752C273.923 34.1585 274.548 34.4502 275.348 34.4502C276.148 34.4502 276.773 34.1502 277.223 33.5502C277.673 32.9502 277.898 32.1002 277.898 31.0002C277.898 29.9169 277.673 29.0752 277.223 28.4752C276.773 27.8585 276.148 27.5502 275.348 27.5502Z" fill="#F8F6EE"/>
<path d="M286.476 28.2252V31.3502H282.776V27.7752C282.776 27.3085 282.884 26.9169 283.101 26.6002C283.334 26.2669 283.651 25.9752 284.051 25.7252C284.601 25.3919 285.259 25.1335 286.026 24.9502C286.809 24.7502 287.626 24.6502 288.476 24.6502C290.176 24.6502 291.026 25.2169 291.026 26.3502C291.026 26.6169 290.984 26.8669 290.901 27.1002C290.834 27.3335 290.751 27.5335 290.651 27.7002C290.484 27.6669 290.276 27.6419 290.026 27.6252C289.792 27.5919 289.534 27.5752 289.251 27.5752C288.751 27.5752 288.251 27.6335 287.751 27.7502C287.251 27.8669 286.826 28.0252 286.476 28.2252ZM282.776 30.4002L286.476 30.4752V36.9752C286.309 37.0252 286.076 37.0669 285.776 37.1002C285.476 37.1502 285.151 37.1752 284.801 37.1752C284.101 37.1752 283.584 37.0502 283.251 36.8002C282.934 36.5502 282.776 36.1002 282.776 35.4502V30.4002Z" fill="#F8F6EE"/>
<path d="M292.943 32.7502L292.793 30.2502L298.993 29.2752C298.96 28.8085 298.76 28.3752 298.393 27.9752C298.026 27.5752 297.485 27.3752 296.768 27.3752C296.018 27.3752 295.393 27.6335 294.893 28.1502C294.393 28.6502 294.126 29.3669 294.093 30.3002L294.218 32.0252C294.368 32.9419 294.76 33.6002 295.393 34.0002C296.026 34.3835 296.776 34.5752 297.643 34.5752C298.343 34.5752 299.001 34.4752 299.618 34.2752C300.235 34.0752 300.735 33.8669 301.118 33.6502C301.368 33.8002 301.568 34.0085 301.718 34.2752C301.885 34.5419 301.968 34.8252 301.968 35.1252C301.968 35.6252 301.768 36.0419 301.368 36.3752C300.985 36.7085 300.443 36.9585 299.743 37.1252C299.06 37.2919 298.276 37.3752 297.393 37.3752C296.11 37.3752 294.951 37.1335 293.918 36.6502C292.901 36.1669 292.101 35.4419 291.518 34.4752C290.935 33.5085 290.643 32.3002 290.643 30.8502C290.643 29.7835 290.81 28.8585 291.143 28.0752C291.493 27.2919 291.951 26.6502 292.518 26.1502C293.101 25.6335 293.751 25.2502 294.468 25.0002C295.201 24.7502 295.96 24.6252 296.743 24.6252C297.893 24.6252 298.893 24.8585 299.743 25.3252C300.61 25.7752 301.285 26.3919 301.768 27.1752C302.251 27.9585 302.493 28.8669 302.493 29.9002C302.493 30.4169 302.351 30.8085 302.068 31.0752C301.785 31.3419 301.393 31.5085 300.893 31.5752L292.943 32.7502Z" fill="#F8F6EE"/>
<path d="M340.386 31.1949C340.403 29.8834 340.754 28.5977 341.405 27.457C342.056 26.3164 342.987 25.358 344.111 24.6711C343.397 23.6575 342.455 22.8232 341.36 22.2347C340.265 21.6462 339.047 21.3196 337.803 21.281C335.149 21.004 332.576 22.8597 331.224 22.8597C329.845 22.8597 327.763 21.3085 325.521 21.3543C324.07 21.4009 322.657 21.8201 321.418 22.5713C320.179 23.3225 319.157 24.3798 318.451 25.6404C315.395 30.9015 317.675 38.6335 320.603 42.8862C322.068 44.9686 323.78 47.2948 326.02 47.2122C328.212 47.1219 329.031 45.8226 331.677 45.8226C334.299 45.8226 335.067 47.2122 337.352 47.1598C339.705 47.1219 341.187 45.0681 342.6 42.966C343.653 41.4823 344.463 39.8422 345 38.107C343.633 37.5323 342.467 36.5704 341.647 35.3413C340.826 34.1121 340.388 32.6701 340.386 31.1949Z" fill="#F8F6EE"/>
<path d="M337.069 18.4845C338.352 16.9538 338.984 14.9864 338.831 13C336.871 13.2046 335.061 14.1356 333.761 15.6076C333.126 16.3267 332.639 17.1632 332.329 18.0695C332.018 18.9758 331.891 19.9339 331.954 20.8891C332.934 20.8991 333.903 20.6879 334.789 20.2714C335.675 19.8549 336.455 19.2439 337.069 18.4845Z" fill="#F8F6EE"/>
</svg>
