<svg width="30" height="30" viewBox="0 0 30 30" fill="none" xmlns="http://www.w3.org/2000/svg">
<path d="M7.22119 6.63721C7.76881 3.35186 11.2109 0.323227 15.9185 1.42822C21.6672 2.77765 21.6673 7.77776 21.1118 12.2222C23.0445 11.5394 23.6959 12.6846 27.2231 10.0005C30.8126 7.26909 28.8899 13.3338 27.7788 15.0005C26.6678 16.6671 27.0291 16.3315 26.6675 17.7778C26.112 19.9999 24.4149 21.5124 22.7788 22.2222C21.3231 22.8536 22.7783 25.5555 21.6675 27.2222C20.6882 28.6911 20.0954 28.3989 15.9185 28.3989C12.1006 28.3989 6.45689 29.2267 5.55615 26.269C5.16977 25.0002 5.00049 24.9999 5.00049 22.2222C5.00063 20.0001 7.70653 17.5592 7.77881 14.4448C7.80418 13.3497 6.14486 12.0424 3.93604 11.0181C2.43035 10.3198 -0.595014 10.2238 0.103027 8.82764C0.650584 7.73253 1.19828 6.63723 3.93604 6.63721H7.22119ZM13.2446 6.63721C12.3375 6.63727 11.6022 7.37271 11.6021 8.27979C11.6021 9.18699 12.3374 9.9223 13.2446 9.92236C14.1519 9.92236 14.8872 9.18702 14.8872 8.27979C14.8871 7.37267 14.1518 6.63721 13.2446 6.63721Z" fill="#61B7D0"/>
</svg>
