<svg width="30" height="30" viewBox="0 0 30 30" fill="none" xmlns="http://www.w3.org/2000/svg">
<path d="M7.22119 6.51807C7.76875 3.23274 11.21 0.204248 15.9175 1.30908C21.6663 2.65853 21.6664 7.65857 21.1108 12.103C23.0436 11.4202 23.6949 12.5645 27.2222 9.88037C30.8116 7.14892 28.8889 13.2137 27.7778 14.8804C26.6668 16.5469 27.028 16.2116 26.6665 17.6577C26.1109 19.8799 24.4141 21.3933 22.7778 22.103C21.3223 22.7346 22.7776 25.4364 21.6665 27.103C20.6874 28.5715 20.0944 28.2788 15.9175 28.2788C12.0996 28.2788 6.45584 29.1066 5.55518 26.1489C5.16889 24.8805 5.00051 24.8801 5.00049 22.103C5.00049 19.8808 7.70569 17.4393 7.77783 14.3247C7.8031 13.2296 6.14463 11.9222 3.93604 10.8979C2.43033 10.1997 -0.595106 10.1038 0.103027 8.70752C0.650516 7.61255 1.19858 6.51807 3.93604 6.51807H7.22119ZM13.2446 6.51807C12.3374 6.51807 11.6011 7.25341 11.6011 8.16064C11.6013 9.06772 12.3375 9.80322 13.2446 9.80322C14.1515 9.80298 14.887 9.06757 14.8872 8.16064C14.8872 7.25355 14.1517 6.51831 13.2446 6.51807Z" fill="#7DD3FC"/>
</svg>
