<svg width="36" height="36" viewBox="0 0 36 36" fill="none" xmlns="http://www.w3.org/2000/svg">
<path d="M24 11.9998C23.8125 11.8123 23.5582 11.707 23.293 11.707C23.0278 11.707 22.7735 11.8123 22.586 11.9998L18 16.5858L13.414 11.9998C13.2265 11.8123 12.9722 11.707 12.707 11.707C12.4418 11.707 12.1875 11.8123 12 11.9998C11.8125 12.1873 11.7072 12.4417 11.7072 12.7068C11.7072 12.972 11.8125 13.2263 12 13.4138L16.586 17.9998L12 22.5858C11.8125 22.7733 11.7072 23.0277 11.7072 23.2928C11.7072 23.558 11.8125 23.8123 12 23.9998C12.1875 24.1873 12.4418 24.2926 12.707 24.2926C12.9722 24.2926 13.2265 24.1873 13.414 23.9998L18 19.4138L22.586 23.9998C22.7735 24.1873 23.0278 24.2926 23.293 24.2926C23.5582 24.2926 23.8125 24.1873 24 23.9998C24.1875 23.8123 24.2928 23.558 24.2928 23.2928C24.2928 23.0277 24.1875 22.7733 24 22.5858L19.414 17.9998L24 13.4138C24.1875 13.2263 24.2928 12.972 24.2928 12.7068C24.2928 12.4417 24.1875 12.1873 24 11.9998Z" fill="#202023"/>
</svg>
