<svg width="402" height="60" viewBox="0 0 402 60" fill="none" xmlns="http://www.w3.org/2000/svg">
<rect x="7" width="395" height="60" rx="10" fill="#14162B"/>
<path d="M83.5963 26.475H87.3963V36.85L85.6213 37.05C85.0046 37.05 84.513 36.8667 84.1463 36.5C83.7796 36.1333 83.5963 35.6417 83.5963 35.025V26.475ZM85.6213 37.05V33.95H93.4713C93.588 34.1167 93.688 34.3333 93.7713 34.6C93.8546 34.85 93.8963 35.1333 93.8963 35.45C93.8963 35.9833 93.7796 36.3833 93.5463 36.65C93.313 36.9167 92.988 37.05 92.5713 37.05H85.6213ZM87.3963 31.225H83.5963V21.8C83.763 21.7667 84.013 21.725 84.3463 21.675C84.6963 21.625 85.0296 21.6 85.3463 21.6C86.0796 21.6 86.6046 21.725 86.9213 21.975C87.238 22.225 87.3963 22.7 87.3963 23.4V31.225ZM99.6904 34.625C100.074 34.625 100.449 34.5917 100.815 34.525C101.199 34.4417 101.474 34.35 101.64 34.25V31.85L99.5404 32.05C98.9738 32.0833 98.5238 32.2 98.1904 32.4C97.8571 32.6 97.6904 32.9 97.6904 33.3C97.6904 33.7 97.8488 34.025 98.1654 34.275C98.4821 34.5083 98.9904 34.625 99.6904 34.625ZM99.5404 24.625C101.274 24.625 102.657 24.9917 103.69 25.725C104.724 26.4417 105.24 27.5583 105.24 29.075V34.75C105.24 35.1667 105.132 35.5083 104.915 35.775C104.699 36.025 104.424 36.2417 104.09 36.425C103.59 36.725 102.965 36.9583 102.215 37.125C101.482 37.3083 100.64 37.4 99.6904 37.4C97.9904 37.4 96.6321 37.0667 95.6154 36.4C94.6154 35.7333 94.1154 34.7417 94.1154 33.425C94.1154 32.2917 94.4654 31.425 95.1654 30.825C95.8654 30.2083 96.9071 29.8333 98.2904 29.7L101.615 29.35V29.05C101.615 28.4833 101.39 28.075 100.94 27.825C100.507 27.575 99.8821 27.45 99.0654 27.45C98.4321 27.45 97.8071 27.525 97.1904 27.675C96.5904 27.825 96.0488 28 95.5654 28.2C95.3654 28.0667 95.1904 27.8667 95.0404 27.6C94.9071 27.3167 94.8404 27.025 94.8404 26.725C94.8404 26.025 95.2238 25.5167 95.9904 25.2C96.4738 25 97.0321 24.8583 97.6654 24.775C98.3154 24.675 98.9404 24.625 99.5404 24.625ZM111.771 34.625C112.154 34.625 112.529 34.5917 112.896 34.525C113.279 34.4417 113.554 34.35 113.721 34.25V31.85L111.621 32.05C111.054 32.0833 110.604 32.2 110.271 32.4C109.937 32.6 109.771 32.9 109.771 33.3C109.771 33.7 109.929 34.025 110.246 34.275C110.562 34.5083 111.071 34.625 111.771 34.625ZM111.621 24.625C113.354 24.625 114.737 24.9917 115.771 25.725C116.804 26.4417 117.321 27.5583 117.321 29.075V34.75C117.321 35.1667 117.212 35.5083 116.996 35.775C116.779 36.025 116.504 36.2417 116.171 36.425C115.671 36.725 115.046 36.9583 114.296 37.125C113.562 37.3083 112.721 37.4 111.771 37.4C110.071 37.4 108.712 37.0667 107.696 36.4C106.696 35.7333 106.196 34.7417 106.196 33.425C106.196 32.2917 106.546 31.425 107.246 30.825C107.946 30.2083 108.987 29.8333 110.371 29.7L113.696 29.35V29.05C113.696 28.4833 113.471 28.075 113.021 27.825C112.587 27.575 111.962 27.45 111.146 27.45C110.512 27.45 109.887 27.525 109.271 27.675C108.671 27.825 108.129 28 107.646 28.2C107.446 28.0667 107.271 27.8667 107.121 27.6C106.987 27.3167 106.921 27.025 106.921 26.725C106.921 26.025 107.304 25.5167 108.071 25.2C108.554 25 109.112 24.8583 109.746 24.775C110.396 24.675 111.021 24.625 111.621 24.625ZM126.701 34.025V26.5H130.401V34.5C130.401 34.9 130.317 35.2417 130.151 35.525C129.984 35.7917 129.717 36.0333 129.351 36.25C128.901 36.55 128.309 36.8083 127.576 37.025C126.859 37.2583 126.026 37.375 125.076 37.375C123.692 37.375 122.492 37.1417 121.476 36.675C120.476 36.2083 119.701 35.5083 119.151 34.575C118.617 33.625 118.351 32.45 118.351 31.05C118.351 29.5833 118.626 28.3833 119.176 27.45C119.742 26.5 120.501 25.7917 121.451 25.325C122.401 24.8583 123.451 24.625 124.601 24.625C125.201 24.625 125.734 24.6917 126.201 24.825C126.667 24.9583 127.051 25.1167 127.351 25.3V28.35C127.117 28.15 126.809 27.9667 126.426 27.8C126.042 27.6333 125.601 27.55 125.101 27.55C124.517 27.55 124.001 27.675 123.551 27.925C123.101 28.175 122.751 28.5583 122.501 29.075C122.251 29.5917 122.126 30.25 122.126 31.05C122.126 32.2167 122.384 33.075 122.901 33.625C123.434 34.175 124.151 34.45 125.051 34.45C125.417 34.45 125.742 34.4083 126.026 34.325C126.309 34.225 126.534 34.125 126.701 34.025ZM130.401 27.225L126.701 27.25V20.725C126.851 20.675 127.076 20.625 127.376 20.575C127.676 20.525 128.001 20.5 128.351 20.5C129.084 20.5 129.609 20.625 129.926 20.875C130.242 21.125 130.401 21.5833 130.401 22.25V27.225ZM131.979 21.55C131.979 20.9833 132.171 20.5083 132.554 20.125C132.954 19.7417 133.454 19.55 134.054 19.55C134.671 19.55 135.171 19.7417 135.554 20.125C135.938 20.5083 136.129 20.9833 136.129 21.55C136.129 22.1 135.938 22.575 135.554 22.975C135.171 23.375 134.671 23.575 134.054 23.575C133.454 23.575 132.954 23.375 132.554 22.975C132.171 22.575 131.979 22.1 131.979 21.55ZM132.204 30.4H135.904V36.975C135.754 37.025 135.529 37.0667 135.229 37.1C134.929 37.15 134.604 37.175 134.254 37.175C133.538 37.175 133.013 37.05 132.679 36.8C132.363 36.55 132.204 36.1 132.204 35.45V30.4ZM135.904 32.325H132.204V25.15C132.354 25.1 132.579 25.05 132.879 25C133.196 24.95 133.529 24.925 133.879 24.925C134.596 24.925 135.113 25.05 135.429 25.3C135.746 25.5333 135.904 25.9917 135.904 26.675V32.325ZM146.346 34.625C146.729 34.625 147.104 34.5917 147.471 34.525C147.854 34.4417 148.129 34.35 148.296 34.25V31.85L146.196 32.05C145.629 32.0833 145.179 32.2 144.846 32.4C144.512 32.6 144.346 32.9 144.346 33.3C144.346 33.7 144.504 34.025 144.821 34.275C145.137 34.5083 145.646 34.625 146.346 34.625ZM146.196 24.625C147.929 24.625 149.312 24.9917 150.346 25.725C151.379 26.4417 151.896 27.5583 151.896 29.075V34.75C151.896 35.1667 151.787 35.5083 151.571 35.775C151.354 36.025 151.079 36.2417 150.746 36.425C150.246 36.725 149.621 36.9583 148.871 37.125C148.137 37.3083 147.296 37.4 146.346 37.4C144.646 37.4 143.287 37.0667 142.271 36.4C141.271 35.7333 140.771 34.7417 140.771 33.425C140.771 32.2917 141.121 31.425 141.821 30.825C142.521 30.2083 143.562 29.8333 144.946 29.7L148.271 29.35V29.05C148.271 28.4833 148.046 28.075 147.596 27.825C147.162 27.575 146.537 27.45 145.721 27.45C145.087 27.45 144.462 27.525 143.846 27.675C143.246 27.825 142.704 28 142.221 28.2C142.021 28.0667 141.846 27.8667 141.696 27.6C141.562 27.3167 141.496 27.025 141.496 26.725C141.496 26.025 141.879 25.5167 142.646 25.2C143.129 25 143.687 24.8583 144.321 24.775C144.971 24.675 145.596 24.625 146.196 24.625ZM153.626 30.4L157.351 30.475V36.975C157.184 37.025 156.951 37.0667 156.651 37.1C156.351 37.15 156.026 37.175 155.676 37.175C154.976 37.175 154.459 37.05 154.126 36.8C153.792 36.55 153.626 36.1 153.626 35.45V30.4ZM157.351 32.4L153.626 32.325V20.725C153.792 20.675 154.026 20.625 154.326 20.575C154.626 20.525 154.951 20.5 155.301 20.5C156.017 20.5 156.534 20.625 156.851 20.875C157.184 21.125 157.351 21.5833 157.351 22.25V32.4ZM159.285 30.4L163.01 30.475V36.975C162.843 37.025 162.61 37.0667 162.31 37.1C162.01 37.15 161.685 37.175 161.335 37.175C160.635 37.175 160.118 37.05 159.785 36.8C159.452 36.55 159.285 36.1 159.285 35.45V30.4ZM163.01 32.4L159.285 32.325V20.725C159.452 20.675 159.685 20.625 159.985 20.575C160.285 20.525 160.61 20.5 160.96 20.5C161.677 20.5 162.193 20.625 162.51 20.875C162.843 21.125 163.01 21.5833 163.01 22.25V32.4ZM169.72 34.625C170.103 34.625 170.478 34.5917 170.845 34.525C171.228 34.4417 171.503 34.35 171.67 34.25V31.85L169.57 32.05C169.003 32.0833 168.553 32.2 168.22 32.4C167.886 32.6 167.72 32.9 167.72 33.3C167.72 33.7 167.878 34.025 168.195 34.275C168.511 34.5083 169.02 34.625 169.72 34.625ZM169.57 24.625C171.303 24.625 172.686 24.9917 173.72 25.725C174.753 26.4417 175.27 27.5583 175.27 29.075V34.75C175.27 35.1667 175.161 35.5083 174.945 35.775C174.728 36.025 174.453 36.2417 174.12 36.425C173.62 36.725 172.995 36.9583 172.245 37.125C171.511 37.3083 170.67 37.4 169.72 37.4C168.02 37.4 166.661 37.0667 165.645 36.4C164.645 35.7333 164.145 34.7417 164.145 33.425C164.145 32.2917 164.495 31.425 165.195 30.825C165.895 30.2083 166.936 29.8333 168.32 29.7L171.645 29.35V29.05C171.645 28.4833 171.42 28.075 170.97 27.825C170.536 27.575 169.911 27.45 169.095 27.45C168.461 27.45 167.836 27.525 167.22 27.675C166.62 27.825 166.078 28 165.595 28.2C165.395 28.0667 165.22 27.8667 165.07 27.6C164.936 27.3167 164.87 27.025 164.87 26.725C164.87 26.025 165.253 25.5167 166.02 25.2C166.503 25 167.061 24.8583 167.695 24.775C168.345 24.675 168.97 24.625 169.57 24.625ZM194.255 29.525V34.725C194.255 35.1917 194.163 35.55 193.98 35.8C193.813 36.0333 193.53 36.2583 193.13 36.475C192.68 36.725 192.03 36.9417 191.18 37.125C190.33 37.325 189.48 37.425 188.63 37.425C187.03 37.425 185.588 37.15 184.305 36.6C183.038 36.0333 182.03 35.1667 181.28 34C180.546 32.8167 180.18 31.3 180.18 29.45C180.18 27.6833 180.555 26.2083 181.305 25.025C182.055 23.825 183.063 22.925 184.33 22.325C185.613 21.7083 187.03 21.4 188.58 21.4C189.613 21.4 190.505 21.5083 191.255 21.725C192.021 21.9417 192.605 22.2417 193.005 22.625C193.421 23.0083 193.63 23.45 193.63 23.95C193.63 24.3167 193.53 24.65 193.33 24.95C193.146 25.2333 192.921 25.45 192.655 25.6C192.238 25.3333 191.713 25.0833 191.08 24.85C190.446 24.6167 189.705 24.5 188.855 24.5C187.938 24.5 187.113 24.7 186.38 25.1C185.663 25.4833 185.105 26.05 184.705 26.8C184.305 27.5333 184.105 28.4083 184.105 29.425C184.105 30.525 184.296 31.4417 184.68 32.175C185.08 32.9083 185.621 33.4583 186.305 33.825C187.005 34.175 187.796 34.35 188.68 34.35C189.096 34.35 189.471 34.3083 189.805 34.225C190.155 34.1417 190.421 34.0583 190.605 33.975V31.05H187.68C187.58 30.8833 187.488 30.675 187.405 30.425C187.321 30.1583 187.28 29.875 187.28 29.575C187.28 29.0583 187.396 28.6833 187.63 28.45C187.88 28.2 188.205 28.075 188.605 28.075H192.805C193.255 28.075 193.605 28.2 193.855 28.45C194.121 28.7 194.255 29.0583 194.255 29.525ZM207.984 31C207.984 32.3 207.718 33.4333 207.184 34.4C206.668 35.35 205.934 36.0833 204.984 36.6C204.034 37.1167 202.918 37.375 201.634 37.375C200.368 37.375 199.251 37.125 198.284 36.625C197.334 36.1083 196.593 35.375 196.059 34.425C195.543 33.4583 195.284 32.3167 195.284 31C195.284 29.6833 195.551 28.5583 196.084 27.625C196.618 26.675 197.359 25.9417 198.309 25.425C199.276 24.8917 200.384 24.625 201.634 24.625C202.901 24.625 204.009 24.8917 204.959 25.425C205.909 25.9417 206.651 26.6833 207.184 27.65C207.718 28.6 207.984 29.7167 207.984 31ZM201.634 27.55C200.851 27.55 200.226 27.85 199.759 28.45C199.309 29.05 199.084 29.9 199.084 31C199.084 32.1167 199.309 32.975 199.759 33.575C200.209 34.1583 200.834 34.45 201.634 34.45C202.434 34.45 203.059 34.15 203.509 33.55C203.959 32.95 204.184 32.1 204.184 31C204.184 29.9167 203.959 29.075 203.509 28.475C203.059 27.8583 202.434 27.55 201.634 27.55ZM221.187 31C221.187 32.3 220.921 33.4333 220.387 34.4C219.871 35.35 219.137 36.0833 218.187 36.6C217.237 37.1167 216.121 37.375 214.837 37.375C213.571 37.375 212.454 37.125 211.487 36.625C210.537 36.1083 209.796 35.375 209.262 34.425C208.746 33.4583 208.487 32.3167 208.487 31C208.487 29.6833 208.754 28.5583 209.287 27.625C209.821 26.675 210.562 25.9417 211.512 25.425C212.479 24.8917 213.587 24.625 214.837 24.625C216.104 24.625 217.212 24.8917 218.162 25.425C219.112 25.9417 219.854 26.6833 220.387 27.65C220.921 28.6 221.187 29.7167 221.187 31ZM214.837 27.55C214.054 27.55 213.429 27.85 212.962 28.45C212.512 29.05 212.287 29.9 212.287 31C212.287 32.1167 212.512 32.975 212.962 33.575C213.412 34.1583 214.037 34.45 214.837 34.45C215.637 34.45 216.262 34.15 216.712 33.55C217.162 32.95 217.387 32.1 217.387 31C217.387 29.9167 217.162 29.075 216.712 28.475C216.262 27.8583 215.637 27.55 214.837 27.55ZM227.215 36.525C226.232 36.525 225.315 36.3417 224.465 35.975C223.632 35.5917 222.957 34.9667 222.44 34.1C221.94 33.2167 221.69 32.0667 221.69 30.65C221.69 29.3333 221.949 28.2333 222.465 27.35C222.999 26.45 223.74 25.775 224.69 25.325C225.64 24.8583 226.74 24.625 227.99 24.625C228.89 24.625 229.724 24.75 230.49 25C231.274 25.2333 231.882 25.4917 232.315 25.775C232.615 25.975 232.857 26.2167 233.04 26.5C233.224 26.7667 233.315 27.1083 233.315 27.525V35.375H229.74V27.95C229.557 27.85 229.332 27.7583 229.065 27.675C228.815 27.5917 228.499 27.55 228.115 27.55C227.315 27.55 226.657 27.8 226.14 28.3C225.64 28.8 225.39 29.5833 225.39 30.65C225.39 31.8167 225.624 32.625 226.09 33.075C226.574 33.5083 227.174 33.725 227.89 33.725C228.44 33.725 228.899 33.6333 229.265 33.45C229.632 33.25 229.949 33.0333 230.215 32.8L230.315 35.75C229.965 35.9667 229.54 36.15 229.04 36.3C228.54 36.45 227.932 36.525 227.215 36.525ZM229.815 36.875V34.55H233.315V36.975C233.315 38.1417 233.04 39.0917 232.49 39.825C231.957 40.5583 231.224 41.1 230.29 41.45C229.374 41.8 228.34 41.975 227.19 41.975C226.324 41.975 225.549 41.9 224.865 41.75C224.199 41.6 223.69 41.4083 223.34 41.175C222.774 40.8083 222.49 40.2917 222.49 39.625C222.49 39.275 222.557 38.9583 222.69 38.675C222.84 38.4083 223.015 38.2083 223.215 38.075C223.665 38.3417 224.199 38.5667 224.815 38.75C225.432 38.95 226.082 39.05 226.765 39.05C227.699 39.05 228.44 38.875 228.99 38.525C229.54 38.1917 229.815 37.6417 229.815 36.875ZM235.081 30.4L238.806 30.475V36.975C238.639 37.025 238.406 37.0667 238.106 37.1C237.806 37.15 237.481 37.175 237.131 37.175C236.431 37.175 235.914 37.05 235.581 36.8C235.248 36.55 235.081 36.1 235.081 35.45V30.4ZM238.806 32.4L235.081 32.325V20.725C235.248 20.675 235.481 20.625 235.781 20.575C236.081 20.525 236.406 20.5 236.756 20.5C237.473 20.5 237.989 20.625 238.306 20.875C238.639 21.125 238.806 21.5833 238.806 22.25V32.4ZM242.316 32.75L242.166 30.25L248.366 29.275C248.332 28.8083 248.132 28.375 247.766 27.975C247.399 27.575 246.857 27.375 246.141 27.375C245.391 27.375 244.766 27.6333 244.266 28.15C243.766 28.65 243.499 29.3667 243.466 30.3L243.591 32.025C243.741 32.9417 244.132 33.6 244.766 34C245.399 34.3833 246.149 34.575 247.016 34.575C247.716 34.575 248.374 34.475 248.991 34.275C249.607 34.075 250.107 33.8667 250.491 33.65C250.741 33.8 250.941 34.0083 251.091 34.275C251.257 34.5417 251.341 34.825 251.341 35.125C251.341 35.625 251.141 36.0417 250.741 36.375C250.357 36.7083 249.816 36.9583 249.116 37.125C248.432 37.2917 247.649 37.375 246.766 37.375C245.482 37.375 244.324 37.1333 243.291 36.65C242.274 36.1667 241.474 35.4417 240.891 34.475C240.307 33.5083 240.016 32.3 240.016 30.85C240.016 29.7833 240.182 28.8583 240.516 28.075C240.866 27.2917 241.324 26.65 241.891 26.15C242.474 25.6333 243.124 25.25 243.841 25C244.574 24.75 245.332 24.625 246.116 24.625C247.266 24.625 248.266 24.8583 249.116 25.325C249.982 25.775 250.657 26.3917 251.141 27.175C251.624 27.9583 251.866 28.8667 251.866 29.9C251.866 30.4167 251.724 30.8083 251.441 31.075C251.157 31.3417 250.766 31.5083 250.266 31.575L242.316 32.75ZM260.745 29.125H262.245C263.095 29.125 263.762 28.925 264.245 28.525C264.745 28.125 264.995 27.55 264.995 26.8C264.995 26.05 264.762 25.4833 264.295 25.1C263.829 24.7167 263.154 24.525 262.27 24.525C261.97 24.525 261.695 24.5333 261.445 24.55C261.212 24.5667 260.979 24.5917 260.745 24.625V29.125ZM262.495 32.125H256.97V23.175C256.97 22.8583 257.062 22.6083 257.245 22.425C257.429 22.2417 257.67 22.1 257.97 22C258.52 21.8 259.179 21.6583 259.945 21.575C260.712 21.4917 261.404 21.45 262.02 21.45C264.27 21.45 265.97 21.9333 267.12 22.9C268.287 23.85 268.87 25.15 268.87 26.8C268.87 27.8667 268.612 28.8 268.095 29.6C267.595 30.4 266.87 31.025 265.92 31.475C264.97 31.9083 263.829 32.125 262.495 32.125ZM256.97 30.45H260.77V36.975C260.62 37.025 260.379 37.0667 260.045 37.1C259.712 37.15 259.37 37.175 259.02 37.175C258.27 37.175 257.737 37.0417 257.42 36.775C257.12 36.5083 256.97 36.0417 256.97 35.375V30.45ZM269.973 30.4L273.698 30.475V36.975C273.532 37.025 273.298 37.0667 272.998 37.1C272.698 37.15 272.373 37.175 272.023 37.175C271.323 37.175 270.807 37.05 270.473 36.8C270.14 36.55 269.973 36.1 269.973 35.45V30.4ZM273.698 32.4L269.973 32.325V20.725C270.14 20.675 270.373 20.625 270.673 20.575C270.973 20.525 271.298 20.5 271.648 20.5C272.365 20.5 272.882 20.625 273.198 20.875C273.532 21.125 273.698 21.5833 273.698 22.25V32.4ZM280.408 34.625C280.792 34.625 281.167 34.5917 281.533 34.525C281.917 34.4417 282.192 34.35 282.358 34.25V31.85L280.258 32.05C279.692 32.0833 279.242 32.2 278.908 32.4C278.575 32.6 278.408 32.9 278.408 33.3C278.408 33.7 278.567 34.025 278.883 34.275C279.2 34.5083 279.708 34.625 280.408 34.625ZM280.258 24.625C281.992 24.625 283.375 24.9917 284.408 25.725C285.442 26.4417 285.958 27.5583 285.958 29.075V34.75C285.958 35.1667 285.85 35.5083 285.633 35.775C285.417 36.025 285.142 36.2417 284.808 36.425C284.308 36.725 283.683 36.9583 282.933 37.125C282.2 37.3083 281.358 37.4 280.408 37.4C278.708 37.4 277.35 37.0667 276.333 36.4C275.333 35.7333 274.833 34.7417 274.833 33.425C274.833 32.2917 275.183 31.425 275.883 30.825C276.583 30.2083 277.625 29.8333 279.008 29.7L282.333 29.35V29.05C282.333 28.4833 282.108 28.075 281.658 27.825C281.225 27.575 280.6 27.45 279.783 27.45C279.15 27.45 278.525 27.525 277.908 27.675C277.308 27.825 276.767 28 276.283 28.2C276.083 28.0667 275.908 27.8667 275.758 27.6C275.625 27.3167 275.558 27.025 275.558 26.725C275.558 26.025 275.942 25.5167 276.708 25.2C277.192 25 277.75 24.8583 278.383 24.775C279.033 24.675 279.658 24.625 280.258 24.625ZM289.27 34.025C289.004 33.475 288.712 32.8083 288.395 32.025C288.095 31.2417 287.779 30.3167 287.445 29.25C287.112 28.1833 286.754 26.95 286.37 25.55C286.587 25.3333 286.862 25.15 287.195 25C287.545 24.8333 287.92 24.75 288.32 24.75C288.837 24.75 289.262 24.8583 289.595 25.075C289.929 25.2917 290.179 25.7 290.345 26.3C290.729 27.5167 291.112 28.725 291.495 29.925C291.879 31.125 292.27 32.3333 292.67 33.55H292.77C293.054 32.8 293.337 31.95 293.62 31C293.92 30.05 294.195 29.075 294.445 28.075C294.695 27.0583 294.912 26.0833 295.095 25.15C295.329 25.0333 295.579 24.9417 295.845 24.875C296.112 24.7917 296.387 24.75 296.67 24.75C297.187 24.75 297.629 24.8667 297.995 25.1C298.379 25.3167 298.57 25.6917 298.57 26.225C298.57 26.6917 298.495 27.2667 298.345 27.95C298.212 28.6333 298.029 29.375 297.795 30.175C297.562 30.9583 297.287 31.7667 296.97 32.6C296.654 33.4167 296.32 34.2083 295.97 34.975C295.637 35.7417 295.295 36.4333 294.945 37.05C294.045 38.6167 293.212 39.7833 292.445 40.55C291.695 41.3333 290.945 41.725 290.195 41.725C289.595 41.725 289.095 41.5417 288.695 41.175C288.312 40.8083 288.079 40.3417 287.995 39.775C288.362 39.475 288.737 39.125 289.12 38.725C289.504 38.3417 289.87 37.925 290.22 37.475C290.57 37.0417 290.879 36.6083 291.145 36.175C290.862 36.0917 290.57 35.9083 290.27 35.625C289.97 35.3417 289.637 34.8083 289.27 34.025ZM301.519 26.975C301.352 27.225 301.161 27.4167 300.944 27.55C300.727 27.6833 300.444 27.75 300.094 27.75C299.811 27.75 299.552 27.725 299.319 27.675C299.086 27.6083 298.861 27.5167 298.644 27.4C298.711 26.8 298.777 26.1583 298.844 25.475C298.911 24.7917 298.969 24.1167 299.019 23.45C299.069 22.7833 299.111 22.175 299.144 21.625C299.344 21.5083 299.602 21.4083 299.919 21.325C300.252 21.225 300.569 21.175 300.869 21.175C301.352 21.175 301.777 21.2833 302.144 21.5C302.527 21.7 302.719 22.075 302.719 22.625C302.719 23.025 302.661 23.5083 302.544 24.075C302.444 24.6417 302.302 25.1833 302.119 25.7C301.936 26.2167 301.736 26.6417 301.519 26.975ZM312.318 33.5C312.318 34.7167 311.859 35.675 310.943 36.375C310.026 37.0583 308.693 37.4 306.943 37.4C305.576 37.4 304.451 37.2 303.568 36.8C302.684 36.4 302.243 35.8083 302.243 35.025C302.243 34.675 302.318 34.375 302.468 34.125C302.618 33.8583 302.809 33.65 303.043 33.5C303.509 33.7667 304.051 34.0167 304.668 34.25C305.301 34.4667 306.018 34.575 306.818 34.575C308.034 34.575 308.643 34.225 308.643 33.525C308.643 33.225 308.534 32.9917 308.318 32.825C308.101 32.6417 307.743 32.5083 307.243 32.425L306.193 32.175C304.859 31.8917 303.859 31.4583 303.193 30.875C302.543 30.275 302.218 29.4583 302.218 28.425C302.218 27.2583 302.684 26.3333 303.618 25.65C304.568 24.95 305.843 24.6 307.443 24.6C308.243 24.6 308.968 24.6833 309.618 24.85C310.284 25 310.809 25.2417 311.193 25.575C311.576 25.8917 311.768 26.2917 311.768 26.775C311.768 27.1083 311.701 27.4 311.568 27.65C311.434 27.9 311.259 28.1083 311.043 28.275C310.859 28.1583 310.576 28.0333 310.193 27.9C309.826 27.7667 309.418 27.6583 308.968 27.575C308.534 27.4917 308.126 27.45 307.743 27.45C307.143 27.45 306.676 27.5333 306.343 27.7C306.009 27.85 305.843 28.0917 305.843 28.425C305.843 28.6417 305.934 28.8333 306.118 29C306.318 29.15 306.659 29.275 307.143 29.375L308.143 29.625C309.626 29.9583 310.693 30.4417 311.343 31.075C311.993 31.6917 312.318 32.5 312.318 33.5Z" fill="#F8F6EE"/>
<path d="M334.781 29.8203L322.117 43.8168C322.118 43.8193 322.118 43.823 322.119 43.8255C322.508 45.3453 323.84 46.4638 325.422 46.4638C326.055 46.4638 326.649 46.2854 327.158 45.9733L327.198 45.9485L341.453 37.3834L334.781 29.8203Z" fill="#EA4335"/>
<path d="M347.593 27.4382L347.581 27.4296L341.426 23.7148L334.493 30.1396L341.451 37.3832L347.572 33.7057C348.645 33.1012 349.374 31.9233 349.374 30.5657C349.374 29.2156 348.656 28.0439 347.593 27.4382Z" fill="#FBBC04"/>
<path d="M322.117 17.2529C322.04 17.5452 322 17.8524 322 18.1695V42.9024C322 43.2196 322.04 43.5267 322.118 43.8178L335.216 30.1792L322.117 17.2529Z" fill="#4285F4"/>
<path d="M334.875 30.5352L341.429 23.7117L327.191 15.1155C326.673 14.7922 326.069 14.6064 325.423 14.6064C323.841 14.6064 322.506 15.7274 322.118 17.2484L322.116 17.2522L334.875 30.5352Z" fill="#34A853"/>
</svg>
