<svg width="410" height="60" viewBox="0 0 410 60" fill="none" xmlns="http://www.w3.org/2000/svg">
<rect x="15" width="395" height="60" rx="10" fill="#14162B"/>
<path d="M68.4127 29.425C68.4127 28.3083 68.221 27.3917 67.8377 26.675C67.471 25.9583 66.9544 25.425 66.2877 25.075C65.6377 24.7083 64.8794 24.525 64.0127 24.525C63.7127 24.525 63.421 24.5417 63.1377 24.575C62.871 24.5917 62.596 24.6167 62.3127 24.65V34.125C62.5627 34.175 62.846 34.2167 63.1627 34.25C63.4794 34.2667 63.7794 34.275 64.0627 34.275C65.3794 34.275 66.4294 33.8667 67.2127 33.05C68.0127 32.2333 68.4127 31.025 68.4127 29.425ZM72.3377 29.35C72.3377 31.15 71.9877 32.6417 71.2877 33.825C70.6044 35.0083 69.6377 35.9 68.3877 36.5C67.1544 37.0833 65.7044 37.375 64.0377 37.375C63.4877 37.375 62.8127 37.3333 62.0127 37.25C61.2127 37.1833 60.4877 37.0333 59.8377 36.8C58.971 36.4833 58.5377 35.925 58.5377 35.125V23.175C58.5377 22.8417 58.6294 22.5917 58.8127 22.425C58.996 22.2417 59.2377 22.0917 59.5377 21.975C60.2044 21.7583 60.921 21.6167 61.6877 21.55C62.4544 21.4833 63.1544 21.45 63.7877 21.45C65.5044 21.45 66.996 21.7417 68.2627 22.325C69.546 22.8917 70.546 23.7583 71.2627 24.925C71.9794 26.0917 72.3377 27.5667 72.3377 29.35ZM85.6648 31C85.6648 32.3 85.3982 33.4333 84.8648 34.4C84.3482 35.35 83.6148 36.0833 82.6648 36.6C81.7148 37.1167 80.5982 37.375 79.3148 37.375C78.0482 37.375 76.9315 37.125 75.9648 36.625C75.0148 36.1083 74.2732 35.375 73.7398 34.425C73.2232 33.4583 72.9648 32.3167 72.9648 31C72.9648 29.6833 73.2315 28.5583 73.7648 27.625C74.2982 26.675 75.0398 25.9417 75.9898 25.425C76.9565 24.8917 78.0648 24.625 79.3148 24.625C80.5815 24.625 81.6898 24.8917 82.6398 25.425C83.5898 25.9417 84.3315 26.6833 84.8648 27.65C85.3982 28.6 85.6648 29.7167 85.6648 31ZM79.3148 27.55C78.5315 27.55 77.9065 27.85 77.4398 28.45C76.9898 29.05 76.7648 29.9 76.7648 31C76.7648 32.1167 76.9898 32.975 77.4398 33.575C77.8898 34.1583 78.5148 34.45 79.3148 34.45C80.1148 34.45 80.7398 34.15 81.1898 33.55C81.6398 32.95 81.8648 32.1 81.8648 31C81.8648 29.9167 81.6398 29.075 81.1898 28.475C80.7398 27.8583 80.1148 27.55 79.3148 27.55ZM94.9465 29.75C94.7632 30.5833 94.5382 31.4417 94.2715 32.325C94.0048 33.2083 93.7465 34.0333 93.4965 34.8C93.2632 35.5667 93.0715 36.1833 92.9215 36.65C92.7215 36.8167 92.4465 36.95 92.0965 37.05C91.7465 37.1667 91.3298 37.225 90.8465 37.225C90.2798 37.225 89.7715 37.1417 89.3215 36.975C88.8882 36.8083 88.5965 36.5667 88.4465 36.25C88.2965 35.9167 88.1215 35.4417 87.9215 34.825C87.7382 34.2083 87.5465 33.5083 87.3465 32.725C87.1465 31.925 86.9465 31.0917 86.7465 30.225C86.5632 29.3583 86.3882 28.525 86.2215 27.725C86.0548 26.9083 85.9215 26.175 85.8215 25.525C86.0215 25.325 86.2882 25.15 86.6215 25C86.9715 24.8333 87.3548 24.75 87.7715 24.75C88.2882 24.75 88.7048 24.875 89.0215 25.125C89.3548 25.3583 89.5548 25.7583 89.6215 26.325C89.7882 27.4583 89.9382 28.45 90.0715 29.3C90.2048 30.1333 90.3215 30.85 90.4215 31.45C90.5382 32.05 90.6298 32.5417 90.6965 32.925C90.7798 33.2917 90.8465 33.5833 90.8965 33.8H90.9965C91.0965 33.4167 91.2465 32.8333 91.4465 32.05C91.6465 31.25 91.8882 30.3417 92.1715 29.325C92.4548 28.2917 92.7382 27.25 93.0215 26.2C93.3048 26.0333 93.5965 25.9083 93.8965 25.825C94.1965 25.7417 94.5465 25.7 94.9465 25.7C95.4632 25.7 95.9048 25.7833 96.2715 25.95C96.6382 26.1167 96.8715 26.3667 96.9715 26.7C97.2715 27.7167 97.5465 28.7 97.7965 29.65C98.0632 30.6 98.2965 31.4417 98.4965 32.175C98.6965 32.8917 98.8382 33.4333 98.9215 33.8H99.0465C99.2798 32.4667 99.5132 31.0667 99.7465 29.6C99.9798 28.1333 100.188 26.6667 100.371 25.2C100.888 24.9 101.455 24.75 102.071 24.75C102.588 24.75 103.005 24.8667 103.321 25.1C103.655 25.3167 103.821 25.6917 103.821 26.225C103.821 26.475 103.78 26.8583 103.696 27.375C103.613 27.8917 103.496 28.4917 103.346 29.175C103.196 29.8417 103.03 30.55 102.846 31.3C102.663 32.05 102.471 32.775 102.271 33.475C102.088 34.175 101.913 34.8 101.746 35.35C101.58 35.9 101.43 36.3333 101.296 36.65C101.113 36.8167 100.813 36.95 100.396 37.05C99.9798 37.1667 99.5298 37.225 99.0465 37.225C97.8132 37.225 97.0882 36.925 96.8715 36.325C96.7215 35.875 96.5215 35.2917 96.2715 34.575C96.0382 33.8583 95.8048 33.0833 95.5715 32.25C95.3382 31.4 95.1298 30.5667 94.9465 29.75ZM116.231 29.225V31.575H112.506V29.35C112.506 28.7333 112.322 28.2833 111.956 28C111.606 27.7 111.139 27.55 110.556 27.55C110.139 27.55 109.756 27.6083 109.406 27.725C109.056 27.825 108.739 27.95 108.456 28.1V31.575H104.756V27.675C104.756 27.2583 104.839 26.9167 105.006 26.65C105.189 26.3667 105.447 26.1167 105.781 25.9C106.314 25.5333 106.997 25.2333 107.831 25C108.664 24.75 109.581 24.625 110.581 24.625C112.381 24.625 113.772 25.025 114.756 25.825C115.739 26.6083 116.231 27.7417 116.231 29.225ZM104.756 30.425H108.456V36.975C108.289 37.025 108.056 37.0667 107.756 37.1C107.456 37.15 107.131 37.175 106.781 37.175C106.081 37.175 105.564 37.05 105.231 36.8C104.914 36.55 104.756 36.1 104.756 35.45V30.425ZM112.506 30.425H116.231V36.975C116.064 37.025 115.831 37.0667 115.531 37.1C115.231 37.15 114.906 37.175 114.556 37.175C113.856 37.175 113.339 37.05 113.006 36.8C112.672 36.55 112.506 36.1 112.506 35.45V30.425ZM118.011 30.4L121.736 30.475V36.975C121.569 37.025 121.336 37.0667 121.036 37.1C120.736 37.15 120.411 37.175 120.061 37.175C119.361 37.175 118.844 37.05 118.511 36.8C118.177 36.55 118.011 36.1 118.011 35.45V30.4ZM121.736 32.4L118.011 32.325V20.725C118.177 20.675 118.411 20.625 118.711 20.575C119.011 20.525 119.336 20.5 119.686 20.5C120.402 20.5 120.919 20.625 121.236 20.875C121.569 21.125 121.736 21.5833 121.736 22.25V32.4ZM135.645 31C135.645 32.3 135.379 33.4333 134.845 34.4C134.329 35.35 133.595 36.0833 132.645 36.6C131.695 37.1167 130.579 37.375 129.295 37.375C128.029 37.375 126.912 37.125 125.945 36.625C124.995 36.1083 124.254 35.375 123.72 34.425C123.204 33.4583 122.945 32.3167 122.945 31C122.945 29.6833 123.212 28.5583 123.745 27.625C124.279 26.675 125.02 25.9417 125.97 25.425C126.937 24.8917 128.045 24.625 129.295 24.625C130.562 24.625 131.67 24.8917 132.62 25.425C133.57 25.9417 134.312 26.6833 134.845 27.65C135.379 28.6 135.645 29.7167 135.645 31ZM129.295 27.55C128.512 27.55 127.887 27.85 127.42 28.45C126.97 29.05 126.745 29.9 126.745 31C126.745 32.1167 126.97 32.975 127.42 33.575C127.87 34.1583 128.495 34.45 129.295 34.45C130.095 34.45 130.72 34.15 131.17 33.55C131.62 32.95 131.845 32.1 131.845 31C131.845 29.9167 131.62 29.075 131.17 28.475C130.72 27.8583 130.095 27.55 129.295 27.55ZM141.697 34.625C142.081 34.625 142.456 34.5917 142.822 34.525C143.206 34.4417 143.481 34.35 143.647 34.25V31.85L141.547 32.05C140.981 32.0833 140.531 32.2 140.197 32.4C139.864 32.6 139.697 32.9 139.697 33.3C139.697 33.7 139.856 34.025 140.172 34.275C140.489 34.5083 140.997 34.625 141.697 34.625ZM141.547 24.625C143.281 24.625 144.664 24.9917 145.697 25.725C146.731 26.4417 147.247 27.5583 147.247 29.075V34.75C147.247 35.1667 147.139 35.5083 146.922 35.775C146.706 36.025 146.431 36.2417 146.097 36.425C145.597 36.725 144.972 36.9583 144.222 37.125C143.489 37.3083 142.647 37.4 141.697 37.4C139.997 37.4 138.639 37.0667 137.622 36.4C136.622 35.7333 136.122 34.7417 136.122 33.425C136.122 32.2917 136.472 31.425 137.172 30.825C137.872 30.2083 138.914 29.8333 140.297 29.7L143.622 29.35V29.05C143.622 28.4833 143.397 28.075 142.947 27.825C142.514 27.575 141.889 27.45 141.072 27.45C140.439 27.45 139.814 27.525 139.197 27.675C138.597 27.825 138.056 28 137.572 28.2C137.372 28.0667 137.197 27.8667 137.047 27.6C136.914 27.3167 136.847 27.025 136.847 26.725C136.847 26.025 137.231 25.5167 137.997 25.2C138.481 25 139.039 24.8583 139.672 24.775C140.322 24.675 140.947 24.625 141.547 24.625ZM156.627 34.025V26.5H160.327V34.5C160.327 34.9 160.244 35.2417 160.077 35.525C159.911 35.7917 159.644 36.0333 159.277 36.25C158.827 36.55 158.236 36.8083 157.502 37.025C156.786 37.2583 155.952 37.375 155.002 37.375C153.619 37.375 152.419 37.1417 151.402 36.675C150.402 36.2083 149.627 35.5083 149.077 34.575C148.544 33.625 148.277 32.45 148.277 31.05C148.277 29.5833 148.552 28.3833 149.102 27.45C149.669 26.5 150.427 25.7917 151.377 25.325C152.327 24.8583 153.377 24.625 154.527 24.625C155.127 24.625 155.661 24.6917 156.127 24.825C156.594 24.9583 156.977 25.1167 157.277 25.3V28.35C157.044 28.15 156.736 27.9667 156.352 27.8C155.969 27.6333 155.527 27.55 155.027 27.55C154.444 27.55 153.927 27.675 153.477 27.925C153.027 28.175 152.677 28.5583 152.427 29.075C152.177 29.5917 152.052 30.25 152.052 31.05C152.052 32.2167 152.311 33.075 152.827 33.625C153.361 34.175 154.077 34.45 154.977 34.45C155.344 34.45 155.669 34.4083 155.952 34.325C156.236 34.225 156.461 34.125 156.627 34.025ZM160.327 27.225L156.627 27.25V20.725C156.777 20.675 157.002 20.625 157.302 20.575C157.602 20.525 157.927 20.5 158.277 20.5C159.011 20.5 159.536 20.625 159.852 20.875C160.169 21.125 160.327 21.5833 160.327 22.25V27.225ZM168.786 28.725V25.875H173.661C173.744 26.0083 173.828 26.2 173.911 26.45C173.994 26.7 174.036 26.975 174.036 27.275C174.036 27.7917 173.919 28.1667 173.686 28.4C173.469 28.6167 173.161 28.725 172.761 28.725H168.786ZM169.361 24.875V28.275H165.836V24.75C165.836 23.65 166.061 22.7583 166.511 22.075C166.978 21.3917 167.611 20.8917 168.411 20.575C169.228 20.2417 170.128 20.075 171.111 20.075C172.278 20.075 173.144 20.2333 173.711 20.55C174.294 20.85 174.586 21.3417 174.586 22.025C174.586 22.325 174.519 22.5917 174.386 22.825C174.269 23.0583 174.136 23.2417 173.986 23.375C173.669 23.275 173.328 23.1917 172.961 23.125C172.594 23.0583 172.186 23.025 171.736 23.025C170.953 23.025 170.361 23.1667 169.961 23.45C169.561 23.7333 169.361 24.2083 169.361 24.875ZM165.836 27.55H169.536V36.975C169.369 37.025 169.136 37.0667 168.836 37.1C168.536 37.15 168.211 37.175 167.861 37.175C167.161 37.175 166.644 37.05 166.311 36.8C165.994 36.55 165.836 36.1 165.836 35.45V27.55ZM178.197 28.225V31.35H174.497V27.775C174.497 27.3083 174.605 26.9167 174.822 26.6C175.055 26.2667 175.372 25.975 175.772 25.725C176.322 25.3917 176.98 25.1333 177.747 24.95C178.53 24.75 179.347 24.65 180.197 24.65C181.897 24.65 182.747 25.2167 182.747 26.35C182.747 26.6167 182.705 26.8667 182.622 27.1C182.555 27.3333 182.472 27.5333 182.372 27.7C182.205 27.6667 181.997 27.6417 181.747 27.625C181.514 27.5917 181.255 27.575 180.972 27.575C180.472 27.575 179.972 27.6333 179.472 27.75C178.972 27.8667 178.547 28.025 178.197 28.225ZM174.497 30.4L178.197 30.475V36.975C178.03 37.025 177.797 37.0667 177.497 37.1C177.197 37.15 176.872 37.175 176.522 37.175C175.822 37.175 175.305 37.05 174.972 36.8C174.655 36.55 174.497 36.1 174.497 35.45V30.4ZM195.064 31C195.064 32.3 194.798 33.4333 194.264 34.4C193.748 35.35 193.014 36.0833 192.064 36.6C191.114 37.1167 189.998 37.375 188.714 37.375C187.448 37.375 186.331 37.125 185.364 36.625C184.414 36.1083 183.673 35.375 183.139 34.425C182.623 33.4583 182.364 32.3167 182.364 31C182.364 29.6833 182.631 28.5583 183.164 27.625C183.698 26.675 184.439 25.9417 185.389 25.425C186.356 24.8917 187.464 24.625 188.714 24.625C189.981 24.625 191.089 24.8917 192.039 25.425C192.989 25.9417 193.731 26.6833 194.264 27.65C194.798 28.6 195.064 29.7167 195.064 31ZM188.714 27.55C187.931 27.55 187.306 27.85 186.839 28.45C186.389 29.05 186.164 29.9 186.164 31C186.164 32.1167 186.389 32.975 186.839 33.575C187.289 34.1583 187.914 34.45 188.714 34.45C189.514 34.45 190.139 34.15 190.589 33.55C191.039 32.95 191.264 32.1 191.264 31C191.264 29.9167 191.039 29.075 190.589 28.475C190.139 27.8583 189.514 27.55 188.714 27.55ZM207.042 28.725V31.575H203.317V29.2C203.317 28.6333 203.151 28.2167 202.817 27.95C202.484 27.6833 202.067 27.55 201.567 27.55C201.201 27.55 200.867 27.6083 200.567 27.725C200.284 27.825 200.042 27.9333 199.842 28.05V31.575H196.142V27.675C196.142 27.2583 196.226 26.9167 196.392 26.65C196.576 26.3667 196.834 26.1167 197.167 25.9C197.717 25.5167 198.392 25.2083 199.192 24.975C199.992 24.7417 200.826 24.625 201.692 24.625C202.492 24.625 203.242 24.75 203.942 25C204.642 25.25 205.251 25.6333 205.767 26.15C205.901 26.25 206.026 26.3583 206.142 26.475C206.276 26.575 206.376 26.6917 206.442 26.825C206.609 27.0917 206.751 27.3917 206.867 27.725C206.984 28.0583 207.042 28.3917 207.042 28.725ZM214.217 29.1V31.575H210.517V29.2C210.517 28.6333 210.359 28.2167 210.042 27.95C209.726 27.6833 209.309 27.55 208.792 27.55C208.409 27.55 208.042 27.6333 207.692 27.8C207.359 27.95 207.067 28.1333 206.817 28.35L204.867 26.2C205.417 25.7667 206.042 25.4 206.742 25.1C207.442 24.7833 208.301 24.625 209.317 24.625C210.184 24.625 210.992 24.775 211.742 25.075C212.492 25.375 213.092 25.85 213.542 26.5C213.992 27.15 214.217 28.0167 214.217 29.1ZM196.142 30.425H199.842V36.975C199.676 37.025 199.442 37.0667 199.142 37.1C198.842 37.15 198.517 37.175 198.167 37.175C197.467 37.175 196.951 37.05 196.617 36.8C196.301 36.55 196.142 36.1 196.142 35.45V30.425ZM203.317 30.425H207.042V36.975C206.876 37.025 206.642 37.0667 206.342 37.1C206.042 37.15 205.717 37.175 205.367 37.175C204.651 37.175 204.126 37.05 203.792 36.8C203.476 36.55 203.317 36.1 203.317 35.45V30.425ZM210.517 30.425H214.217V36.975C214.067 37.025 213.842 37.0667 213.542 37.1C213.242 37.15 212.917 37.175 212.567 37.175C211.851 37.175 211.326 37.05 210.992 36.8C210.676 36.55 210.517 36.1 210.517 35.45V30.425ZM233.268 29.525V34.725C233.268 35.1917 233.177 35.55 232.993 35.8C232.827 36.0333 232.543 36.2583 232.143 36.475C231.693 36.725 231.043 36.9417 230.193 37.125C229.343 37.325 228.493 37.425 227.643 37.425C226.043 37.425 224.602 37.15 223.318 36.6C222.052 36.0333 221.043 35.1667 220.293 34C219.56 32.8167 219.193 31.3 219.193 29.45C219.193 27.6833 219.568 26.2083 220.318 25.025C221.068 23.825 222.077 22.925 223.343 22.325C224.627 21.7083 226.043 21.4 227.593 21.4C228.627 21.4 229.518 21.5083 230.268 21.725C231.035 21.9417 231.618 22.2417 232.018 22.625C232.435 23.0083 232.643 23.45 232.643 23.95C232.643 24.3167 232.543 24.65 232.343 24.95C232.16 25.2333 231.935 25.45 231.668 25.6C231.252 25.3333 230.727 25.0833 230.093 24.85C229.46 24.6167 228.718 24.5 227.868 24.5C226.952 24.5 226.127 24.7 225.393 25.1C224.677 25.4833 224.118 26.05 223.718 26.8C223.318 27.5333 223.118 28.4083 223.118 29.425C223.118 30.525 223.31 31.4417 223.693 32.175C224.093 32.9083 224.635 33.4583 225.318 33.825C226.018 34.175 226.81 34.35 227.693 34.35C228.11 34.35 228.485 34.3083 228.818 34.225C229.168 34.1417 229.435 34.0583 229.618 33.975V31.05H226.693C226.593 30.8833 226.502 30.675 226.418 30.425C226.335 30.1583 226.293 29.875 226.293 29.575C226.293 29.0583 226.41 28.6833 226.643 28.45C226.893 28.2 227.218 28.075 227.618 28.075H231.818C232.268 28.075 232.618 28.2 232.868 28.45C233.135 28.7 233.268 29.0583 233.268 29.525ZM246.998 31C246.998 32.3 246.731 33.4333 246.198 34.4C245.681 35.35 244.948 36.0833 243.998 36.6C243.048 37.1167 241.931 37.375 240.648 37.375C239.381 37.375 238.265 37.125 237.298 36.625C236.348 36.1083 235.606 35.375 235.073 34.425C234.556 33.4583 234.298 32.3167 234.298 31C234.298 29.6833 234.565 28.5583 235.098 27.625C235.631 26.675 236.373 25.9417 237.323 25.425C238.29 24.8917 239.398 24.625 240.648 24.625C241.915 24.625 243.023 24.8917 243.973 25.425C244.923 25.9417 245.665 26.6833 246.198 27.65C246.731 28.6 246.998 29.7167 246.998 31ZM240.648 27.55C239.865 27.55 239.24 27.85 238.773 28.45C238.323 29.05 238.098 29.9 238.098 31C238.098 32.1167 238.323 32.975 238.773 33.575C239.223 34.1583 239.848 34.45 240.648 34.45C241.448 34.45 242.073 34.15 242.523 33.55C242.973 32.95 243.198 32.1 243.198 31C243.198 29.9167 242.973 29.075 242.523 28.475C242.073 27.8583 241.448 27.55 240.648 27.55ZM260.201 31C260.201 32.3 259.934 33.4333 259.401 34.4C258.884 35.35 258.151 36.0833 257.201 36.6C256.251 37.1167 255.134 37.375 253.851 37.375C252.584 37.375 251.468 37.125 250.501 36.625C249.551 36.1083 248.809 35.375 248.276 34.425C247.759 33.4583 247.501 32.3167 247.501 31C247.501 29.6833 247.768 28.5583 248.301 27.625C248.834 26.675 249.576 25.9417 250.526 25.425C251.493 24.8917 252.601 24.625 253.851 24.625C255.118 24.625 256.226 24.8917 257.176 25.425C258.126 25.9417 258.868 26.6833 259.401 27.65C259.934 28.6 260.201 29.7167 260.201 31ZM253.851 27.55C253.068 27.55 252.443 27.85 251.976 28.45C251.526 29.05 251.301 29.9 251.301 31C251.301 32.1167 251.526 32.975 251.976 33.575C252.426 34.1583 253.051 34.45 253.851 34.45C254.651 34.45 255.276 34.15 255.726 33.55C256.176 32.95 256.401 32.1 256.401 31C256.401 29.9167 256.176 29.075 255.726 28.475C255.276 27.8583 254.651 27.55 253.851 27.55ZM266.229 36.525C265.246 36.525 264.329 36.3417 263.479 35.975C262.646 35.5917 261.971 34.9667 261.454 34.1C260.954 33.2167 260.704 32.0667 260.704 30.65C260.704 29.3333 260.962 28.2333 261.479 27.35C262.012 26.45 262.754 25.775 263.704 25.325C264.654 24.8583 265.754 24.625 267.004 24.625C267.904 24.625 268.737 24.75 269.504 25C270.287 25.2333 270.896 25.4917 271.329 25.775C271.629 25.975 271.871 26.2167 272.054 26.5C272.237 26.7667 272.329 27.1083 272.329 27.525V35.375H268.754V27.95C268.571 27.85 268.346 27.7583 268.079 27.675C267.829 27.5917 267.512 27.55 267.129 27.55C266.329 27.55 265.671 27.8 265.154 28.3C264.654 28.8 264.404 29.5833 264.404 30.65C264.404 31.8167 264.637 32.625 265.104 33.075C265.587 33.5083 266.187 33.725 266.904 33.725C267.454 33.725 267.912 33.6333 268.279 33.45C268.646 33.25 268.962 33.0333 269.229 32.8L269.329 35.75C268.979 35.9667 268.554 36.15 268.054 36.3C267.554 36.45 266.946 36.525 266.229 36.525ZM268.829 36.875V34.55H272.329V36.975C272.329 38.1417 272.054 39.0917 271.504 39.825C270.971 40.5583 270.237 41.1 269.304 41.45C268.387 41.8 267.354 41.975 266.204 41.975C265.337 41.975 264.562 41.9 263.879 41.75C263.212 41.6 262.704 41.4083 262.354 41.175C261.787 40.8083 261.504 40.2917 261.504 39.625C261.504 39.275 261.571 38.9583 261.704 38.675C261.854 38.4083 262.029 38.2083 262.229 38.075C262.679 38.3417 263.212 38.5667 263.829 38.75C264.446 38.95 265.096 39.05 265.779 39.05C266.712 39.05 267.454 38.875 268.004 38.525C268.554 38.1917 268.829 37.6417 268.829 36.875ZM274.095 30.4L277.82 30.475V36.975C277.653 37.025 277.42 37.0667 277.12 37.1C276.82 37.15 276.495 37.175 276.145 37.175C275.445 37.175 274.928 37.05 274.595 36.8C274.261 36.55 274.095 36.1 274.095 35.45V30.4ZM277.82 32.4L274.095 32.325V20.725C274.261 20.675 274.495 20.625 274.795 20.575C275.095 20.525 275.42 20.5 275.77 20.5C276.486 20.5 277.003 20.625 277.32 20.875C277.653 21.125 277.82 21.5833 277.82 22.25V32.4ZM281.329 32.75L281.179 30.25L287.379 29.275C287.346 28.8083 287.146 28.375 286.779 27.975C286.413 27.575 285.871 27.375 285.154 27.375C284.404 27.375 283.779 27.6333 283.279 28.15C282.779 28.65 282.513 29.3667 282.479 30.3L282.604 32.025C282.754 32.9417 283.146 33.6 283.779 34C284.413 34.3833 285.163 34.575 286.029 34.575C286.729 34.575 287.388 34.475 288.004 34.275C288.621 34.075 289.121 33.8667 289.504 33.65C289.754 33.8 289.954 34.0083 290.104 34.275C290.271 34.5417 290.354 34.825 290.354 35.125C290.354 35.625 290.154 36.0417 289.754 36.375C289.371 36.7083 288.829 36.9583 288.129 37.125C287.446 37.2917 286.663 37.375 285.779 37.375C284.496 37.375 283.338 37.1333 282.304 36.65C281.288 36.1667 280.488 35.4417 279.904 34.475C279.321 33.5083 279.029 32.3 279.029 30.85C279.029 29.7833 279.196 28.8583 279.529 28.075C279.879 27.2917 280.338 26.65 280.904 26.15C281.488 25.6333 282.138 25.25 282.854 25C283.588 24.75 284.346 24.625 285.129 24.625C286.279 24.625 287.279 24.8583 288.129 25.325C288.996 25.775 289.671 26.3917 290.154 27.175C290.638 27.9583 290.879 28.8667 290.879 29.9C290.879 30.4167 290.738 30.8083 290.454 31.075C290.171 31.3417 289.779 31.5083 289.279 31.575L281.329 32.75ZM299.759 29.125H301.259C302.109 29.125 302.776 28.925 303.259 28.525C303.759 28.125 304.009 27.55 304.009 26.8C304.009 26.05 303.776 25.4833 303.309 25.1C302.842 24.7167 302.167 24.525 301.284 24.525C300.984 24.525 300.709 24.5333 300.459 24.55C300.226 24.5667 299.992 24.5917 299.759 24.625V29.125ZM301.509 32.125H295.984V23.175C295.984 22.8583 296.076 22.6083 296.259 22.425C296.442 22.2417 296.684 22.1 296.984 22C297.534 21.8 298.192 21.6583 298.959 21.575C299.726 21.4917 300.417 21.45 301.034 21.45C303.284 21.45 304.984 21.9333 306.134 22.9C307.301 23.85 307.884 25.15 307.884 26.8C307.884 27.8667 307.626 28.8 307.109 29.6C306.609 30.4 305.884 31.025 304.934 31.475C303.984 31.9083 302.842 32.125 301.509 32.125ZM295.984 30.45H299.784V36.975C299.634 37.025 299.392 37.0667 299.059 37.1C298.726 37.15 298.384 37.175 298.034 37.175C297.284 37.175 296.751 37.0417 296.434 36.775C296.134 36.5083 295.984 36.0417 295.984 35.375V30.45ZM308.987 30.4L312.712 30.475V36.975C312.545 37.025 312.312 37.0667 312.012 37.1C311.712 37.15 311.387 37.175 311.037 37.175C310.337 37.175 309.82 37.05 309.487 36.8C309.154 36.55 308.987 36.1 308.987 35.45V30.4ZM312.712 32.4L308.987 32.325V20.725C309.154 20.675 309.387 20.625 309.687 20.575C309.987 20.525 310.312 20.5 310.662 20.5C311.379 20.5 311.895 20.625 312.212 20.875C312.545 21.125 312.712 21.5833 312.712 22.25V32.4ZM319.422 34.625C319.805 34.625 320.18 34.5917 320.547 34.525C320.93 34.4417 321.205 34.35 321.372 34.25V31.85L319.272 32.05C318.705 32.0833 318.255 32.2 317.922 32.4C317.589 32.6 317.422 32.9 317.422 33.3C317.422 33.7 317.58 34.025 317.897 34.275C318.214 34.5083 318.722 34.625 319.422 34.625ZM319.272 24.625C321.005 24.625 322.389 24.9917 323.422 25.725C324.455 26.4417 324.972 27.5583 324.972 29.075V34.75C324.972 35.1667 324.864 35.5083 324.647 35.775C324.43 36.025 324.155 36.2417 323.822 36.425C323.322 36.725 322.697 36.9583 321.947 37.125C321.214 37.3083 320.372 37.4 319.422 37.4C317.722 37.4 316.364 37.0667 315.347 36.4C314.347 35.7333 313.847 34.7417 313.847 33.425C313.847 32.2917 314.197 31.425 314.897 30.825C315.597 30.2083 316.639 29.8333 318.022 29.7L321.347 29.35V29.05C321.347 28.4833 321.122 28.075 320.672 27.825C320.239 27.575 319.614 27.45 318.797 27.45C318.164 27.45 317.539 27.525 316.922 27.675C316.322 27.825 315.78 28 315.297 28.2C315.097 28.0667 314.922 27.8667 314.772 27.6C314.639 27.3167 314.572 27.025 314.572 26.725C314.572 26.025 314.955 25.5167 315.722 25.2C316.205 25 316.764 24.8583 317.397 24.775C318.047 24.675 318.672 24.625 319.272 24.625ZM328.284 34.025C328.017 33.475 327.726 32.8083 327.409 32.025C327.109 31.2417 326.792 30.3167 326.459 29.25C326.126 28.1833 325.767 26.95 325.384 25.55C325.601 25.3333 325.876 25.15 326.209 25C326.559 24.8333 326.934 24.75 327.334 24.75C327.851 24.75 328.276 24.8583 328.609 25.075C328.942 25.2917 329.192 25.7 329.359 26.3C329.742 27.5167 330.126 28.725 330.509 29.925C330.892 31.125 331.284 32.3333 331.684 33.55H331.784C332.067 32.8 332.351 31.95 332.634 31C332.934 30.05 333.209 29.075 333.459 28.075C333.709 27.0583 333.926 26.0833 334.109 25.15C334.342 25.0333 334.592 24.9417 334.859 24.875C335.126 24.7917 335.401 24.75 335.684 24.75C336.201 24.75 336.642 24.8667 337.009 25.1C337.392 25.3167 337.584 25.6917 337.584 26.225C337.584 26.6917 337.509 27.2667 337.359 27.95C337.226 28.6333 337.042 29.375 336.809 30.175C336.576 30.9583 336.301 31.7667 335.984 32.6C335.667 33.4167 335.334 34.2083 334.984 34.975C334.651 35.7417 334.309 36.4333 333.959 37.05C333.059 38.6167 332.226 39.7833 331.459 40.55C330.709 41.3333 329.959 41.725 329.209 41.725C328.609 41.725 328.109 41.5417 327.709 41.175C327.326 40.8083 327.092 40.3417 327.009 39.775C327.376 39.475 327.751 39.125 328.134 38.725C328.517 38.3417 328.884 37.925 329.234 37.475C329.584 37.0417 329.892 36.6083 330.159 36.175C329.876 36.0917 329.584 35.9083 329.284 35.625C328.984 35.3417 328.651 34.8083 328.284 34.025Z" fill="#F8F6EE"/>
<path d="M365.781 29.2139L353.117 43.2103C353.118 43.2129 353.118 43.2166 353.119 43.2191C353.508 44.7388 354.84 45.8573 356.422 45.8573C357.055 45.8573 357.649 45.6789 358.158 45.3668L358.198 45.342L372.453 36.7769L365.781 29.2139Z" fill="#EA4335"/>
<path d="M378.593 26.8318L378.581 26.8232L372.426 23.1084L365.493 29.5332L372.451 36.7767L378.572 33.0993C379.645 32.4948 380.374 31.3168 380.374 29.9593C380.374 28.6092 379.656 27.4375 378.593 26.8318Z" fill="#FBBC04"/>
<path d="M353.117 16.6465C353.04 16.9388 353 17.2459 353 17.563V42.296C353 42.6131 353.04 42.9203 353.118 43.2114L366.216 29.5728L353.117 16.6465Z" fill="#4285F4"/>
<path d="M365.875 29.9288L372.429 23.1052L358.191 14.5091C357.673 14.1858 357.069 14 356.423 14C354.841 14 353.506 15.121 353.118 16.642L353.116 16.6457L365.875 29.9288Z" fill="#34A853"/>
</svg>
