<svg width="395" height="60" viewBox="0 0 395 60" fill="none" xmlns="http://www.w3.org/2000/svg">
<path d="M0 10C0 4.47715 4.47715 0 10 0H385C390.523 0 395 4.47715 395 10V50C395 55.5228 390.523 60 385 60H10C4.47716 60 0 55.5228 0 50V10Z" fill="#14162B"/>
<path d="M53.4127 29.4252C53.4127 28.3085 53.221 27.3919 52.8377 26.6752C52.471 25.9585 51.9544 25.4252 51.2877 25.0752C50.6377 24.7085 49.8794 24.5252 49.0127 24.5252C48.7127 24.5252 48.421 24.5419 48.1377 24.5752C47.871 24.5919 47.596 24.6169 47.3127 24.6502V34.1252C47.5627 34.1752 47.846 34.2169 48.1627 34.2502C48.4794 34.2669 48.7794 34.2752 49.0627 34.2752C50.3794 34.2752 51.4294 33.8669 52.2127 33.0502C53.0127 32.2335 53.4127 31.0252 53.4127 29.4252ZM57.3377 29.3502C57.3377 31.1502 56.9877 32.6419 56.2877 33.8252C55.6044 35.0085 54.6377 35.9002 53.3877 36.5002C52.1544 37.0835 50.7044 37.3752 49.0377 37.3752C48.4877 37.3752 47.8127 37.3335 47.0127 37.2502C46.2127 37.1835 45.4877 37.0335 44.8377 36.8002C43.971 36.4835 43.5377 35.9252 43.5377 35.1252V23.1752C43.5377 22.8419 43.6294 22.5919 43.8127 22.4252C43.996 22.2419 44.2377 22.0919 44.5377 21.9752C45.2044 21.7585 45.921 21.6169 46.6877 21.5502C47.4544 21.4835 48.1544 21.4502 48.7877 21.4502C50.5044 21.4502 51.996 21.7419 53.2627 22.3252C54.546 22.8919 55.546 23.7585 56.2627 24.9252C56.9794 26.0919 57.3377 27.5669 57.3377 29.3502Z" fill="#F8F6EE"/>
<path d="M70.6648 31.0002C70.6648 32.3002 70.3982 33.4335 69.8648 34.4002C69.3482 35.3502 68.6148 36.0835 67.6648 36.6002C66.7148 37.1169 65.5982 37.3752 64.3148 37.3752C63.0482 37.3752 61.9315 37.1252 60.9648 36.6252C60.0148 36.1085 59.2732 35.3752 58.7398 34.4252C58.2232 33.4585 57.9648 32.3169 57.9648 31.0002C57.9648 29.6835 58.2315 28.5585 58.7648 27.6252C59.2982 26.6752 60.0398 25.9419 60.9898 25.4252C61.9565 24.8919 63.0648 24.6252 64.3148 24.6252C65.5815 24.6252 66.6898 24.8919 67.6398 25.4252C68.5898 25.9419 69.3315 26.6835 69.8648 27.6502C70.3982 28.6002 70.6648 29.7169 70.6648 31.0002ZM64.3148 27.5502C63.5315 27.5502 62.9065 27.8502 62.4398 28.4502C61.9898 29.0502 61.7648 29.9002 61.7648 31.0002C61.7648 32.1169 61.9898 32.9752 62.4398 33.5752C62.8898 34.1585 63.5148 34.4502 64.3148 34.4502C65.1148 34.4502 65.7398 34.1502 66.1898 33.5502C66.6398 32.9502 66.8648 32.1002 66.8648 31.0002C66.8648 29.9169 66.6398 29.0752 66.1898 28.4752C65.7398 27.8585 65.1148 27.5502 64.3148 27.5502Z" fill="#F8F6EE"/>
<path d="M79.9465 29.7502C79.7631 30.5835 79.5381 31.4419 79.2715 32.3252C79.0048 33.2085 78.7465 34.0335 78.4965 34.8002C78.2631 35.5669 78.0715 36.1835 77.9215 36.6502C77.7215 36.8169 77.4465 36.9502 77.0965 37.0502C76.7465 37.1669 76.3298 37.2252 75.8465 37.2252C75.2798 37.2252 74.7715 37.1419 74.3215 36.9752C73.8881 36.8085 73.5965 36.5669 73.4465 36.2502C73.2965 35.9169 73.1215 35.4419 72.9215 34.8252C72.7381 34.2085 72.5465 33.5085 72.3465 32.7252C72.1465 31.9252 71.9465 31.0919 71.7465 30.2252C71.5631 29.3585 71.3881 28.5252 71.2215 27.7252C71.0548 26.9085 70.9215 26.1752 70.8215 25.5252C71.0215 25.3252 71.2881 25.1502 71.6215 25.0002C71.9715 24.8335 72.3548 24.7502 72.7715 24.7502C73.2881 24.7502 73.7048 24.8752 74.0215 25.1252C74.3548 25.3585 74.5548 25.7585 74.6215 26.3252C74.7881 27.4585 74.9381 28.4502 75.0715 29.3002C75.2048 30.1335 75.3215 30.8502 75.4215 31.4502C75.5381 32.0502 75.6298 32.5419 75.6965 32.9252C75.7798 33.2919 75.8465 33.5835 75.8965 33.8002H75.9965C76.0965 33.4169 76.2465 32.8335 76.4465 32.0502C76.6465 31.2502 76.8881 30.3419 77.1715 29.3252C77.4548 28.2919 77.7381 27.2502 78.0215 26.2002C78.3048 26.0335 78.5965 25.9085 78.8965 25.8252C79.1965 25.7419 79.5465 25.7002 79.9465 25.7002C80.4631 25.7002 80.9048 25.7835 81.2715 25.9502C81.6381 26.1169 81.8715 26.3669 81.9715 26.7002C82.2715 27.7169 82.5465 28.7002 82.7965 29.6502C83.0631 30.6002 83.2965 31.4419 83.4965 32.1752C83.6965 32.8919 83.8381 33.4335 83.9215 33.8002H84.0465C84.2798 32.4669 84.5131 31.0669 84.7465 29.6002C84.9798 28.1335 85.1881 26.6669 85.3715 25.2002C85.8881 24.9002 86.4548 24.7502 87.0715 24.7502C87.5881 24.7502 88.0048 24.8669 88.3215 25.1002C88.6548 25.3169 88.8215 25.6919 88.8215 26.2252C88.8215 26.4752 88.7798 26.8585 88.6965 27.3752C88.6131 27.8919 88.4965 28.4919 88.3465 29.1752C88.1965 29.8419 88.0298 30.5502 87.8465 31.3002C87.6631 32.0502 87.4715 32.7752 87.2715 33.4752C87.0881 34.1752 86.9131 34.8002 86.7465 35.3502C86.5798 35.9002 86.4298 36.3335 86.2965 36.6502C86.1131 36.8169 85.8131 36.9502 85.3965 37.0502C84.9798 37.1669 84.5298 37.2252 84.0465 37.2252C82.8131 37.2252 82.0881 36.9252 81.8715 36.3252C81.7215 35.8752 81.5215 35.2919 81.2715 34.5752C81.0381 33.8585 80.8048 33.0835 80.5715 32.2502C80.3381 31.4002 80.1298 30.5669 79.9465 29.7502Z" fill="#F8F6EE"/>
<path d="M101.231 29.2252V31.5752H97.5057V29.3502C97.5057 28.7335 97.3223 28.2835 96.9557 28.0002C96.6057 27.7002 96.139 27.5502 95.5557 27.5502C95.139 27.5502 94.7557 27.6085 94.4057 27.7252C94.0557 27.8252 93.739 27.9502 93.4557 28.1002V31.5752H89.7557V27.6752C89.7557 27.2585 89.839 26.9169 90.0057 26.6502C90.189 26.3669 90.4473 26.1169 90.7807 25.9002C91.314 25.5335 91.9973 25.2335 92.8307 25.0002C93.664 24.7502 94.5807 24.6252 95.5807 24.6252C97.3807 24.6252 98.7723 25.0252 99.7557 25.8252C100.739 26.6085 101.231 27.7419 101.231 29.2252ZM89.7557 30.4252H93.4557V36.9752C93.289 37.0252 93.0557 37.0669 92.7557 37.1002C92.4557 37.1502 92.1307 37.1752 91.7807 37.1752C91.0807 37.1752 90.564 37.0502 90.2307 36.8002C89.914 36.5502 89.7557 36.1002 89.7557 35.4502V30.4252ZM97.5057 30.4252H101.231V36.9752C101.064 37.0252 100.831 37.0669 100.531 37.1002C100.231 37.1502 99.9057 37.1752 99.5557 37.1752C98.8557 37.1752 98.339 37.0502 98.0057 36.8002C97.6723 36.5502 97.5057 36.1002 97.5057 35.4502V30.4252Z" fill="#F8F6EE"/>
<path d="M103.011 30.4002L106.736 30.4752V36.9752C106.569 37.0252 106.336 37.0669 106.036 37.1002C105.736 37.1502 105.411 37.1752 105.061 37.1752C104.361 37.1752 103.844 37.0502 103.511 36.8002C103.177 36.5502 103.011 36.1002 103.011 35.4502V30.4002ZM106.736 32.4002L103.011 32.3252V20.7252C103.177 20.6752 103.411 20.6252 103.711 20.5752C104.011 20.5252 104.336 20.5002 104.686 20.5002C105.402 20.5002 105.919 20.6252 106.236 20.8752C106.569 21.1252 106.736 21.5835 106.736 22.2502V32.4002Z" fill="#F8F6EE"/>
<path d="M120.645 31.0002C120.645 32.3002 120.379 33.4335 119.845 34.4002C119.329 35.3502 118.595 36.0835 117.645 36.6002C116.695 37.1169 115.579 37.3752 114.295 37.3752C113.029 37.3752 111.912 37.1252 110.945 36.6252C109.995 36.1085 109.254 35.3752 108.72 34.4252C108.204 33.4585 107.945 32.3169 107.945 31.0002C107.945 29.6835 108.212 28.5585 108.745 27.6252C109.279 26.6752 110.02 25.9419 110.97 25.4252C111.937 24.8919 113.045 24.6252 114.295 24.6252C115.562 24.6252 116.67 24.8919 117.62 25.4252C118.57 25.9419 119.312 26.6835 119.845 27.6502C120.379 28.6002 120.645 29.7169 120.645 31.0002ZM114.295 27.5502C113.512 27.5502 112.887 27.8502 112.42 28.4502C111.97 29.0502 111.745 29.9002 111.745 31.0002C111.745 32.1169 111.97 32.9752 112.42 33.5752C112.87 34.1585 113.495 34.4502 114.295 34.4502C115.095 34.4502 115.72 34.1502 116.17 33.5502C116.62 32.9502 116.845 32.1002 116.845 31.0002C116.845 29.9169 116.62 29.0752 116.17 28.4752C115.72 27.8585 115.095 27.5502 114.295 27.5502Z" fill="#F8F6EE"/>
<path d="M126.697 34.6252C127.081 34.6252 127.456 34.5919 127.822 34.5252C128.206 34.4419 128.481 34.3502 128.647 34.2502V31.8502L126.547 32.0502C125.981 32.0835 125.531 32.2002 125.197 32.4002C124.864 32.6002 124.697 32.9002 124.697 33.3002C124.697 33.7002 124.856 34.0252 125.172 34.2752C125.489 34.5085 125.997 34.6252 126.697 34.6252ZM126.547 24.6252C128.281 24.6252 129.664 24.9919 130.697 25.7252C131.731 26.4419 132.247 27.5585 132.247 29.0752V34.7502C132.247 35.1669 132.139 35.5085 131.922 35.7752C131.706 36.0252 131.431 36.2419 131.097 36.4252C130.597 36.7252 129.972 36.9585 129.222 37.1252C128.489 37.3085 127.647 37.4002 126.697 37.4002C124.997 37.4002 123.639 37.0669 122.622 36.4002C121.622 35.7335 121.122 34.7419 121.122 33.4252C121.122 32.2919 121.472 31.4252 122.172 30.8252C122.872 30.2085 123.914 29.8335 125.297 29.7002L128.622 29.3502V29.0502C128.622 28.4835 128.397 28.0752 127.947 27.8252C127.514 27.5752 126.889 27.4502 126.072 27.4502C125.439 27.4502 124.814 27.5252 124.197 27.6752C123.597 27.8252 123.056 28.0002 122.572 28.2002C122.372 28.0669 122.197 27.8669 122.047 27.6002C121.914 27.3169 121.847 27.0252 121.847 26.7252C121.847 26.0252 122.231 25.5169 122.997 25.2002C123.481 25.0002 124.039 24.8585 124.672 24.7752C125.322 24.6752 125.947 24.6252 126.547 24.6252Z" fill="#F8F6EE"/>
<path d="M141.627 34.0252V26.5002H145.327V34.5002C145.327 34.9002 145.244 35.2419 145.077 35.5252C144.911 35.7919 144.644 36.0335 144.277 36.2502C143.827 36.5502 143.236 36.8085 142.502 37.0252C141.786 37.2585 140.952 37.3752 140.002 37.3752C138.619 37.3752 137.419 37.1419 136.402 36.6752C135.402 36.2085 134.627 35.5085 134.077 34.5752C133.544 33.6252 133.277 32.4502 133.277 31.0502C133.277 29.5835 133.552 28.3835 134.102 27.4502C134.669 26.5002 135.427 25.7919 136.377 25.3252C137.327 24.8585 138.377 24.6252 139.527 24.6252C140.127 24.6252 140.661 24.6919 141.127 24.8252C141.594 24.9585 141.977 25.1169 142.277 25.3002V28.3502C142.044 28.1502 141.736 27.9669 141.352 27.8002C140.969 27.6335 140.527 27.5502 140.027 27.5502C139.444 27.5502 138.927 27.6752 138.477 27.9252C138.027 28.1752 137.677 28.5585 137.427 29.0752C137.177 29.5919 137.052 30.2502 137.052 31.0502C137.052 32.2169 137.311 33.0752 137.827 33.6252C138.361 34.1752 139.077 34.4502 139.977 34.4502C140.344 34.4502 140.669 34.4085 140.952 34.3252C141.236 34.2252 141.461 34.1252 141.627 34.0252ZM145.327 27.2252L141.627 27.2502V20.7252C141.777 20.6752 142.002 20.6252 142.302 20.5752C142.602 20.5252 142.927 20.5002 143.277 20.5002C144.011 20.5002 144.536 20.6252 144.852 20.8752C145.169 21.1252 145.327 21.5835 145.327 22.2502V27.2252Z" fill="#F8F6EE"/>
<path d="M153.786 28.7252V25.8752H158.661C158.744 26.0085 158.828 26.2002 158.911 26.4502C158.994 26.7002 159.036 26.9752 159.036 27.2752C159.036 27.7919 158.919 28.1669 158.686 28.4002C158.469 28.6169 158.161 28.7252 157.761 28.7252H153.786ZM154.361 24.8752V28.2752H150.836V24.7502C150.836 23.6502 151.061 22.7585 151.511 22.0752C151.978 21.3919 152.611 20.8919 153.411 20.5752C154.228 20.2419 155.128 20.0752 156.111 20.0752C157.278 20.0752 158.144 20.2335 158.711 20.5502C159.294 20.8502 159.586 21.3419 159.586 22.0252C159.586 22.3252 159.519 22.5919 159.386 22.8252C159.269 23.0585 159.136 23.2419 158.986 23.3752C158.669 23.2752 158.328 23.1919 157.961 23.1252C157.594 23.0585 157.186 23.0252 156.736 23.0252C155.953 23.0252 155.361 23.1669 154.961 23.4502C154.561 23.7335 154.361 24.2085 154.361 24.8752ZM150.836 27.5502H154.536V36.9752C154.369 37.0252 154.136 37.0669 153.836 37.1002C153.536 37.1502 153.211 37.1752 152.861 37.1752C152.161 37.1752 151.644 37.0502 151.311 36.8002C150.994 36.5502 150.836 36.1002 150.836 35.4502V27.5502Z" fill="#F8F6EE"/>
<path d="M163.197 28.2252V31.3502H159.497V27.7752C159.497 27.3085 159.605 26.9169 159.822 26.6002C160.055 26.2669 160.372 25.9752 160.772 25.7252C161.322 25.3919 161.98 25.1335 162.747 24.9502C163.53 24.7502 164.347 24.6502 165.197 24.6502C166.897 24.6502 167.747 25.2169 167.747 26.3502C167.747 26.6169 167.705 26.8669 167.622 27.1002C167.555 27.3335 167.472 27.5335 167.372 27.7002C167.205 27.6669 166.997 27.6419 166.747 27.6252C166.514 27.5919 166.255 27.5752 165.972 27.5752C165.472 27.5752 164.972 27.6335 164.472 27.7502C163.972 27.8669 163.547 28.0252 163.197 28.2252ZM159.497 30.4002L163.197 30.4752V36.9752C163.03 37.0252 162.797 37.0669 162.497 37.1002C162.197 37.1502 161.872 37.1752 161.522 37.1752C160.822 37.1752 160.305 37.0502 159.972 36.8002C159.655 36.5502 159.497 36.1002 159.497 35.4502V30.4002Z" fill="#F8F6EE"/>
<path d="M180.064 31.0002C180.064 32.3002 179.798 33.4335 179.264 34.4002C178.748 35.3502 178.014 36.0835 177.064 36.6002C176.114 37.1169 174.998 37.3752 173.714 37.3752C172.448 37.3752 171.331 37.1252 170.364 36.6252C169.414 36.1085 168.673 35.3752 168.139 34.4252C167.623 33.4585 167.364 32.3169 167.364 31.0002C167.364 29.6835 167.631 28.5585 168.164 27.6252C168.698 26.6752 169.439 25.9419 170.389 25.4252C171.356 24.8919 172.464 24.6252 173.714 24.6252C174.981 24.6252 176.089 24.8919 177.039 25.4252C177.989 25.9419 178.731 26.6835 179.264 27.6502C179.798 28.6002 180.064 29.7169 180.064 31.0002ZM173.714 27.5502C172.931 27.5502 172.306 27.8502 171.839 28.4502C171.389 29.0502 171.164 29.9002 171.164 31.0002C171.164 32.1169 171.389 32.9752 171.839 33.5752C172.289 34.1585 172.914 34.4502 173.714 34.4502C174.514 34.4502 175.139 34.1502 175.589 33.5502C176.039 32.9502 176.264 32.1002 176.264 31.0002C176.264 29.9169 176.039 29.0752 175.589 28.4752C175.139 27.8585 174.514 27.5502 173.714 27.5502Z" fill="#F8F6EE"/>
<path d="M192.042 28.7252V31.5752H188.317V29.2002C188.317 28.6335 188.151 28.2169 187.817 27.9502C187.484 27.6835 187.067 27.5502 186.567 27.5502C186.201 27.5502 185.867 27.6085 185.567 27.7252C185.284 27.8252 185.042 27.9335 184.842 28.0502V31.5752H181.142V27.6752C181.142 27.2585 181.226 26.9169 181.392 26.6502C181.576 26.3669 181.834 26.1169 182.167 25.9002C182.717 25.5169 183.392 25.2085 184.192 24.9752C184.992 24.7419 185.826 24.6252 186.692 24.6252C187.492 24.6252 188.242 24.7502 188.942 25.0002C189.642 25.2502 190.251 25.6335 190.767 26.1502C190.901 26.2502 191.026 26.3585 191.142 26.4752C191.276 26.5752 191.376 26.6919 191.442 26.8252C191.609 27.0919 191.751 27.3919 191.867 27.7252C191.984 28.0585 192.042 28.3919 192.042 28.7252ZM199.217 29.1002V31.5752H195.517V29.2002C195.517 28.6335 195.359 28.2169 195.042 27.9502C194.726 27.6835 194.309 27.5502 193.792 27.5502C193.409 27.5502 193.042 27.6335 192.692 27.8002C192.359 27.9502 192.067 28.1335 191.817 28.3502L189.867 26.2002C190.417 25.7669 191.042 25.4002 191.742 25.1002C192.442 24.7835 193.301 24.6252 194.317 24.6252C195.184 24.6252 195.992 24.7752 196.742 25.0752C197.492 25.3752 198.092 25.8502 198.542 26.5002C198.992 27.1502 199.217 28.0169 199.217 29.1002ZM181.142 30.4252H184.842V36.9752C184.676 37.0252 184.442 37.0669 184.142 37.1002C183.842 37.1502 183.517 37.1752 183.167 37.1752C182.467 37.1752 181.951 37.0502 181.617 36.8002C181.301 36.5502 181.142 36.1002 181.142 35.4502V30.4252ZM188.317 30.4252H192.042V36.9752C191.876 37.0252 191.642 37.0669 191.342 37.1002C191.042 37.1502 190.717 37.1752 190.367 37.1752C189.651 37.1752 189.126 37.0502 188.792 36.8002C188.476 36.5502 188.317 36.1002 188.317 35.4502V30.4252ZM195.517 30.4252H199.217V36.9752C199.067 37.0252 198.842 37.0669 198.542 37.1002C198.242 37.1502 197.917 37.1752 197.567 37.1752C196.851 37.1752 196.326 37.0502 195.992 36.8002C195.676 36.5502 195.517 36.1002 195.517 35.4502V30.4252Z" fill="#F8F6EE"/>
<path d="M218.268 29.5252V34.7252C218.268 35.1919 218.177 35.5502 217.993 35.8002C217.827 36.0335 217.543 36.2585 217.143 36.4752C216.693 36.7252 216.043 36.9419 215.193 37.1252C214.343 37.3252 213.493 37.4252 212.643 37.4252C211.043 37.4252 209.602 37.1502 208.318 36.6002C207.052 36.0335 206.043 35.1669 205.293 34.0002C204.56 32.8169 204.193 31.3002 204.193 29.4502C204.193 27.6835 204.568 26.2085 205.318 25.0252C206.068 23.8252 207.077 22.9252 208.343 22.3252C209.627 21.7085 211.043 21.4002 212.593 21.4002C213.627 21.4002 214.518 21.5085 215.268 21.7252C216.035 21.9419 216.618 22.2419 217.018 22.6252C217.435 23.0085 217.643 23.4502 217.643 23.9502C217.643 24.3169 217.543 24.6502 217.343 24.9502C217.16 25.2335 216.935 25.4502 216.668 25.6002C216.252 25.3335 215.727 25.0835 215.093 24.8502C214.46 24.6169 213.718 24.5002 212.868 24.5002C211.952 24.5002 211.127 24.7002 210.393 25.1002C209.677 25.4835 209.118 26.0502 208.718 26.8002C208.318 27.5335 208.118 28.4085 208.118 29.4252C208.118 30.5252 208.31 31.4419 208.693 32.1752C209.093 32.9085 209.635 33.4585 210.318 33.8252C211.018 34.1752 211.81 34.3502 212.693 34.3502C213.11 34.3502 213.485 34.3085 213.818 34.2252C214.168 34.1419 214.435 34.0585 214.618 33.9752V31.0502H211.693C211.593 30.8835 211.502 30.6752 211.418 30.4252C211.335 30.1585 211.293 29.8752 211.293 29.5752C211.293 29.0585 211.41 28.6835 211.643 28.4502C211.893 28.2002 212.218 28.0752 212.618 28.0752H216.818C217.268 28.0752 217.618 28.2002 217.868 28.4502C218.135 28.7002 218.268 29.0585 218.268 29.5252Z" fill="#F8F6EE"/>
<path d="M231.998 31.0002C231.998 32.3002 231.731 33.4335 231.198 34.4002C230.681 35.3502 229.948 36.0835 228.998 36.6002C228.048 37.1169 226.931 37.3752 225.648 37.3752C224.381 37.3752 223.265 37.1252 222.298 36.6252C221.348 36.1085 220.606 35.3752 220.073 34.4252C219.556 33.4585 219.298 32.3169 219.298 31.0002C219.298 29.6835 219.565 28.5585 220.098 27.6252C220.631 26.6752 221.373 25.9419 222.323 25.4252C223.29 24.8919 224.398 24.6252 225.648 24.6252C226.915 24.6252 228.023 24.8919 228.973 25.4252C229.923 25.9419 230.665 26.6835 231.198 27.6502C231.731 28.6002 231.998 29.7169 231.998 31.0002ZM225.648 27.5502C224.865 27.5502 224.24 27.8502 223.773 28.4502C223.323 29.0502 223.098 29.9002 223.098 31.0002C223.098 32.1169 223.323 32.9752 223.773 33.5752C224.223 34.1585 224.848 34.4502 225.648 34.4502C226.448 34.4502 227.073 34.1502 227.523 33.5502C227.973 32.9502 228.198 32.1002 228.198 31.0002C228.198 29.9169 227.973 29.0752 227.523 28.4752C227.073 27.8585 226.448 27.5502 225.648 27.5502Z" fill="#F8F6EE"/>
<path d="M245.201 31.0002C245.201 32.3002 244.934 33.4335 244.401 34.4002C243.884 35.3502 243.151 36.0835 242.201 36.6002C241.251 37.1169 240.134 37.3752 238.851 37.3752C237.584 37.3752 236.468 37.1252 235.501 36.6252C234.551 36.1085 233.809 35.3752 233.276 34.4252C232.759 33.4585 232.501 32.3169 232.501 31.0002C232.501 29.6835 232.768 28.5585 233.301 27.6252C233.834 26.6752 234.576 25.9419 235.526 25.4252C236.493 24.8919 237.601 24.6252 238.851 24.6252C240.118 24.6252 241.226 24.8919 242.176 25.4252C243.126 25.9419 243.868 26.6835 244.401 27.6502C244.934 28.6002 245.201 29.7169 245.201 31.0002ZM238.851 27.5502C238.068 27.5502 237.443 27.8502 236.976 28.4502C236.526 29.0502 236.301 29.9002 236.301 31.0002C236.301 32.1169 236.526 32.9752 236.976 33.5752C237.426 34.1585 238.051 34.4502 238.851 34.4502C239.651 34.4502 240.276 34.1502 240.726 33.5502C241.176 32.9502 241.401 32.1002 241.401 31.0002C241.401 29.9169 241.176 29.0752 240.726 28.4752C240.276 27.8585 239.651 27.5502 238.851 27.5502Z" fill="#F8F6EE"/>
<path d="M251.229 36.5252C250.246 36.5252 249.329 36.3419 248.479 35.9752C247.646 35.5919 246.971 34.9669 246.454 34.1002C245.954 33.2169 245.704 32.0669 245.704 30.6502C245.704 29.3335 245.962 28.2335 246.479 27.3502C247.012 26.4502 247.754 25.7752 248.704 25.3252C249.654 24.8585 250.754 24.6252 252.004 24.6252C252.904 24.6252 253.737 24.7502 254.504 25.0002C255.287 25.2335 255.896 25.4919 256.329 25.7752C256.629 25.9752 256.871 26.2169 257.054 26.5002C257.237 26.7669 257.329 27.1085 257.329 27.5252V35.3752H253.754V27.9502C253.571 27.8502 253.346 27.7585 253.079 27.6752C252.829 27.5919 252.512 27.5502 252.129 27.5502C251.329 27.5502 250.671 27.8002 250.154 28.3002C249.654 28.8002 249.404 29.5835 249.404 30.6502C249.404 31.8169 249.637 32.6252 250.104 33.0752C250.587 33.5085 251.187 33.7252 251.904 33.7252C252.454 33.7252 252.912 33.6335 253.279 33.4502C253.646 33.2502 253.962 33.0335 254.229 32.8002L254.329 35.7502C253.979 35.9669 253.554 36.1502 253.054 36.3002C252.554 36.4502 251.946 36.5252 251.229 36.5252ZM253.829 36.8752V34.5502H257.329V36.9752C257.329 38.1419 257.054 39.0919 256.504 39.8252C255.971 40.5585 255.237 41.1002 254.304 41.4502C253.387 41.8002 252.354 41.9752 251.204 41.9752C250.337 41.9752 249.562 41.9002 248.879 41.7502C248.212 41.6002 247.704 41.4085 247.354 41.1752C246.787 40.8085 246.504 40.2919 246.504 39.6252C246.504 39.2752 246.571 38.9585 246.704 38.6752C246.854 38.4085 247.029 38.2085 247.229 38.0752C247.679 38.3419 248.212 38.5669 248.829 38.7502C249.446 38.9502 250.096 39.0502 250.779 39.0502C251.712 39.0502 252.454 38.8752 253.004 38.5252C253.554 38.1919 253.829 37.6419 253.829 36.8752Z" fill="#F8F6EE"/>
<path d="M259.095 30.4002L262.82 30.4752V36.9752C262.653 37.0252 262.42 37.0669 262.12 37.1002C261.82 37.1502 261.495 37.1752 261.145 37.1752C260.445 37.1752 259.928 37.0502 259.595 36.8002C259.261 36.5502 259.095 36.1002 259.095 35.4502V30.4002ZM262.82 32.4002L259.095 32.3252V20.7252C259.261 20.6752 259.495 20.6252 259.795 20.5752C260.095 20.5252 260.42 20.5002 260.77 20.5002C261.486 20.5002 262.003 20.6252 262.32 20.8752C262.653 21.1252 262.82 21.5835 262.82 22.2502V32.4002Z" fill="#F8F6EE"/>
<path d="M266.329 32.7502L266.179 30.2502L272.379 29.2752C272.346 28.8085 272.146 28.3752 271.779 27.9752C271.413 27.5752 270.871 27.3752 270.154 27.3752C269.404 27.3752 268.779 27.6335 268.279 28.1502C267.779 28.6502 267.513 29.3669 267.479 30.3002L267.604 32.0252C267.754 32.9419 268.146 33.6002 268.779 34.0002C269.413 34.3835 270.163 34.5752 271.029 34.5752C271.729 34.5752 272.388 34.4752 273.004 34.2752C273.621 34.0752 274.121 33.8669 274.504 33.6502C274.754 33.8002 274.954 34.0085 275.104 34.2752C275.271 34.5419 275.354 34.8252 275.354 35.1252C275.354 35.6252 275.154 36.0419 274.754 36.3752C274.371 36.7085 273.829 36.9585 273.129 37.1252C272.446 37.2919 271.663 37.3752 270.779 37.3752C269.496 37.3752 268.338 37.1335 267.304 36.6502C266.288 36.1669 265.488 35.4419 264.904 34.4752C264.321 33.5085 264.029 32.3002 264.029 30.8502C264.029 29.7835 264.196 28.8585 264.529 28.0752C264.879 27.2919 265.338 26.6502 265.904 26.1502C266.488 25.6335 267.138 25.2502 267.854 25.0002C268.588 24.7502 269.346 24.6252 270.129 24.6252C271.279 24.6252 272.279 24.8585 273.129 25.3252C273.996 25.7752 274.671 26.3919 275.154 27.1752C275.638 27.9585 275.879 28.8669 275.879 29.9002C275.879 30.4169 275.738 30.8085 275.454 31.0752C275.171 31.3419 274.779 31.5085 274.279 31.5752L266.329 32.7502Z" fill="#F8F6EE"/>
<path d="M284.759 29.1252H286.259C287.109 29.1252 287.776 28.9252 288.259 28.5252C288.759 28.1252 289.009 27.5502 289.009 26.8002C289.009 26.0502 288.776 25.4835 288.309 25.1002C287.842 24.7169 287.167 24.5252 286.284 24.5252C285.984 24.5252 285.709 24.5335 285.459 24.5502C285.226 24.5669 284.992 24.5919 284.759 24.6252V29.1252ZM286.509 32.1252H280.984V23.1752C280.984 22.8585 281.076 22.6085 281.259 22.4252C281.442 22.2419 281.684 22.1002 281.984 22.0002C282.534 21.8002 283.192 21.6585 283.959 21.5752C284.726 21.4919 285.417 21.4502 286.034 21.4502C288.284 21.4502 289.984 21.9335 291.134 22.9002C292.301 23.8502 292.884 25.1502 292.884 26.8002C292.884 27.8669 292.626 28.8002 292.109 29.6002C291.609 30.4002 290.884 31.0252 289.934 31.4752C288.984 31.9085 287.842 32.1252 286.509 32.1252ZM280.984 30.4502H284.784V36.9752C284.634 37.0252 284.392 37.0669 284.059 37.1002C283.726 37.1502 283.384 37.1752 283.034 37.1752C282.284 37.1752 281.751 37.0419 281.434 36.7752C281.134 36.5085 280.984 36.0419 280.984 35.3752V30.4502Z" fill="#F8F6EE"/>
<path d="M293.987 30.4002L297.712 30.4752V36.9752C297.545 37.0252 297.312 37.0669 297.012 37.1002C296.712 37.1502 296.387 37.1752 296.037 37.1752C295.337 37.1752 294.82 37.0502 294.487 36.8002C294.154 36.5502 293.987 36.1002 293.987 35.4502V30.4002ZM297.712 32.4002L293.987 32.3252V20.7252C294.154 20.6752 294.387 20.6252 294.687 20.5752C294.987 20.5252 295.312 20.5002 295.662 20.5002C296.379 20.5002 296.895 20.6252 297.212 20.8752C297.545 21.1252 297.712 21.5835 297.712 22.2502V32.4002Z" fill="#F8F6EE"/>
<path d="M304.422 34.6252C304.805 34.6252 305.18 34.5919 305.547 34.5252C305.93 34.4419 306.205 34.3502 306.372 34.2502V31.8502L304.272 32.0502C303.705 32.0835 303.255 32.2002 302.922 32.4002C302.589 32.6002 302.422 32.9002 302.422 33.3002C302.422 33.7002 302.58 34.0252 302.897 34.2752C303.214 34.5085 303.722 34.6252 304.422 34.6252ZM304.272 24.6252C306.005 24.6252 307.389 24.9919 308.422 25.7252C309.455 26.4419 309.972 27.5585 309.972 29.0752V34.7502C309.972 35.1669 309.864 35.5085 309.647 35.7752C309.43 36.0252 309.155 36.2419 308.822 36.4252C308.322 36.7252 307.697 36.9585 306.947 37.1252C306.214 37.3085 305.372 37.4002 304.422 37.4002C302.722 37.4002 301.364 37.0669 300.347 36.4002C299.347 35.7335 298.847 34.7419 298.847 33.4252C298.847 32.2919 299.197 31.4252 299.897 30.8252C300.597 30.2085 301.639 29.8335 303.022 29.7002L306.347 29.3502V29.0502C306.347 28.4835 306.122 28.0752 305.672 27.8252C305.239 27.5752 304.614 27.4502 303.797 27.4502C303.164 27.4502 302.539 27.5252 301.922 27.6752C301.322 27.8252 300.78 28.0002 300.297 28.2002C300.097 28.0669 299.922 27.8669 299.772 27.6002C299.639 27.3169 299.572 27.0252 299.572 26.7252C299.572 26.0252 299.955 25.5169 300.722 25.2002C301.205 25.0002 301.764 24.8585 302.397 24.7752C303.047 24.6752 303.672 24.6252 304.272 24.6252Z" fill="#F8F6EE"/>
<path d="M313.284 34.0252C313.017 33.4752 312.726 32.8085 312.409 32.0252C312.109 31.2419 311.792 30.3169 311.459 29.2502C311.126 28.1835 310.767 26.9502 310.384 25.5502C310.601 25.3335 310.876 25.1502 311.209 25.0002C311.559 24.8335 311.934 24.7502 312.334 24.7502C312.851 24.7502 313.276 24.8585 313.609 25.0752C313.942 25.2919 314.192 25.7002 314.359 26.3002C314.742 27.5169 315.126 28.7252 315.509 29.9252C315.892 31.1252 316.284 32.3335 316.684 33.5502H316.784C317.067 32.8002 317.351 31.9502 317.634 31.0002C317.934 30.0502 318.209 29.0752 318.459 28.0752C318.709 27.0585 318.926 26.0835 319.109 25.1502C319.342 25.0335 319.592 24.9419 319.859 24.8752C320.126 24.7919 320.401 24.7502 320.684 24.7502C321.201 24.7502 321.642 24.8669 322.009 25.1002C322.392 25.3169 322.584 25.6919 322.584 26.2252C322.584 26.6919 322.509 27.2669 322.359 27.9502C322.226 28.6335 322.042 29.3752 321.809 30.1752C321.576 30.9585 321.301 31.7669 320.984 32.6002C320.667 33.4169 320.334 34.2085 319.984 34.9752C319.651 35.7419 319.309 36.4335 318.959 37.0502C318.059 38.6169 317.226 39.7835 316.459 40.5502C315.709 41.3335 314.959 41.7252 314.209 41.7252C313.609 41.7252 313.109 41.5419 312.709 41.1752C312.326 40.8085 312.092 40.3419 312.009 39.7752C312.376 39.4752 312.751 39.1252 313.134 38.7252C313.517 38.3419 313.884 37.9252 314.234 37.4752C314.584 37.0419 314.892 36.6085 315.159 36.1752C314.876 36.0919 314.584 35.9085 314.284 35.6252C313.984 35.3419 313.651 34.8085 313.284 34.0252Z" fill="#F8F6EE"/>
<path d="M350.781 29.2143L338.117 43.2108C338.118 43.2133 338.118 43.217 338.119 43.2196C338.508 44.7393 339.84 45.8578 341.422 45.8578C342.055 45.8578 342.649 45.6794 343.158 45.3673L343.198 45.3425L357.453 36.7774L350.781 29.2143Z" fill="#EA4335"/>
<path d="M363.593 26.8315L363.581 26.8228L357.426 23.1081L350.493 29.5329L357.451 36.7764L363.572 33.099C364.645 32.4945 365.374 31.3165 365.374 29.959C365.374 28.6089 364.656 27.4372 363.593 26.8315Z" fill="#FBBC04"/>
<path d="M338.117 16.6462C338.04 16.9384 338 17.2456 338 17.5627V42.2957C338 42.6128 338.04 42.9199 338.118 43.211L351.216 29.5725L338.117 16.6462Z" fill="#4285F4"/>
<path d="M350.875 29.9288L357.429 23.1052L343.191 14.5091C342.673 14.1858 342.069 14 341.423 14C339.841 14 338.506 15.121 338.118 16.642L338.117 16.6462L350.875 29.9288Z" fill="#34A853"/>
</svg>
