<svg width="395" height="60" viewBox="0 0 395 60" fill="none" xmlns="http://www.w3.org/2000/svg">
<path d="M0 10C0 4.47715 4.47715 0 10 0H385C390.523 0 395 4.47715 395 10V50C395 55.5228 390.523 60 385 60H10C4.47716 60 0 55.5228 0 50V10Z" fill="#14162B"/>
<path d="M76.5963 26.4748H80.3963V36.8498L78.6213 37.0498C78.0046 37.0498 77.513 36.8665 77.1463 36.4998C76.7796 36.1331 76.5963 35.6415 76.5963 35.0248V26.4748ZM78.6213 37.0498V33.9498H86.4713C86.588 34.1165 86.688 34.3331 86.7713 34.5998C86.8546 34.8498 86.8963 35.1331 86.8963 35.4498C86.8963 35.9831 86.7796 36.3831 86.5463 36.6498C86.313 36.9165 85.988 37.0498 85.5713 37.0498H78.6213ZM80.3963 31.2248H76.5963V21.7998C76.763 21.7665 77.013 21.7248 77.3463 21.6748C77.6963 21.6248 78.0296 21.5998 78.3463 21.5998C79.0796 21.5998 79.6046 21.7248 79.9213 21.9748C80.238 22.2248 80.3963 22.6998 80.3963 23.3998V31.2248Z" fill="#F8F6EE"/>
<path d="M92.6905 34.6248C93.0738 34.6248 93.4488 34.5915 93.8155 34.5248C94.1988 34.4415 94.4738 34.3498 94.6405 34.2498V31.8498L92.5405 32.0498C91.9738 32.0831 91.5238 32.1998 91.1905 32.3998C90.8571 32.5998 90.6905 32.8998 90.6905 33.2998C90.6905 33.6998 90.8488 34.0248 91.1655 34.2748C91.4821 34.5081 91.9905 34.6248 92.6905 34.6248ZM92.5405 24.6248C94.2738 24.6248 95.6571 24.9915 96.6905 25.7248C97.7238 26.4415 98.2405 27.5581 98.2405 29.0748V34.7498C98.2405 35.1665 98.1321 35.5081 97.9155 35.7748C97.6988 36.0248 97.4238 36.2415 97.0905 36.4248C96.5905 36.7248 95.9655 36.9581 95.2155 37.1248C94.4821 37.3081 93.6405 37.3998 92.6905 37.3998C90.9905 37.3998 89.6321 37.0665 88.6155 36.3998C87.6155 35.7331 87.1155 34.7415 87.1155 33.4248C87.1155 32.2915 87.4655 31.4248 88.1655 30.8248C88.8655 30.2081 89.9071 29.8331 91.2905 29.6998L94.6155 29.3498V29.0498C94.6155 28.4831 94.3905 28.0748 93.9405 27.8248C93.5071 27.5748 92.8821 27.4498 92.0655 27.4498C91.4321 27.4498 90.8071 27.5248 90.1905 27.6748C89.5905 27.8248 89.0488 27.9998 88.5655 28.1998C88.3655 28.0665 88.1905 27.8665 88.0405 27.5998C87.9071 27.3165 87.8405 27.0248 87.8405 26.7248C87.8405 26.0248 88.2238 25.5165 88.9905 25.1998C89.4738 24.9998 90.0321 24.8581 90.6655 24.7748C91.3155 24.6748 91.9405 24.6248 92.5405 24.6248Z" fill="#F8F6EE"/>
<path d="M104.771 34.6248C105.154 34.6248 105.529 34.5915 105.896 34.5248C106.279 34.4415 106.554 34.3498 106.721 34.2498V31.8498L104.621 32.0498C104.054 32.0831 103.604 32.1998 103.271 32.3998C102.937 32.5998 102.771 32.8998 102.771 33.2998C102.771 33.6998 102.929 34.0248 103.246 34.2748C103.562 34.5081 104.071 34.6248 104.771 34.6248ZM104.621 24.6248C106.354 24.6248 107.737 24.9915 108.771 25.7248C109.804 26.4415 110.321 27.5581 110.321 29.0748V34.7498C110.321 35.1665 110.212 35.5081 109.996 35.7748C109.779 36.0248 109.504 36.2415 109.171 36.4248C108.671 36.7248 108.046 36.9581 107.296 37.1248C106.562 37.3081 105.721 37.3998 104.771 37.3998C103.071 37.3998 101.712 37.0665 100.696 36.3998C99.6955 35.7331 99.1955 34.7415 99.1955 33.4248C99.1955 32.2915 99.5455 31.4248 100.246 30.8248C100.946 30.2081 101.987 29.8331 103.371 29.6998L106.696 29.3498V29.0498C106.696 28.4831 106.471 28.0748 106.021 27.8248C105.587 27.5748 104.962 27.4498 104.146 27.4498C103.512 27.4498 102.887 27.5248 102.271 27.6748C101.671 27.8248 101.129 27.9998 100.646 28.1998C100.446 28.0665 100.271 27.8665 100.121 27.5998C99.9872 27.3165 99.9205 27.0248 99.9205 26.7248C99.9205 26.0248 100.304 25.5165 101.071 25.1998C101.554 24.9998 102.112 24.8581 102.746 24.7748C103.396 24.6748 104.021 24.6248 104.621 24.6248Z" fill="#F8F6EE"/>
<path d="M119.701 34.0248V26.4998H123.401V34.4998C123.401 34.8998 123.317 35.2415 123.151 35.5248C122.984 35.7915 122.717 36.0331 122.351 36.2498C121.901 36.5498 121.309 36.8081 120.576 37.0248C119.859 37.2581 119.026 37.3748 118.076 37.3748C116.692 37.3748 115.492 37.1415 114.476 36.6748C113.476 36.2081 112.701 35.5081 112.151 34.5748C111.617 33.6248 111.351 32.4498 111.351 31.0498C111.351 29.5831 111.626 28.3831 112.176 27.4498C112.742 26.4998 113.501 25.7915 114.451 25.3248C115.401 24.8581 116.451 24.6248 117.601 24.6248C118.201 24.6248 118.734 24.6915 119.201 24.8248C119.667 24.9581 120.051 25.1165 120.351 25.2998V28.3498C120.117 28.1498 119.809 27.9665 119.426 27.7998C119.042 27.6331 118.601 27.5498 118.101 27.5498C117.517 27.5498 117.001 27.6748 116.551 27.9248C116.101 28.1748 115.751 28.5581 115.501 29.0748C115.251 29.5915 115.126 30.2498 115.126 31.0498C115.126 32.2165 115.384 33.0748 115.901 33.6248C116.434 34.1748 117.151 34.4498 118.051 34.4498C118.417 34.4498 118.742 34.4081 119.026 34.3248C119.309 34.2248 119.534 34.1248 119.701 34.0248ZM123.401 27.2248L119.701 27.2498V20.7248C119.851 20.6748 120.076 20.6248 120.376 20.5748C120.676 20.5248 121.001 20.4998 121.351 20.4998C122.084 20.4998 122.609 20.6248 122.926 20.8748C123.242 21.1248 123.401 21.5831 123.401 22.2498V27.2248Z" fill="#F8F6EE"/>
<path d="M124.979 21.5498C124.979 20.9831 125.171 20.5081 125.554 20.1248C125.954 19.7415 126.454 19.5498 127.054 19.5498C127.671 19.5498 128.171 19.7415 128.554 20.1248C128.938 20.5081 129.129 20.9831 129.129 21.5498C129.129 22.0998 128.938 22.5748 128.554 22.9748C128.171 23.3748 127.671 23.5748 127.054 23.5748C126.454 23.5748 125.954 23.3748 125.554 22.9748C125.171 22.5748 124.979 22.0998 124.979 21.5498ZM125.204 30.3998H128.904V36.9748C128.754 37.0248 128.529 37.0665 128.229 37.0998C127.929 37.1498 127.604 37.1748 127.254 37.1748C126.538 37.1748 126.013 37.0498 125.679 36.7998C125.363 36.5498 125.204 36.0998 125.204 35.4498V30.3998ZM128.904 32.3248H125.204V25.1498C125.354 25.0998 125.579 25.0498 125.879 24.9998C126.196 24.9498 126.529 24.9248 126.879 24.9248C127.596 24.9248 128.113 25.0498 128.429 25.2998C128.746 25.5331 128.904 25.9915 128.904 26.6748V32.3248Z" fill="#F8F6EE"/>
<path d="M139.346 34.6248C139.729 34.6248 140.104 34.5915 140.471 34.5248C140.854 34.4415 141.129 34.3498 141.296 34.2498V31.8498L139.196 32.0498C138.629 32.0831 138.179 32.1998 137.846 32.3998C137.512 32.5998 137.346 32.8998 137.346 33.2998C137.346 33.6998 137.504 34.0248 137.821 34.2748C138.137 34.5081 138.646 34.6248 139.346 34.6248ZM139.196 24.6248C140.929 24.6248 142.312 24.9915 143.346 25.7248C144.379 26.4415 144.896 27.5581 144.896 29.0748V34.7498C144.896 35.1665 144.787 35.5081 144.571 35.7748C144.354 36.0248 144.079 36.2415 143.746 36.4248C143.246 36.7248 142.621 36.9581 141.871 37.1248C141.137 37.3081 140.296 37.3998 139.346 37.3998C137.646 37.3998 136.287 37.0665 135.271 36.3998C134.271 35.7331 133.771 34.7415 133.771 33.4248C133.771 32.2915 134.121 31.4248 134.821 30.8248C135.521 30.2081 136.562 29.8331 137.946 29.6998L141.271 29.3498V29.0498C141.271 28.4831 141.046 28.0748 140.596 27.8248C140.162 27.5748 139.537 27.4498 138.721 27.4498C138.087 27.4498 137.462 27.5248 136.846 27.6748C136.246 27.8248 135.704 27.9998 135.221 28.1998C135.021 28.0665 134.846 27.8665 134.696 27.5998C134.562 27.3165 134.496 27.0248 134.496 26.7248C134.496 26.0248 134.879 25.5165 135.646 25.1998C136.129 24.9998 136.687 24.8581 137.321 24.7748C137.971 24.6748 138.596 24.6248 139.196 24.6248Z" fill="#F8F6EE"/>
<path d="M146.626 30.3998L150.351 30.4748V36.9748C150.184 37.0248 149.951 37.0665 149.651 37.0998C149.351 37.1498 149.026 37.1748 148.676 37.1748C147.976 37.1748 147.459 37.0498 147.126 36.7998C146.792 36.5498 146.626 36.0998 146.626 35.4498V30.3998ZM150.351 32.3998L146.626 32.3248V20.7248C146.792 20.6748 147.026 20.6248 147.326 20.5748C147.626 20.5248 147.951 20.4998 148.301 20.4998C149.017 20.4998 149.534 20.6248 149.851 20.8748C150.184 21.1248 150.351 21.5831 150.351 22.2498V32.3998Z" fill="#F8F6EE"/>
<path d="M152.285 30.3998L156.01 30.4748V36.9748C155.843 37.0248 155.61 37.0665 155.31 37.0998C155.01 37.1498 154.685 37.1748 154.335 37.1748C153.635 37.1748 153.118 37.0498 152.785 36.7998C152.452 36.5498 152.285 36.0998 152.285 35.4498V30.3998ZM156.01 32.3998L152.285 32.3248V20.7248C152.452 20.6748 152.685 20.6248 152.985 20.5748C153.285 20.5248 153.61 20.4998 153.96 20.4998C154.677 20.4998 155.193 20.6248 155.51 20.8748C155.843 21.1248 156.01 21.5831 156.01 22.2498V32.3998Z" fill="#F8F6EE"/>
<path d="M162.72 34.6248C163.103 34.6248 163.478 34.5915 163.845 34.5248C164.228 34.4415 164.503 34.3498 164.67 34.2498V31.8498L162.57 32.0498C162.003 32.0831 161.553 32.1998 161.22 32.3998C160.886 32.5998 160.72 32.8998 160.72 33.2998C160.72 33.6998 160.878 34.0248 161.195 34.2748C161.511 34.5081 162.02 34.6248 162.72 34.6248ZM162.57 24.6248C164.303 24.6248 165.686 24.9915 166.72 25.7248C167.753 26.4415 168.27 27.5581 168.27 29.0748V34.7498C168.27 35.1665 168.161 35.5081 167.945 35.7748C167.728 36.0248 167.453 36.2415 167.12 36.4248C166.62 36.7248 165.995 36.9581 165.245 37.1248C164.511 37.3081 163.67 37.3998 162.72 37.3998C161.02 37.3998 159.661 37.0665 158.645 36.3998C157.645 35.7331 157.145 34.7415 157.145 33.4248C157.145 32.2915 157.495 31.4248 158.195 30.8248C158.895 30.2081 159.936 29.8331 161.32 29.6998L164.645 29.3498V29.0498C164.645 28.4831 164.42 28.0748 163.97 27.8248C163.536 27.5748 162.911 27.4498 162.095 27.4498C161.461 27.4498 160.836 27.5248 160.22 27.6748C159.62 27.8248 159.078 27.9998 158.595 28.1998C158.395 28.0665 158.22 27.8665 158.07 27.5998C157.936 27.3165 157.87 27.0248 157.87 26.7248C157.87 26.0248 158.253 25.5165 159.02 25.1998C159.503 24.9998 160.061 24.8581 160.695 24.7748C161.345 24.6748 161.97 24.6248 162.57 24.6248Z" fill="#F8F6EE"/>
<path d="M187.255 29.5248V34.7248C187.255 35.1915 187.163 35.5498 186.98 35.7998C186.813 36.0331 186.53 36.2581 186.13 36.4748C185.68 36.7248 185.03 36.9415 184.18 37.1248C183.33 37.3248 182.48 37.4248 181.63 37.4248C180.03 37.4248 178.588 37.1498 177.305 36.5998C176.038 36.0331 175.03 35.1665 174.28 33.9998C173.546 32.8165 173.18 31.2998 173.18 29.4498C173.18 27.6831 173.555 26.2081 174.305 25.0248C175.055 23.8248 176.063 22.9248 177.33 22.3248C178.613 21.7081 180.03 21.3998 181.58 21.3998C182.613 21.3998 183.505 21.5081 184.255 21.7248C185.021 21.9415 185.605 22.2415 186.005 22.6248C186.421 23.0081 186.63 23.4498 186.63 23.9498C186.63 24.3165 186.53 24.6498 186.33 24.9498C186.146 25.2331 185.921 25.4498 185.655 25.5998C185.238 25.3331 184.713 25.0831 184.08 24.8498C183.446 24.6165 182.705 24.4998 181.855 24.4998C180.938 24.4998 180.113 24.6998 179.38 25.0998C178.663 25.4831 178.105 26.0498 177.705 26.7998C177.305 27.5331 177.105 28.4081 177.105 29.4248C177.105 30.5248 177.296 31.4415 177.68 32.1748C178.08 32.9081 178.621 33.4581 179.305 33.8248C180.005 34.1748 180.796 34.3498 181.68 34.3498C182.096 34.3498 182.471 34.3081 182.805 34.2248C183.155 34.1415 183.421 34.0581 183.605 33.9748V31.0498H180.68C180.58 30.8831 180.488 30.6748 180.405 30.4248C180.321 30.1581 180.28 29.8748 180.28 29.5748C180.28 29.0581 180.396 28.6831 180.63 28.4498C180.88 28.1998 181.205 28.0748 181.605 28.0748H185.805C186.255 28.0748 186.605 28.1998 186.855 28.4498C187.121 28.6998 187.255 29.0581 187.255 29.5248Z" fill="#F8F6EE"/>
<path d="M200.984 30.9998C200.984 32.2998 200.718 33.4331 200.184 34.3998C199.668 35.3498 198.934 36.0831 197.984 36.5998C197.034 37.1165 195.918 37.3748 194.634 37.3748C193.368 37.3748 192.251 37.1248 191.284 36.6248C190.334 36.1081 189.593 35.3748 189.059 34.4248C188.543 33.4581 188.284 32.3165 188.284 30.9998C188.284 29.6831 188.551 28.5581 189.084 27.6248C189.618 26.6748 190.359 25.9415 191.309 25.4248C192.276 24.8915 193.384 24.6248 194.634 24.6248C195.901 24.6248 197.009 24.8915 197.959 25.4248C198.909 25.9415 199.651 26.6831 200.184 27.6498C200.718 28.5998 200.984 29.7165 200.984 30.9998ZM194.634 27.5498C193.851 27.5498 193.226 27.8498 192.759 28.4498C192.309 29.0498 192.084 29.8998 192.084 30.9998C192.084 32.1165 192.309 32.9748 192.759 33.5748C193.209 34.1581 193.834 34.4498 194.634 34.4498C195.434 34.4498 196.059 34.1498 196.509 33.5498C196.959 32.9498 197.184 32.0998 197.184 30.9998C197.184 29.9165 196.959 29.0748 196.509 28.4748C196.059 27.8581 195.434 27.5498 194.634 27.5498Z" fill="#F8F6EE"/>
<path d="M214.187 30.9998C214.187 32.2998 213.921 33.4331 213.387 34.3998C212.871 35.3498 212.137 36.0831 211.187 36.5998C210.237 37.1165 209.121 37.3748 207.837 37.3748C206.571 37.3748 205.454 37.1248 204.487 36.6248C203.537 36.1081 202.796 35.3748 202.262 34.4248C201.746 33.4581 201.487 32.3165 201.487 30.9998C201.487 29.6831 201.754 28.5581 202.287 27.6248C202.821 26.6748 203.562 25.9415 204.512 25.4248C205.479 24.8915 206.587 24.6248 207.837 24.6248C209.104 24.6248 210.212 24.8915 211.162 25.4248C212.112 25.9415 212.854 26.6831 213.387 27.6498C213.921 28.5998 214.187 29.7165 214.187 30.9998ZM207.837 27.5498C207.054 27.5498 206.429 27.8498 205.962 28.4498C205.512 29.0498 205.287 29.8998 205.287 30.9998C205.287 32.1165 205.512 32.9748 205.962 33.5748C206.412 34.1581 207.037 34.4498 207.837 34.4498C208.637 34.4498 209.262 34.1498 209.712 33.5498C210.162 32.9498 210.387 32.0998 210.387 30.9998C210.387 29.9165 210.162 29.0748 209.712 28.4748C209.262 27.8581 208.637 27.5498 207.837 27.5498Z" fill="#F8F6EE"/>
<path d="M220.215 36.5248C219.232 36.5248 218.315 36.3415 217.465 35.9748C216.632 35.5915 215.957 34.9665 215.44 34.0998C214.94 33.2165 214.69 32.0665 214.69 30.6498C214.69 29.3331 214.949 28.2331 215.465 27.3498C215.999 26.4498 216.74 25.7748 217.69 25.3248C218.64 24.8581 219.74 24.6248 220.99 24.6248C221.89 24.6248 222.724 24.7498 223.49 24.9998C224.274 25.2331 224.882 25.4915 225.315 25.7748C225.615 25.9748 225.857 26.2165 226.04 26.4998C226.224 26.7665 226.315 27.1081 226.315 27.5248V35.3748H222.74V27.9498C222.557 27.8498 222.332 27.7581 222.065 27.6748C221.815 27.5915 221.499 27.5498 221.115 27.5498C220.315 27.5498 219.657 27.7998 219.14 28.2998C218.64 28.7998 218.39 29.5831 218.39 30.6498C218.39 31.8165 218.624 32.6248 219.09 33.0748C219.574 33.5081 220.174 33.7248 220.89 33.7248C221.44 33.7248 221.899 33.6331 222.265 33.4498C222.632 33.2498 222.949 33.0331 223.215 32.7998L223.315 35.7498C222.965 35.9665 222.54 36.1498 222.04 36.2998C221.54 36.4498 220.932 36.5248 220.215 36.5248ZM222.815 36.8748V34.5498H226.315V36.9748C226.315 38.1415 226.04 39.0915 225.49 39.8248C224.957 40.5581 224.224 41.0998 223.29 41.4498C222.374 41.7998 221.34 41.9748 220.19 41.9748C219.324 41.9748 218.549 41.8998 217.865 41.7498C217.199 41.5998 216.69 41.4081 216.34 41.1748C215.774 40.8081 215.49 40.2915 215.49 39.6248C215.49 39.2748 215.557 38.9581 215.69 38.6748C215.84 38.4081 216.015 38.2081 216.215 38.0748C216.665 38.3415 217.199 38.5665 217.815 38.7498C218.432 38.9498 219.082 39.0498 219.765 39.0498C220.699 39.0498 221.44 38.8748 221.99 38.5248C222.54 38.1915 222.815 37.6415 222.815 36.8748Z" fill="#F8F6EE"/>
<path d="M228.081 30.3998L231.806 30.4748V36.9748C231.639 37.0248 231.406 37.0665 231.106 37.0998C230.806 37.1498 230.481 37.1748 230.131 37.1748C229.431 37.1748 228.914 37.0498 228.581 36.7998C228.248 36.5498 228.081 36.0998 228.081 35.4498V30.3998ZM231.806 32.3998L228.081 32.3248V20.7248C228.248 20.6748 228.481 20.6248 228.781 20.5748C229.081 20.5248 229.406 20.4998 229.756 20.4998C230.473 20.4998 230.989 20.6248 231.306 20.8748C231.639 21.1248 231.806 21.5831 231.806 22.2498V32.3998Z" fill="#F8F6EE"/>
<path d="M235.316 32.7498L235.166 30.2498L241.366 29.2748C241.332 28.8081 241.132 28.3748 240.766 27.9748C240.399 27.5748 239.857 27.3748 239.141 27.3748C238.391 27.3748 237.766 27.6331 237.266 28.1498C236.766 28.6498 236.499 29.3665 236.466 30.2998L236.591 32.0248C236.741 32.9415 237.132 33.5998 237.766 33.9998C238.399 34.3831 239.149 34.5748 240.016 34.5748C240.716 34.5748 241.374 34.4748 241.991 34.2748C242.607 34.0748 243.107 33.8665 243.491 33.6498C243.741 33.7998 243.941 34.0081 244.091 34.2748C244.257 34.5415 244.341 34.8248 244.341 35.1248C244.341 35.6248 244.141 36.0415 243.741 36.3748C243.357 36.7081 242.816 36.9581 242.116 37.1248C241.432 37.2915 240.649 37.3748 239.766 37.3748C238.482 37.3748 237.324 37.1331 236.291 36.6498C235.274 36.1665 234.474 35.4415 233.891 34.4748C233.307 33.5081 233.016 32.2998 233.016 30.8498C233.016 29.7831 233.182 28.8581 233.516 28.0748C233.866 27.2915 234.324 26.6498 234.891 26.1498C235.474 25.6331 236.124 25.2498 236.841 24.9998C237.574 24.7498 238.332 24.6248 239.116 24.6248C240.266 24.6248 241.266 24.8581 242.116 25.3248C242.982 25.7748 243.657 26.3915 244.141 27.1748C244.624 27.9581 244.866 28.8665 244.866 29.8998C244.866 30.4165 244.724 30.8081 244.441 31.0748C244.157 31.3415 243.766 31.5081 243.266 31.5748L235.316 32.7498Z" fill="#F8F6EE"/>
<path d="M253.745 29.1248H255.245C256.095 29.1248 256.762 28.9248 257.245 28.5248C257.745 28.1248 257.995 27.5498 257.995 26.7998C257.995 26.0498 257.762 25.4831 257.295 25.0998C256.829 24.7165 256.154 24.5248 255.27 24.5248C254.97 24.5248 254.695 24.5331 254.445 24.5498C254.212 24.5665 253.979 24.5915 253.745 24.6248V29.1248ZM255.495 32.1248H249.97V23.1748C249.97 22.8581 250.062 22.6081 250.245 22.4248C250.429 22.2415 250.67 22.0998 250.97 21.9998C251.52 21.7998 252.179 21.6581 252.945 21.5748C253.712 21.4915 254.404 21.4498 255.02 21.4498C257.27 21.4498 258.97 21.9331 260.12 22.8998C261.287 23.8498 261.87 25.1498 261.87 26.7998C261.87 27.8665 261.612 28.7998 261.095 29.5998C260.595 30.3998 259.87 31.0248 258.92 31.4748C257.97 31.9081 256.829 32.1248 255.495 32.1248ZM249.97 30.4498H253.77V36.9748C253.62 37.0248 253.379 37.0665 253.045 37.0998C252.712 37.1498 252.37 37.1748 252.02 37.1748C251.27 37.1748 250.737 37.0415 250.42 36.7748C250.12 36.5081 249.97 36.0415 249.97 35.3748V30.4498Z" fill="#F8F6EE"/>
<path d="M262.973 30.3998L266.698 30.4748V36.9748C266.532 37.0248 266.298 37.0665 265.998 37.0998C265.698 37.1498 265.373 37.1748 265.023 37.1748C264.323 37.1748 263.807 37.0498 263.473 36.7998C263.14 36.5498 262.973 36.0998 262.973 35.4498V30.3998ZM266.698 32.3998L262.973 32.3248V20.7248C263.14 20.6748 263.373 20.6248 263.673 20.5748C263.973 20.5248 264.298 20.4998 264.648 20.4998C265.365 20.4998 265.882 20.6248 266.198 20.8748C266.532 21.1248 266.698 21.5831 266.698 22.2498V32.3998Z" fill="#F8F6EE"/>
<path d="M273.408 34.6248C273.792 34.6248 274.167 34.5915 274.533 34.5248C274.917 34.4415 275.192 34.3498 275.358 34.2498V31.8498L273.258 32.0498C272.692 32.0831 272.242 32.1998 271.908 32.3998C271.575 32.5998 271.408 32.8998 271.408 33.2998C271.408 33.6998 271.567 34.0248 271.883 34.2748C272.2 34.5081 272.708 34.6248 273.408 34.6248ZM273.258 24.6248C274.992 24.6248 276.375 24.9915 277.408 25.7248C278.442 26.4415 278.958 27.5581 278.958 29.0748V34.7498C278.958 35.1665 278.85 35.5081 278.633 35.7748C278.417 36.0248 278.142 36.2415 277.808 36.4248C277.308 36.7248 276.683 36.9581 275.933 37.1248C275.2 37.3081 274.358 37.3998 273.408 37.3998C271.708 37.3998 270.35 37.0665 269.333 36.3998C268.333 35.7331 267.833 34.7415 267.833 33.4248C267.833 32.2915 268.183 31.4248 268.883 30.8248C269.583 30.2081 270.625 29.8331 272.008 29.6998L275.333 29.3498V29.0498C275.333 28.4831 275.108 28.0748 274.658 27.8248C274.225 27.5748 273.6 27.4498 272.783 27.4498C272.15 27.4498 271.525 27.5248 270.908 27.6748C270.308 27.8248 269.767 27.9998 269.283 28.1998C269.083 28.0665 268.908 27.8665 268.758 27.5998C268.625 27.3165 268.558 27.0248 268.558 26.7248C268.558 26.0248 268.942 25.5165 269.708 25.1998C270.192 24.9998 270.75 24.8581 271.383 24.7748C272.033 24.6748 272.658 24.6248 273.258 24.6248Z" fill="#F8F6EE"/>
<path d="M282.27 34.0248C282.004 33.4748 281.712 32.8081 281.395 32.0248C281.095 31.2415 280.779 30.3165 280.445 29.2498C280.112 28.1831 279.754 26.9498 279.37 25.5498C279.587 25.3331 279.862 25.1498 280.195 24.9998C280.545 24.8331 280.92 24.7498 281.32 24.7498C281.837 24.7498 282.262 24.8581 282.595 25.0748C282.929 25.2915 283.179 25.6998 283.345 26.2998C283.729 27.5165 284.112 28.7248 284.495 29.9248C284.879 31.1248 285.27 32.3331 285.67 33.5498H285.77C286.054 32.7998 286.337 31.9498 286.62 30.9998C286.92 30.0498 287.195 29.0748 287.445 28.0748C287.695 27.0581 287.912 26.0831 288.095 25.1498C288.329 25.0331 288.579 24.9415 288.845 24.8748C289.112 24.7915 289.387 24.7498 289.67 24.7498C290.187 24.7498 290.629 24.8665 290.995 25.0998C291.379 25.3165 291.57 25.6915 291.57 26.2248C291.57 26.6915 291.495 27.2665 291.345 27.9498C291.212 28.6331 291.029 29.3748 290.795 30.1748C290.562 30.9581 290.287 31.7665 289.97 32.5998C289.654 33.4165 289.32 34.2081 288.97 34.9748C288.637 35.7415 288.295 36.4331 287.945 37.0498C287.045 38.6165 286.212 39.7831 285.445 40.5498C284.695 41.3331 283.945 41.7248 283.195 41.7248C282.595 41.7248 282.095 41.5415 281.695 41.1748C281.312 40.8081 281.079 40.3415 280.995 39.7748C281.362 39.4748 281.737 39.1248 282.12 38.7248C282.504 38.3415 282.87 37.9248 283.22 37.4748C283.57 37.0415 283.879 36.6081 284.145 36.1748C283.862 36.0915 283.57 35.9081 283.27 35.6248C282.97 35.3415 282.637 34.8081 282.27 34.0248Z" fill="#F8F6EE"/>
<path d="M294.519 26.9748C294.352 27.2248 294.161 27.4165 293.944 27.5498C293.727 27.6831 293.444 27.7498 293.094 27.7498C292.811 27.7498 292.552 27.7248 292.319 27.6748C292.086 27.6081 291.861 27.5165 291.644 27.3998C291.711 26.7998 291.777 26.1581 291.844 25.4748C291.911 24.7915 291.969 24.1165 292.019 23.4498C292.069 22.7831 292.111 22.1748 292.144 21.6248C292.344 21.5081 292.602 21.4081 292.919 21.3248C293.252 21.2248 293.569 21.1748 293.869 21.1748C294.352 21.1748 294.777 21.2831 295.144 21.4998C295.527 21.6998 295.719 22.0748 295.719 22.6248C295.719 23.0248 295.661 23.5081 295.544 24.0748C295.444 24.6415 295.302 25.1831 295.119 25.6998C294.936 26.2165 294.736 26.6415 294.519 26.9748Z" fill="#F8F6EE"/>
<path d="M305.318 33.4998C305.318 34.7165 304.859 35.6748 303.943 36.3748C303.026 37.0581 301.693 37.3998 299.943 37.3998C298.576 37.3998 297.451 37.1998 296.568 36.7998C295.684 36.3998 295.243 35.8081 295.243 35.0248C295.243 34.6748 295.318 34.3748 295.468 34.1248C295.618 33.8581 295.809 33.6498 296.043 33.4998C296.509 33.7665 297.051 34.0165 297.668 34.2498C298.301 34.4665 299.018 34.5748 299.818 34.5748C301.034 34.5748 301.643 34.2248 301.643 33.5248C301.643 33.2248 301.534 32.9915 301.318 32.8248C301.101 32.6415 300.743 32.5081 300.243 32.4248L299.193 32.1748C297.859 31.8915 296.859 31.4581 296.193 30.8748C295.543 30.2748 295.218 29.4581 295.218 28.4248C295.218 27.2581 295.684 26.3331 296.618 25.6498C297.568 24.9498 298.843 24.5998 300.443 24.5998C301.243 24.5998 301.968 24.6831 302.618 24.8498C303.284 24.9998 303.809 25.2415 304.193 25.5748C304.576 25.8915 304.768 26.2915 304.768 26.7748C304.768 27.1081 304.701 27.3998 304.568 27.6498C304.434 27.8998 304.259 28.1081 304.043 28.2748C303.859 28.1581 303.576 28.0331 303.193 27.8998C302.826 27.7665 302.418 27.6581 301.968 27.5748C301.534 27.4915 301.126 27.4498 300.743 27.4498C300.143 27.4498 299.676 27.5331 299.343 27.6998C299.009 27.8498 298.843 28.0915 298.843 28.4248C298.843 28.6415 298.934 28.8331 299.118 28.9998C299.318 29.1498 299.659 29.2748 300.143 29.3748L301.143 29.6248C302.626 29.9581 303.693 30.4415 304.343 31.0748C304.993 31.6915 305.318 32.4998 305.318 33.4998Z" fill="#F8F6EE"/>
<path d="M327.781 29.8208L315.117 43.8172C315.118 43.8198 315.118 43.8235 315.119 43.826C315.508 45.3458 316.84 46.4642 318.422 46.4642C319.055 46.4642 319.649 46.2858 320.158 45.9738L320.198 45.9489L334.453 37.3838L327.781 29.8208Z" fill="#EA4335"/>
<path d="M340.593 27.4379L340.581 27.4293L334.426 23.7145L327.493 30.1393L334.451 37.3829L340.572 33.7054C341.645 33.1009 342.374 31.923 342.374 30.5654C342.374 29.2153 341.656 28.0436 340.593 27.4379Z" fill="#FBBC04"/>
<path d="M315.117 17.2526C315.04 17.5449 315 17.852 315 18.1692V42.9021C315 43.2192 315.04 43.5264 315.118 43.8175L328.216 30.1789L315.117 17.2526Z" fill="#4285F4"/>
<path d="M327.875 30.5352L334.429 23.7117L320.191 15.1155C319.673 14.7922 319.069 14.6064 318.423 14.6064C316.841 14.6064 315.506 15.7274 315.118 17.2484L315.117 17.2526L327.875 30.5352Z" fill="#34A853"/>
</svg>
