<svg width="708" height="16" viewBox="0 0 708 16" fill="none" xmlns="http://www.w3.org/2000/svg">
<line y1="6.5" x2="330" y2="6.5" stroke="#7DD3FC" stroke-width="3"/>
<g clip-path="url(#clip0_98_491)">
<path d="M357.666 1.27783C356.916 1.28951 356.181 1.49907 355.538 1.88535C354.894 2.27162 354.363 2.82094 354 3.47783C353.636 2.82094 353.106 2.27162 352.462 1.88535C351.818 1.49907 351.084 1.28951 350.333 1.27783C349.136 1.32983 348.009 1.85333 347.197 2.73399C346.385 3.61464 345.955 4.78085 346 5.97783C346 9.00917 349.19 12.3198 351.866 14.5645C352.464 15.0666 353.219 15.3418 354 15.3418C354.78 15.3418 355.536 15.0666 356.133 14.5645C358.809 12.3198 362 9.00917 362 5.97783C362.045 4.78085 361.615 3.61464 360.803 2.73399C359.991 1.85333 358.863 1.32983 357.666 1.27783Z" fill="#7DD3FC"/>
</g>
<line x1="378" y1="6.5" x2="708" y2="6.5" stroke="#7DD3FC" stroke-width="3"/>
<defs>
<clipPath id="clip0_98_491">
<rect width="16" height="16" fill="white" transform="translate(346)"/>
</clipPath>
</defs>
</svg>
