<svg width="23" height="23" viewBox="0 0 23 23" fill="none" xmlns="http://www.w3.org/2000/svg">
<g clip-path="url(#clip0_98_438)">
<path d="M16.7708 1.83691C15.6917 1.8537 14.6361 2.15494 13.7106 2.71022C12.7852 3.26549 12.0226 4.05514 11.5 4.99941C10.9774 4.05514 10.2148 3.26549 9.28935 2.71022C8.36389 2.15494 7.3083 1.8537 6.22917 1.83691C4.5089 1.91166 2.88814 2.6642 1.72096 3.93014C0.553783 5.19607 -0.0649269 6.8725 7.18981e-07 8.59316C7.18981e-07 12.9507 4.58658 17.7098 8.43333 20.9365C9.29221 21.6582 10.3781 22.0539 11.5 22.0539C12.6219 22.0539 13.7078 21.6582 14.5667 20.9365C18.4134 17.7098 23 12.9507 23 8.59316C23.0649 6.8725 22.4462 5.19607 21.279 3.93014C20.1119 2.6642 18.4911 1.91166 16.7708 1.83691Z" fill="#FFB4E5"/>
</g>
<defs>
<clipPath id="clip0_98_438">
<rect width="23" height="23" fill="white"/>
</clipPath>
</defs>
</svg>
